<svg width="50" height="30" viewBox="0 0 50 30" fill="none" xmlns="http://www.w3.org/2000/svg">
<path d="M0 0.77124H49.9112V29.2358H0V0.77124ZM34.6179 17.9343C34.6179 17.7722 34.6251 17.2138 34.6359 17.0012C39.2113 19.0115 43.7903 21.0218 48.3657 23.0321C48.3729 16.1582 48.3801 9.28071 48.3837 2.40685H1.52753C6.83064 4.75578 12.1914 7.0975 17.4945 9.44283C16.4353 9.79229 15.3257 10.1454 14.2665 10.4912V13.2076C10.1054 11.3811 5.94438 9.55091 1.78331 7.72437C1.77971 14.3064 1.77251 20.8885 1.7653 27.4669C16.81 27.5102 31.8583 27.5534 46.8994 27.5966V27.5606C42.2447 25.5179 37.5865 23.4788 32.9283 21.4361C30.1939 22.4088 27.4558 23.3815 24.7178 24.3506V24.2425H6.14613V14.6739C8.85173 15.8592 11.5609 17.0444 14.2665 18.2297V21.1623L24.6998 23.8751C24.707 23.8102 24.7106 23.7418 24.7178 23.6733C28.0215 22.6105 31.3287 21.5478 34.6359 20.485V18.6332C31.3287 19.1628 28.0215 19.696 24.7178 20.2292V19.5663C28.0107 19.0223 31.3251 18.4783 34.6179 17.9343ZM45.8906 3.72902C43.7398 5.8654 41.5891 8.00537 39.4383 10.1454C38.3863 11.1937 37.3379 12.2457 36.286 13.2977C36.2787 10.1093 36.2715 6.91737 36.2679 3.72902H45.8906ZM36.2679 15.3872L46.8814 4.6441C46.885 9.99764 46.8922 15.3512 46.8994 20.7047C43.3544 19.152 39.8093 17.5992 36.2679 16.0465V15.3872ZM19.1986 7.3569V3.72902H24.7178L20.6108 7.52262C20.3946 7.69555 19.476 8.60341 19.4291 8.61062C19.3823 8.61783 19.2994 8.5782 19.2562 8.54938C19.2418 8.54217 19.2166 8.56379 19.213 8.53136C19.1913 8.308 19.1986 7.54784 19.1986 7.3569ZM24.7358 7.02905C23.6983 7.37131 22.6571 7.71356 21.6195 8.05581C22.6463 7.10111 23.6731 6.1464 24.6998 5.1953C24.707 5.5952 24.725 6.56071 24.7358 7.02905ZM12.7282 5.67085C11.2691 5.02958 9.80643 4.38831 8.34735 3.74703H8.30772C9.78121 3.73983 11.2547 3.73262 12.7282 3.72902V5.67085ZM13.6433 6.09236V4.22258C14.5007 5.22052 15.3545 6.21485 16.212 7.21279C15.3545 6.83811 14.5007 6.46704 13.6433 6.09236ZM14.3602 3.72902H18.0817V7.74238C16.8424 6.40579 15.5995 5.06561 14.3602 3.72902ZM24.7358 20.485V23.4356C22.8913 22.8483 21.0431 22.2611 19.1986 21.6738V19.5483C18.8275 19.487 18.4528 19.4258 18.0817 19.3645V21.31L14.8718 20.2832V18.7773C15.9382 18.9611 17.0009 19.1448 18.0637 19.3285V18.5395C17.0009 18.4134 15.9382 18.2838 14.8718 18.1541V16.2122C15.9382 16.2194 17.0009 16.223 18.0637 16.2302V15.3872C17.0009 15.4196 15.9382 15.4485 14.8718 15.4809V13.7552C15.9309 13.6111 16.9865 13.4634 18.0457 13.3157C18.0493 12.9914 18.0565 12.6672 18.0637 12.343C17.0009 12.5627 15.9382 12.7861 14.8718 13.0059V11.1901C15.9382 10.8731 17.0009 10.5525 18.0637 10.2354H18.0817V12.3069C18.4492 12.2349 18.8167 12.1628 19.1805 12.0872C19.1877 11.3558 19.1913 10.6209 19.1986 9.88956C21.0431 9.33836 22.8913 8.78715 24.7358 8.23594V10.9343C22.8949 11.3162 21.0575 11.7053 19.2166 12.0872V13.15C21.0575 12.8942 22.8949 12.6384 24.7358 12.379V15.1675C28.0287 15.1855 31.3251 15.2035 34.6179 15.2215V13.2797L24.7178 11.8854V11.2261C28.0179 11.7629 31.3179 12.2997 34.6179 12.8401V10.6029C31.7034 9.6734 28.7852 8.74392 25.8707 7.81804V4.40632C27.2937 5.81136 28.7204 7.21639 30.1434 8.62143C30.6082 8.75833 31.0729 8.89163 31.5377 9.02493C29.6535 7.26683 27.7729 5.50513 25.8923 3.74703C29.0446 3.73983 32.1969 3.73262 35.3493 3.72902V15.625L34.6359 15.3332V15.8988C31.3287 15.942 28.0215 15.9853 24.7178 16.0285V15.1855C22.8841 15.2395 21.0503 15.2971 19.2166 15.3512V16.2302C21.0575 16.2446 22.8949 16.2555 24.7358 16.2663V19.3645C22.8949 19.1412 21.0575 18.9142 19.2166 18.6872V19.5303C21.0575 19.8473 22.8949 20.1679 24.7358 20.485ZM18.0817 15.3332C18.4528 15.3224 18.8275 15.308 19.1986 15.2971V13.168C18.8275 13.2184 18.4528 13.2689 18.0817 13.3157V15.3332ZM18.0817 18.5215C18.4528 18.5648 18.8275 18.608 19.1986 18.6512V16.2483H18.0817V18.5215Z" fill="#074385"/>
</svg>
