<svg width="52" height="30" viewBox="0 0 52 30" fill="none" xmlns="http://www.w3.org/2000/svg">
<path d="M0 0.374107H51.9484V30.0005H0V0.374107ZM36.0309 18.2377C36.0309 18.069 36.0384 17.4878 36.0496 17.2665C40.8118 19.3589 45.5776 21.4512 50.3398 23.5435C50.3473 16.3891 50.3548 9.23091 50.3585 2.07647H1.58987C7.10944 4.52128 12.689 6.95859 18.2086 9.39964C17.1061 9.76336 15.9512 10.1308 14.8488 10.4908V13.3181C10.5179 11.417 6.18701 9.51213 1.8561 7.61103C1.85235 14.4617 1.84485 21.3124 1.83735 28.1594C17.4961 28.2044 33.1586 28.2494 48.8136 28.2944V28.2569C43.969 26.1308 39.1207 24.0085 34.2723 21.8824C31.4263 22.8948 28.5765 23.9072 25.7267 24.9159V24.8034H6.39699V14.8442C9.21302 16.0779 12.0328 17.3115 14.8488 18.5452V21.5974L25.708 24.421C25.7155 24.3535 25.7192 24.2822 25.7267 24.211C29.1652 23.1048 32.6074 21.9986 36.0496 20.8925V18.9651C32.6074 19.5163 29.1652 20.0713 25.7267 20.6263V19.9363C29.1539 19.3701 32.6037 18.8039 36.0309 18.2377ZM47.7637 3.45261C45.5251 5.67619 43.2866 7.90351 41.048 10.1308C39.9531 11.222 38.8619 12.3169 37.767 13.4118C37.7595 10.0933 37.752 6.7711 37.7483 3.45261H47.7637ZM37.7483 15.5867L48.7949 4.40504C48.7986 9.9771 48.8061 15.5492 48.8136 21.1212C45.1239 19.5051 41.4342 17.889 37.7483 16.2728V15.5867ZM19.9822 7.22857V3.45261H25.7267L21.4521 7.40105C21.2271 7.58104 20.2709 8.52596 20.2221 8.53346C20.1734 8.54096 20.0872 8.49971 20.0422 8.46972C20.0272 8.46222 20.0009 8.48472 19.9972 8.45097C19.9747 8.21849 19.9822 7.4273 19.9822 7.22857ZM25.7455 6.88734C24.6655 7.24356 23.5819 7.59979 22.502 7.95601C23.5706 6.96234 24.6393 5.96866 25.708 4.97874C25.7155 5.39496 25.7342 6.39988 25.7455 6.88734ZM13.2477 5.4737C11.7291 4.80626 10.2067 4.13881 8.68806 3.47136H8.64682C10.1804 3.46386 11.7141 3.45636 13.2477 3.45261V5.4737ZM14.2001 5.91242V3.96632C15.0926 5.00499 15.9812 6.03991 16.8737 7.07858C15.9812 6.68861 15.0926 6.30239 14.2001 5.91242ZM14.9463 3.45261H18.8198V7.62978C17.5299 6.23864 16.2362 4.84375 14.9463 3.45261ZM25.7455 20.8925V23.9635C23.8256 23.3523 21.902 22.7411 19.9822 22.1299V19.9176C19.5959 19.8538 19.206 19.7901 18.8198 19.7263V21.7512L15.4788 20.6825V19.1151C16.5887 19.3064 17.6948 19.4976 18.801 19.6888V18.8676C17.6948 18.7364 16.5887 18.6014 15.4788 18.4664V16.4453C16.5887 16.4528 17.6948 16.4566 18.801 16.4641V15.5867C17.6948 15.6204 16.5887 15.6504 15.4788 15.6841V13.888C16.5812 13.738 17.6798 13.5843 18.7823 13.4306C18.786 13.0931 18.7935 12.7556 18.801 12.4182C17.6948 12.6469 16.5887 12.8794 15.4788 13.1081V11.2182C16.5887 10.8883 17.6948 10.5546 18.801 10.2246H18.8198V12.3807C19.2022 12.3057 19.5847 12.2307 19.9634 12.1519C19.9709 11.3907 19.9747 10.6258 19.9822 9.86461C21.902 9.2909 23.8256 8.7172 25.7455 8.14349V10.952C23.8294 11.3495 21.917 11.7545 20.0009 12.1519V13.2581C21.917 12.9919 23.8294 12.7256 25.7455 12.4557V15.3579C29.1727 15.3767 32.6037 15.3954 36.0309 15.4142V13.3931L25.7267 11.9419V11.2557C29.1614 11.8145 32.5962 12.3732 36.0309 12.9356V10.607C32.9974 9.63962 29.9601 8.6722 26.9266 7.70853V4.15756C28.4078 5.61994 29.8926 7.08233 31.3738 8.54471C31.8575 8.6872 32.3412 8.82594 32.8249 8.96468C30.8638 7.13482 28.9065 5.30122 26.9491 3.47136C30.2301 3.46386 33.5111 3.45636 36.7921 3.45261V15.8341L36.0496 15.5304V16.1191C32.6074 16.1641 29.1652 16.2091 25.7267 16.2541V15.3767C23.8181 15.4329 21.9095 15.4929 20.0009 15.5492V16.4641C21.917 16.4791 23.8294 16.4903 25.7455 16.5016V19.7263C23.8294 19.4938 21.917 19.2576 20.0009 19.0214V19.8988C21.917 20.2288 23.8294 20.5625 25.7455 20.8925ZM18.8198 15.5304C19.206 15.5192 19.5959 15.5042 19.9822 15.4929V13.2768C19.5959 13.3293 19.206 13.3818 18.8198 13.4306V15.5304ZM18.8198 18.8489C19.206 18.8939 19.5959 18.9389 19.9822 18.9839V16.4828H18.8198V18.8489Z" fill="white"/>
</svg>
