<svg width="108" height="44" viewBox="0 0 108 44" fill="none" xmlns="http://www.w3.org/2000/svg">
<g clip-path="url(#clip0_32_1358)">
<path d="M10.3719 32.8359H0.724426V43.2644H10.3719V32.8359Z" fill="#C33D32"/>
<path d="M20.5893 32.8359H10.9419V43.2644H20.5893V32.8359Z" fill="#C33D32"/>
<path d="M30.8186 32.8359H21.1712V43.2644H30.8186V32.8359Z" fill="#C33D32"/>
<path d="M10.3719 21.7715H0.724426V32.1999H10.3719V21.7715Z" fill="#C33D32"/>
<path d="M10.3719 10.7109H0.724426V21.1394H10.3719V10.7109Z" fill="#C33D32"/>
<path d="M20.5893 21.7715H10.9419V32.1999H20.5893V21.7715Z" fill="#C33D32"/>
<path d="M30.8186 21.7715H21.1712V32.1999H30.8186V21.7715Z" fill="#C33D32"/>
<path d="M30.8189 9.68872H30.2368V22.6693H30.8189V9.68872Z" fill="#C33D32"/>
<path d="M10.9419 21.7677V10.5224L21.8851 0.11377V11.3585L10.9419 21.7677Z" fill="#C33D32"/>
<path d="M19.8756 21.7677V10.5224L30.8192 0.11377V11.3585L19.8756 21.7677Z" fill="#C33D32"/>
<path d="M38.3455 25.7437V18.7964H40.2878L41.4539 23.5352L42.6069 18.7964H44.553V25.7437H43.3477V20.2747L42.0715 25.7437H40.822L39.5508 20.2747V25.7437H38.3455Z" fill="#2D3137"/>
<path d="M46.9171 22.2642C46.9171 23.0508 47.085 23.6478 47.4215 24.0538C47.7573 24.4592 48.184 24.6623 48.7014 24.6623C49.2189 24.6623 49.6436 24.4613 49.9751 24.0578C50.3066 23.6552 50.472 23.0508 50.472 22.2455C50.472 21.4494 50.311 20.8552 49.9876 20.4639C49.6647 20.072 49.2362 19.8764 48.7014 19.8764C48.1665 19.8764 47.7349 20.0747 47.4078 20.4706C47.0807 20.8672 46.9171 21.465 46.9171 22.2642ZM45.58 22.312C45.58 21.6041 45.6776 21.0105 45.8741 20.5298C46.0196 20.1762 46.2186 19.8582 46.4724 19.5772C46.7243 19.2962 47.0017 19.0878 47.3033 18.952C47.7032 18.7685 48.1653 18.677 48.6884 18.677C49.6349 18.677 50.3924 18.9943 50.9615 19.6296C51.5299 20.2642 51.8141 21.1476 51.8141 22.2791C51.8141 23.4004 51.5318 24.2777 50.9683 24.911C50.4042 25.5449 49.6498 25.8616 48.7057 25.8616C47.7499 25.8616 46.9899 25.5463 46.4258 24.9164C45.8617 24.2858 45.58 23.4179 45.58 22.312Z" fill="#2D3137"/>
<path d="M56.9393 23.1886L58.1981 23.6202C58.0047 24.3785 57.6838 24.9419 57.2347 25.3096C56.787 25.6774 56.2173 25.8616 55.5275 25.8616C54.6736 25.8616 53.9727 25.5463 53.423 24.9164C52.8738 24.2858 52.5989 23.4239 52.5989 22.3308C52.5989 21.1745 52.8757 20.277 53.4273 19.637C53.9802 18.997 54.7066 18.677 55.6066 18.677C56.3926 18.677 57.0314 18.9285 57.5221 19.4307C57.815 19.7277 58.0339 20.154 58.1801 20.7099L56.8952 21.042C56.8193 20.6817 56.6613 20.3973 56.42 20.1889C56.1787 19.9806 55.8852 19.8764 55.5406 19.8764C55.0642 19.8764 54.6774 20.0612 54.3814 20.431C54.0847 20.8007 53.936 21.3991 53.936 22.2266C53.936 23.1053 54.0822 23.7304 54.3745 24.1036C54.6668 24.476 55.0468 24.6623 55.5145 24.6623C55.8596 24.6623 56.1563 24.544 56.4044 24.3073C56.6526 24.0707 56.8311 23.6976 56.9393 23.1886Z" fill="#2D3137"/>
<path d="M59.3323 18.7944H60.6304V21.7517C60.9195 21.7201 61.1154 21.6394 61.2174 21.5096C61.3194 21.3799 61.478 21.0203 61.6913 20.4293C61.96 19.6777 62.2299 19.2098 62.5023 19.0263C62.771 18.8435 63.2051 18.752 63.8041 18.752C63.8336 18.752 63.8969 18.75 63.9929 18.7473V19.7846L63.8085 19.7799C63.5426 19.7799 63.3481 19.8155 63.2256 19.8868C63.1025 19.9581 63.0036 20.0663 62.9277 20.2115C62.8513 20.3567 62.7387 20.6552 62.5894 21.107C62.5104 21.347 62.4258 21.548 62.3332 21.7087C62.2417 21.87 62.0781 22.0212 61.8443 22.1638C62.1342 22.2525 62.3729 22.4307 62.5614 22.6989C62.7498 22.9679 62.9563 23.347 63.1815 23.8371L64.0581 25.7416H62.5328L61.7654 23.946C61.7541 23.9204 61.7287 23.8713 61.6913 23.7987C61.6764 23.7739 61.6223 23.665 61.529 23.4714C61.3623 23.1305 61.2255 22.9174 61.1185 22.8321C61.0122 22.7466 60.8492 22.7023 60.6304 22.6989V25.7416H59.3323V18.7944Z" fill="#2D3137"/>
<path d="M68.1972 22.9954L67.3116 20.4166L66.4435 22.9954H68.1972ZM70.5863 25.7437H69.1744L68.6137 24.1652H66.0446L65.5146 25.7437H64.1379L66.6411 18.7964H68.0134L70.5863 25.7437Z" fill="#2D3137"/>
<path d="M71.1733 18.7944H76.2851V25.7424H74.988V19.9602H72.4717V25.7424H71.1733V18.7944Z" fill="#2D3137"/>
<path d="M81.7223 23.1886L82.9811 23.6202C82.7879 24.3785 82.4668 24.9419 82.0177 25.3096C81.5699 25.6774 81.0003 25.8616 80.3104 25.8616C79.4568 25.8616 78.7556 25.5463 78.2061 24.9164C77.6567 24.2858 77.382 23.4239 77.382 22.3308C77.382 21.1745 77.6586 20.277 78.2105 19.637C78.7631 18.997 79.4894 18.677 80.3894 18.677C81.1753 18.677 81.8145 18.9285 82.305 19.4307C82.5979 19.7277 82.8168 20.154 82.9623 20.7099L81.6784 21.042C81.6025 20.6817 81.4444 20.3973 81.2029 20.1889C80.9615 19.9806 80.6679 19.8764 80.3236 19.8764C79.8469 19.8764 79.4605 20.0612 79.1645 20.431C78.8678 20.8007 78.7192 21.3991 78.7192 22.2266C78.7192 23.1053 78.8653 23.7304 79.1576 24.1036C79.4499 24.476 79.83 24.6623 80.2972 24.6623C80.6428 24.6623 80.9395 24.544 81.1873 24.3073C81.4356 24.0707 81.6138 23.6976 81.7223 23.1886Z" fill="#2D3137"/>
<path d="M85.318 25.7437V19.9715H83.4113V18.7964H88.5186V19.9715H86.6163V25.7437H85.318Z" fill="#2D3137"/>
<path d="M90.6535 19.9715V21.9427H91.3629C91.8747 21.9427 92.2165 21.907 92.389 21.8338C92.5615 21.7612 92.6964 21.6475 92.7948 21.4929C92.8927 21.3383 92.9416 21.1581 92.9416 20.9524C92.9416 20.6996 92.8732 20.4912 92.7352 20.3271C92.5985 20.1631 92.4241 20.0603 92.214 20.0193C92.0591 19.9877 91.7474 19.9715 91.2801 19.9715H90.6535ZM89.3564 25.7437V18.7964H91.4382C92.2272 18.7964 92.7421 18.8314 92.9811 18.9006C93.3499 19.0048 93.6585 19.2314 93.9069 19.5803C94.1553 19.9298 94.2794 20.381 94.2794 20.9336C94.2794 21.3605 94.2079 21.7188 94.0643 22.0092C93.9213 22.3003 93.7394 22.5282 93.5186 22.6943C93.2979 22.8596 93.0739 22.9699 92.8456 23.0236C92.5364 23.0895 92.0873 23.1232 91.5003 23.1232H90.6541V25.7437H89.3564Z" fill="#2D3137"/>
<path d="M96.2995 22.2642C96.2995 23.0508 96.4676 23.6478 96.8044 24.0538C97.14 24.4592 97.5665 24.6623 98.084 24.6623C98.6014 24.6623 99.026 24.4613 99.3578 24.0578C99.6896 23.6552 99.8546 23.0508 99.8546 22.2455C99.8546 21.4494 99.6934 20.8552 99.3704 20.4639C99.0474 20.072 98.619 19.8764 98.084 19.8764C97.5496 19.8764 97.1174 20.0747 96.7907 20.4706C96.4632 20.8672 96.2995 21.465 96.2995 22.2642ZM94.963 22.312C94.963 21.6041 95.0602 21.0105 95.2571 20.5298C95.4026 20.1762 95.6015 19.8582 95.8548 19.5772C96.107 19.2962 96.3842 19.0878 96.6859 18.952C97.0861 18.7685 97.5483 18.677 98.0708 18.677C99.0179 18.677 99.7749 18.9943 100.344 19.6296C100.913 20.2642 101.197 21.1476 101.197 22.2791C101.197 23.4004 100.915 24.2777 100.351 24.911C99.7868 25.5449 99.0323 25.8616 98.0884 25.8616C97.1331 25.8616 96.3723 25.5463 95.8084 24.9164C95.2446 24.2858 94.963 23.4179 94.963 22.312Z" fill="#2D3137"/>
<path d="M105.56 17.0623H106.16C106.125 17.4918 105.986 17.8293 105.741 18.074C105.498 18.3188 105.181 18.4411 104.792 18.4411C104.404 18.4411 104.087 18.3188 103.843 18.074C103.599 17.8293 103.46 17.4918 103.425 17.0623H104.025C104.045 17.2868 104.118 17.4562 104.245 17.5718C104.37 17.6868 104.553 17.7446 104.792 17.7446C105.032 17.7446 105.215 17.6868 105.341 17.5718C105.465 17.4562 105.539 17.2875 105.56 17.0623ZM102.228 18.792H103.443V23.4172L106.046 18.792H107.339V25.7393H106.125V21.2041L103.526 25.7393H102.228V18.792Z" fill="#2D3137"/>
</g>
<defs>
<clipPath id="clip0_32_1358">
<rect width="106.626" height="43.3912" fill="white" transform="translate(0.712616 0.11377)"/>
</clipPath>
</defs>
</svg>
