<svg width="104" height="18" viewBox="0 0 104 18" fill="none" xmlns="http://www.w3.org/2000/svg">
<g clip-path="url(#clip0_32_1946)">
<mask id="mask0_32_1946" style="mask-type:luminance" maskUnits="userSpaceOnUse" x="-1" y="0" width="105" height="18">
<path d="M103.468 0.052002H-0.02211V17.4295H103.468V0.052002Z" fill="white"/>
</mask>
<g mask="url(#mask0_32_1946)">
<path d="M16.147 0.052002H-0.02211V3.52592H16.147V0.052002Z" fill="#FBB92F"/>
<path d="M16.147 6.99951H-0.02211V10.4734H16.147V6.99951Z" fill="#EE7918"/>
<path d="M16.147 13.949H-0.02211V17.423H16.147V13.949Z" fill="#E42213"/>
<path d="M79.001 3.5292L81.5551 10.4703H76.4399L79.001 3.5292ZM76.5233 0.0539551L70.3159 17.4236H74.023L75.2372 13.9419L82.7654 13.9453L83.9791 17.4236H87.6661L81.0985 0.0539551H76.5233Z" fill="black"/>
<path d="M22.6346 0.0539551V17.4236H35.9006V13.9519L25.8775 13.9459V10.4741H35.9006V6.99339H25.8775V3.53042L35.9006 3.51878V0.0539551H22.6346Z" fill="black"/>
<path d="M89.9074 17.4098H96.1771H98.6654C101.277 17.4098 103.489 15.5028 103.489 12.2542C103.489 10.9152 103.01 9.60148 101.518 8.7319C103.246 7.65205 103.489 6.54858 103.489 5.20967C103.489 2.38377 101.277 0.0539551 98.6654 0.0539551H96.1771H89.9074V3.58641H98.5147C99.3934 3.58641 100.105 4.3514 100.105 5.29508C100.105 6.23877 99.3934 7.00382 98.5147 7.00382H96.7961H91.5201V10.4599H96.7961H98.5147C99.3934 10.4599 100.105 11.225 100.105 12.1686C100.105 13.1123 99.3934 13.8773 98.5147 13.8773H89.9074V17.4098Z" fill="black"/>
<path d="M65.8444 0.0539551H63.3561H56.9252V17.4236H60.1605V10.46H63.9756H65.8444C68.5196 10.46 70.6878 8.13053 70.6878 5.25698C70.6878 2.38343 68.5196 0.0539551 65.8444 0.0539551ZM65.6937 7.00382H60.156V3.58641H65.6937C66.5724 3.58641 67.2842 4.3514 67.2842 5.29508C67.2842 6.23877 66.5724 7.00382 65.6937 7.00382Z" fill="black"/>
<path d="M51.4858 8.7319C53.213 7.65205 53.4561 6.54858 53.4561 5.20967C53.4561 2.38377 51.2437 0.0539551 48.6325 0.0539551C48.6317 0.0539551 48.6312 0.0539551 48.6305 0.0539551H39.7919V17.4098H48.7922C51.4034 17.4098 53.6159 15.5028 53.6159 12.2542C53.6159 10.9152 52.9779 9.60154 51.4858 8.7319ZM43.0229 3.58641H48.4799C49.3583 3.58641 50.0704 4.3514 50.0704 5.29508C50.0704 6.23877 49.3583 7.00382 48.4799 7.00382H46.8422H43.0229V3.58641ZM48.6416 13.8773H43.0229V10.4599H48.6415C49.52 10.4599 50.2321 11.225 50.2321 12.1686C50.2321 13.1123 49.52 13.8773 48.6416 13.8773Z" fill="black"/>
</g>
</g>
<defs>
<clipPath id="clip0_32_1946">
<rect width="103.49" height="17.3775" fill="white" transform="translate(-0.000335693 0.0549316)"/>
</clipPath>
</defs>
</svg>
