<svg width="94" height="28" viewBox="0 0 94 28" fill="none" xmlns="http://www.w3.org/2000/svg">
<rect x="0.311584" y="0.775391" width="93.4547" height="26.4415" fill="#002D72"/>
<path fill-rule="evenodd" clip-rule="evenodd" d="M17.3565 22.4719L20.4299 12.2343V22.4719H25.0713V6.2002H18.7991L15.7885 14.336L12.8406 6.2002H6.56848V22.4719H11.2099V12.2343L14.3459 22.4719H17.3565ZM67.0945 16.1666C68.5371 16.031 69.9797 14.9462 69.9797 13.1835V9.52233V9.18334C69.7915 7.35277 68.5371 6.33579 67.0945 6.2002H55.1775V22.4719H59.8189V16.1666H61.6378L64.6484 22.4719H69.9797L66.4046 16.1666H67.0945ZM65.8401 11.8953C65.8401 12.2343 65.7774 12.5733 65.2129 12.5733H59.8189V9.38674H65.2129C65.8401 9.38674 65.8401 9.86133 65.8401 10.1325V11.8953ZM38.9954 9.38674V6.2002H26.9529V22.4719H39.1208V19.2853H31.5943V15.8276H38.9954V12.6411H31.5943V9.38674H38.9954ZM44.7657 9.38674H40.3753V6.2002H53.7976V9.38674H49.4071V22.4719H44.7657V9.38674ZM84.5938 6.2002H74.7465C73.2412 6.33579 72.0495 7.14938 71.8613 8.97994V19.4887C72.0495 21.3193 73.3039 22.3363 74.7465 22.4041H84.5938C86.0991 22.2685 87.2908 21.3193 87.4789 19.4887V8.97994C87.2908 7.14938 86.0363 6.33579 84.5938 6.2002ZM82.8376 18.5396C82.8376 18.743 82.7748 19.2176 82.2104 19.2853H77.1926C76.6282 19.2176 76.5027 18.743 76.5027 18.5396V10.0647C76.5027 9.86133 76.6282 9.52233 77.1926 9.45453H82.2104C82.7748 9.52233 82.8376 9.92913 82.8376 10.0647V18.5396Z" fill="#FFE500"/>
</svg>
