<svg width="86" height="18" viewBox="0 0 86 18" fill="none" xmlns="http://www.w3.org/2000/svg">
<g clip-path="url(#clip0_32_1921)">
<path d="M9.71481 5.81929C8.87974 5.25326 7.91176 4.95863 6.92619 4.9705C6.31571 4.96632 5.71049 5.09244 5.14522 5.34164C4.60289 5.58002 4.10629 5.9253 3.68072 6.35989C3.26767 6.77875 2.93138 7.27804 2.68947 7.83157L2.72082 6.184V0.73291H0.848782V10.2763C0.848782 14.8512 3.26869 17.6509 6.62612 17.6509H6.94708C7.92562 17.6606 8.8862 17.3666 9.71481 16.8038C10.5486 16.2387 11.2282 15.4439 11.6839 14.501C12.1571 13.5143 12.4042 12.419 12.4042 11.3075C12.4042 10.196 12.1571 9.10076 11.6839 8.11395C11.2268 7.17438 10.5473 6.38258 9.71481 5.81929ZM10.0134 13.6134C9.67787 14.2697 9.18551 14.8164 8.58771 15.1965C7.99236 15.5759 7.31277 15.7734 6.62164 15.7678C5.93227 15.7717 5.25554 15.5677 4.6675 15.1788C4.06875 14.7859 3.57646 14.2293 3.24033 13.565C2.89538 12.8721 2.71481 12.0976 2.71481 11.3107C2.71481 10.5239 2.89538 9.74926 3.24033 9.05636C3.5754 8.39288 4.06605 7.83639 4.66301 7.44268C5.25391 7.0494 5.9352 6.84362 6.62911 6.84884C7.32425 6.84202 8.00785 7.04126 8.60565 7.42493C9.20232 7.80791 9.69305 8.35681 10.0268 9.01446C10.372 9.72234 10.5524 10.5105 10.5524 11.3107C10.5524 12.111 10.372 12.8991 10.0268 13.607L10.0134 13.6134Z" fill="#1D1E1E"/>
<path d="M22.7454 5.80356C21.9024 5.24505 20.9305 4.95529 19.9418 4.96767C18.9297 4.95516 17.9348 5.251 17.0711 5.82131C16.2166 6.38389 15.5143 7.17977 15.0348 8.12888C14.545 9.10803 14.2884 10.2037 14.2884 11.3168C14.2884 12.4299 14.545 13.5255 15.0348 14.5046C15.5149 15.4503 16.2172 16.2424 17.0711 16.801C17.9362 17.3671 18.9305 17.6606 19.9418 17.6482C20.7277 17.6542 21.5056 17.4776 22.2229 17.1301C22.9105 16.8014 23.5253 16.3177 24.0262 15.7117C24.5077 15.1323 24.8682 14.4477 25.0832 13.7042H22.9798C22.8311 14.1295 22.5988 14.515 22.299 14.8338C22.0021 15.1454 21.6453 15.3823 21.254 15.5278C20.8175 15.6871 20.3592 15.7651 19.8985 15.7585C19.2436 15.7602 18.6009 15.5665 18.0414 15.1985C17.455 14.8165 16.9781 14.2663 16.6635 13.6091C16.3945 13.0581 16.2302 12.4546 16.1798 11.8339H25.3982C25.4057 11.6451 25.4131 11.487 25.4206 11.3499C25.428 11.2127 25.431 11.1046 25.431 11.0029C25.4363 9.95708 25.1916 8.92748 24.7209 8.01383C24.2501 7.10011 23.5692 6.33325 22.7439 5.78743L22.7454 5.80356ZM17.7816 10.054H16.2649C16.3449 9.64771 16.4808 9.25665 16.6679 8.89379C16.9891 8.26468 17.4663 7.74494 18.0459 7.39306C18.6149 7.0489 19.2569 6.87042 19.9089 6.87506C20.5117 6.87161 21.1069 7.02083 21.6466 7.31076C22.1647 7.58168 22.6149 7.98352 22.9588 8.48232C23.2794 8.93793 23.4721 9.48343 23.5142 10.054H17.7816Z" fill="#1D1E1E"/>
<path d="M34.65 10.9952C34.0231 10.7343 33.3726 10.545 32.7093 10.4304L32.5287 10.4013C32.4675 10.3885 32.4077 10.3788 32.3495 10.3707C31.7919 10.2812 31.2424 10.1398 30.7074 9.9479C30.3938 9.84424 30.1165 9.64064 29.9117 9.36375C29.7448 9.08598 29.6629 8.75858 29.6773 8.42779C29.6742 8.10961 29.7555 7.79712 29.9117 7.52735C30.0841 7.23955 30.3328 7.01461 30.6253 6.88188C30.9973 6.71329 31.3984 6.63295 31.8017 6.64627C32.2347 6.63554 32.6656 6.71555 33.0706 6.88188C33.4016 7.01481 33.6906 7.24713 33.9036 7.55156C34.0999 7.84438 34.2135 8.19246 34.2305 8.55369H36.0712C36.079 7.89055 35.8942 7.24149 35.5427 6.69791C35.1629 6.12438 34.6421 5.67719 34.0394 5.40695C33.3312 5.0845 32.5684 4.92617 31.8002 4.9422C31.0491 4.91878 30.3029 5.07759 29.6161 5.40695C29.0641 5.67323 28.5968 6.10931 28.2725 6.6608C27.9701 7.20448 27.8149 7.82899 27.8247 8.46332C27.8247 9.2228 27.9969 9.84675 28.3412 10.3352C28.6941 10.8309 29.1639 11.2149 29.7012 11.447C30.349 11.7243 31.0259 11.9145 31.7166 12.0135C32.247 12.1023 32.7708 12.2322 33.284 12.4024C33.6289 12.511 33.942 12.7138 34.1932 12.9913C34.4215 13.2757 34.5388 13.6449 34.5201 14.0209C34.5277 14.3977 34.423 14.7671 34.2216 15.0746C34.0018 15.3877 33.7025 15.6248 33.3602 15.7572C32.9135 15.9312 32.4405 16.0133 31.9659 15.9993C31.445 16.0119 30.9276 15.9052 30.4476 15.6863C30.0567 15.5092 29.7206 15.2153 29.4788 14.839C29.2568 14.4813 29.1341 14.0625 29.125 13.632L27.3126 13.6207C27.3111 14.3211 27.4944 15.0074 27.8411 15.5991C28.2272 16.2444 28.7742 16.7585 29.4191 17.0821C30.2131 17.4803 31.0819 17.6736 31.9569 17.6469C32.7566 17.6643 33.5524 17.521 34.3037 17.2241C34.9265 16.978 35.4693 16.5405 35.8652 15.9654C36.2498 15.3669 36.4466 14.6508 36.4265 13.9225C36.4265 13.1468 36.2593 12.5228 35.9249 12.0505C35.5964 11.5803 35.1557 11.2155 34.65 10.9952Z" fill="#1D1E1E"/>
<path d="M42.6554 2.06226L40.7818 2.07355V5.64145H38.3096V7.41652H40.7758V13.1984C40.7758 14.3667 40.9411 15.2811 41.2715 15.9417C41.6019 16.6023 42.0209 17.0514 42.5284 17.2891C43.0803 17.5384 43.6741 17.661 44.2721 17.649H46.3203V15.9304H44.6483C44.3029 15.939 43.9596 15.8691 43.6406 15.7255C43.3256 15.5584 43.075 15.2767 42.933 14.9299C42.7479 14.5372 42.6554 13.9918 42.6554 13.2936V7.41814H46.3262V5.64307H42.6554V2.06226Z" fill="#1D1E1E"/>
<path d="M52.0397 7.4104C52.6024 7.05194 53.2437 6.86304 53.8968 6.86335C54.6229 6.85105 55.3371 7.06325 55.9554 7.47495C56.5618 7.88949 57.0278 8.50477 57.2841 9.22906H59.2114C59.0017 8.41399 58.6299 7.65823 58.122 7.01462C57.614 6.37103 56.9821 5.85514 56.2704 5.50301C55.5213 5.13261 54.7057 4.9458 53.8819 4.95596C52.8684 4.94403 51.8723 5.2398 51.0067 5.80961C50.1488 6.37167 49.4425 7.1674 48.9585 8.11723C48.4658 9.09414 48.2076 10.1891 48.2076 11.3019C48.2076 12.4146 48.4658 13.5095 48.9585 14.4864C49.4421 15.4366 50.1485 16.2325 51.0067 16.7941C51.8723 17.3639 52.8684 17.6596 53.8819 17.6477C54.7055 17.6564 55.5209 17.4697 56.2704 17.1007C56.987 16.7464 57.6199 16.2212 58.1216 15.5644C58.6303 14.8972 58.9967 14.117 59.1949 13.2794H57.2841C57.1125 13.7914 56.8411 14.2575 56.4884 14.6462C56.155 15.0096 55.7541 15.2923 55.3121 15.4757C54.8602 15.6619 54.3804 15.756 53.8968 15.7533C53.2436 15.753 52.6023 15.5635 52.0397 15.2046C51.447 14.8313 50.9577 14.293 50.623 13.6457C50.2694 12.925 50.0845 12.1217 50.0845 11.3059C50.0845 10.4901 50.2694 9.6867 50.623 8.966C50.9585 8.32022 51.4476 7.78312 52.0397 7.4104Z" fill="#1D1E1E"/>
<path d="M69.8138 5.81107C68.9194 5.25194 67.9052 4.95752 66.8728 4.95752C65.8398 4.95752 64.8256 5.25194 63.9318 5.81107C63.0626 6.36607 62.3451 7.16006 61.8521 8.11219C61.3541 9.09053 61.093 10.1891 61.093 11.3057C61.093 12.4224 61.3541 13.5209 61.8521 14.4992C62.3452 15.4522 63.0633 16.2468 63.933 16.802C64.8199 17.3691 65.8335 17.6621 66.8634 17.6492C67.9002 17.6619 68.9206 17.369 69.815 16.802C70.69 16.251 71.4119 15.4555 71.9049 14.4992C72.4029 13.5209 72.6638 12.4224 72.6638 11.3057C72.6638 10.1891 72.4029 9.09053 71.9049 8.11219C71.4069 7.16009 70.6856 6.36647 69.8138 5.81107ZM70.276 13.5762C70.0239 14.0665 69.684 14.4974 69.2756 14.8437C68.8673 15.1899 68.3988 15.4446 67.8983 15.5926C67.3978 15.7406 66.8747 15.7791 66.3604 15.7059C65.846 15.6326 65.3499 15.4489 64.9021 15.1657C64.3056 14.7841 63.8158 14.2348 63.4853 13.5762C63.1461 12.877 62.9688 12.0993 62.9688 11.3098C62.9688 10.5203 63.1461 9.74255 63.4853 9.04334C63.8164 8.38359 64.3056 7.83232 64.9021 7.44737C65.503 7.0659 66.1872 6.86479 66.8847 6.86479C67.5815 6.86479 68.2658 7.0659 68.8673 7.44737C69.4619 7.83171 69.9486 8.38332 70.276 9.04334C70.6129 9.74343 70.7885 10.5208 70.7885 11.3098C70.7885 12.0987 70.6129 12.8761 70.276 13.5762Z" fill="#1D1E1E"/>
<path d="M82.9103 5.95574C82.2385 5.51466 81.4125 5.29466 80.4322 5.29574C79.8369 5.29208 79.2461 5.40751 78.6898 5.63623C78.1629 5.85237 77.6787 6.17432 77.2628 6.58509C76.8696 6.96816 76.5547 7.43522 76.3371 7.95672V5.63623H74.5458V17.647H76.4192V11.3358C76.4048 10.5744 76.5735 9.82207 76.9091 9.15249C77.212 8.54895 77.6624 8.04669 78.2106 7.70017C78.7412 7.36585 79.3452 7.19143 79.9586 7.19506C80.954 7.19506 81.7204 7.52051 82.258 8.17137C82.7955 8.82224 83.0639 9.82322 83.0639 11.1745V17.6502H84.9362V11.1422C84.9362 9.862 84.7674 8.78617 84.43 7.91476C84.1333 7.10093 83.6002 6.41338 82.9103 5.95574Z" fill="#1D1E1E"/>
</g>
<defs>
<clipPath id="clip0_32_1921">
<rect width="84.6737" height="16.9497" fill="white" transform="translate(0.850681 0.733398)"/>
</clipPath>
</defs>
</svg>
