<svg width="110" height="27" viewBox="0 0 110 27" fill="none" xmlns="http://www.w3.org/2000/svg">
<mask id="mask0_32_1343" style="mask-type:luminance" maskUnits="userSpaceOnUse" x="0" y="0" width="23" height="25">
<path d="M22.4323 0.928223H0.730988V24.3863H22.4323V0.928223Z" fill="white"/>
</mask>
<g mask="url(#mask0_32_1343)">
<path d="M3.87502 20.9468C5.88693 23.0238 8.6286 24.3422 11.6703 24.3864L10.8383 23.2963V19.1129C9.38558 18.8477 8.11024 18.045 7.19636 16.9328C6.26887 15.8059 5.70279 14.3403 5.70279 12.742C5.70279 11.3427 6.14609 10.039 6.88268 8.97108C7.59877 7.88103 8.74449 7.03403 9.94483 6.58478V2.35718C7.3737 2.72543 5.08216 4.05117 3.43172 5.98084C1.74717 7.93994 0.730988 10.5104 0.730988 13.3166C0.730988 14.3697 0.881028 15.4082 1.14701 16.3657C1.69943 18.1186 2.65424 19.68 3.87502 20.9468Z" fill="#003F77"/>
<path d="M19.2561 4.28673C17.3738 2.33497 14.7686 0.987144 11.911 0.928223H11.8359C11.6245 0.928223 11.4131 0.935588 11.2017 0.942953V23.171C14.2025 23.3109 17.1283 22.1399 19.2561 19.9377C21.1998 17.927 22.4138 15.1577 22.4138 12.1159C22.4138 9.0667 21.1998 6.29005 19.2561 4.28673ZM17.0396 14.3402C16.76 15.0546 16.3304 15.6954 15.7984 16.2183L15.5597 16.454V7.76309L15.7984 7.99876C16.3304 8.52907 16.76 9.17721 17.0396 9.87688C17.3261 10.5766 17.4829 11.3205 17.4829 12.1085C17.4829 12.9114 17.3261 13.6626 17.0396 14.3402Z" fill="#003F77"/>
<path d="M1.25784 8.56754L1.27148 8.60436L1.31241 8.58964C1.76935 7.54374 2.37633 6.5642 3.12653 5.68774C4.87928 3.64023 7.27993 2.30713 9.87156 1.93888L10.1375 1.90205L10.6695 0.98877C6.34561 1.46014 2.73097 4.47249 1.25784 8.56754Z" fill="#29292A"/>
<path d="M6.45461 14.6713L6.41366 14.6492L6.39322 14.686C6.6319 15.4004 6.99336 16.0706 7.47077 16.6525C8.33693 17.7057 9.52359 18.4275 10.8194 18.6853V17.8604C8.89617 17.6542 7.26621 16.4095 6.45461 14.6713Z" fill="#29292A"/>
<path d="M9.34644 15.8078C9.81702 15.5942 10.2944 15.4616 10.8196 15.4027V15.0492H10.8127C10.2672 15.1008 9.71474 15.2554 9.16916 15.4985C8.82131 14.8651 8.56896 14.1506 8.43257 13.4289C9.17594 13.2668 9.96025 13.1711 10.8196 13.1416V12.7807H10.8127C9.98753 12.8175 9.16916 12.9133 8.37801 13.0827C8.3439 12.7512 8.32345 12.464 8.32345 12.1915C8.32345 11.838 8.35073 11.5139 8.39845 11.2046C9.19644 11.374 10.008 11.4697 10.8127 11.4918H10.8196V11.1457C9.96709 11.1088 9.17594 11.0204 8.45301 10.8658C8.58263 10.1808 8.82814 9.51797 9.16916 8.88455C9.68063 9.1276 10.233 9.27492 10.8127 9.33384H10.8196V8.98767C10.3354 8.93613 9.83752 8.7962 9.34644 8.58258C9.74885 7.92711 10.2399 7.36731 10.8196 6.9033V6.63818H10.8127C10.7105 6.65292 10.6082 6.67501 10.5058 6.70448C9.93297 7.19795 9.43512 7.77978 9.03954 8.42793C8.80086 8.30271 8.56213 8.14806 8.33028 7.97131C8.23478 8.05233 8.14611 8.12596 8.05749 8.20697C8.3439 8.42793 8.60991 8.59729 8.86903 8.7299C8.5144 9.39275 8.26889 10.0851 8.12566 10.7922C7.6278 10.6743 7.10267 10.5196 6.57753 10.3208C6.5298 10.4239 6.48886 10.5343 6.44797 10.6448C6.97988 10.8511 7.51869 11.0131 8.0711 11.1383C8.02338 11.455 7.9961 11.8085 7.9961 12.1915C7.9961 12.4935 8.00971 12.8102 8.05066 13.149C7.51869 13.2816 6.98672 13.4362 6.46841 13.6277C6.49569 13.7456 6.52297 13.8634 6.55708 13.9739C7.00716 13.7971 7.51185 13.6424 8.10522 13.4952C8.25522 14.2832 8.50757 15.005 8.86903 15.6532C8.50757 15.8446 8.22117 16.0362 7.97565 16.2497C8.06427 16.3234 8.15294 16.397 8.24161 16.4633C8.46668 16.2939 8.71902 16.1319 9.03271 15.9551C9.326 16.4339 9.68063 16.8758 10.083 17.2882C10.274 17.3177 10.4649 17.3398 10.6627 17.3472C10.158 16.9126 9.71474 16.397 9.34644 15.8078Z" fill="#29292A"/>
</g>
<path fill-rule="evenodd" clip-rule="evenodd" d="M109.407 10.8363C109.028 10.8363 108.612 10.5629 108.359 10.1528L105.599 4.98212C106.021 4.47886 106.469 3.93744 106.967 3.3354L106.968 3.33491L107.295 2.93959C107.466 2.7358 107.637 2.52697 107.815 2.3091L107.957 2.13544C108.121 1.97462 108.299 1.85399 108.507 1.84595H108.909V1.45996H106.387V1.84595H106.625C107.05 1.84595 107.198 2.28019 106.916 2.65009L106.844 2.73699L106.841 2.73974C105.576 4.2718 104.607 5.44431 103.747 6.46978V2.66618C103.754 2.21586 104.089 1.84595 104.513 1.84595H104.736V1.45996H100.451V1.84595H100.749C101.173 1.84595 101.515 2.21586 101.522 2.67422V10.008C101.515 10.4664 101.173 10.8363 100.749 10.8363H100.458V11.2223H104.781V10.8363H104.513C104.089 10.8363 103.754 10.4745 103.747 10.0241V7.20961C103.888 7.04071 104.037 6.86384 104.185 6.6869L106.06 10.2251C106.187 10.5548 106.157 10.8363 105.814 10.8363V11.2223H109.75V10.8363H109.407ZM34.7699 1.468L34.9113 4.29055H34.145L33.8921 2.64205C33.8103 2.23194 33.535 1.84595 33.1259 1.84595H31.6306H31.4074C30.9833 1.84595 30.6486 2.21586 30.6411 2.66618V10.0241C30.6486 10.4744 30.9833 10.8363 31.4074 10.8363H31.6752V11.2223H27.3605V10.8363H27.6506C28.0672 10.8363 28.4168 10.4664 28.4168 10.008V2.67421C28.4168 2.21586 28.0672 1.84595 27.6506 1.84595H27.3456V1.468H34.7699ZM86.8744 1.84595H86.5989C86.1825 1.84595 85.8403 2.21586 85.8327 2.66618V10.0241C85.8403 10.4744 86.1825 10.8363 86.5989 10.8363H86.8669V11.2223H82.5522V10.8363H82.8422C83.2662 10.8363 83.6084 10.4664 83.6084 10.008V2.67421C83.6084 2.21586 83.2662 1.84595 82.8422 1.84595H81.1533C80.7293 1.84595 80.3946 2.21586 80.3871 2.66618V10.0241C80.3946 10.4744 80.7293 10.8363 81.1533 10.8363H81.4213V11.2223H77.0991V10.8363H77.3891C77.8131 10.8363 78.1553 10.4664 78.1628 10.008V2.67421C78.1553 2.21586 77.8131 1.84595 77.3891 1.84595H77.0916V1.468H86.8744V1.84595ZM98.1821 13.6669L98.0406 10.8363H97.4751C97.0511 10.8363 96.7089 10.4744 96.7089 10.0241V2.66618C96.7089 2.21586 97.0511 1.84595 97.4751 1.84595H97.6833V1.468H90.1473V1.84595H90.4524C90.8764 1.84595 91.2186 2.22389 91.2186 2.68226V8.73749C91.2186 9.89546 90.3486 10.8363 89.2773 10.8363H89.054L88.9201 13.6669H89.6787L89.9617 11.8173C90.058 11.4716 90.3486 11.2223 90.6978 11.2223H96.3963C96.746 11.2223 97.036 11.4716 97.1329 11.8173L97.4159 13.6669H98.1821ZM90.9808 10.579C91.4344 10.0884 91.6797 9.42902 91.6797 8.73749V2.66618C91.6872 2.21586 92.0294 1.84595 92.4464 1.84595H93.7109C94.1348 1.84595 94.477 2.21586 94.4846 2.67421V10.008C94.477 10.4664 94.1348 10.8363 93.7109 10.8363H90.6978C90.7946 10.7639 90.8915 10.6755 90.9808 10.579ZM62.4066 6.11596V6.13204C63.2475 6.22854 65.3454 6.65474 65.3454 8.56056C65.3454 9.46926 64.8988 10.0723 64.3333 10.4664C63.7162 10.8926 62.8085 11.2223 61.9008 11.2223H61.3504H56.686V10.8363H56.976C57.3925 10.8363 57.7422 10.4664 57.7422 10.008V2.67421C57.7422 2.21586 57.3925 1.84595 56.976 1.84595H56.6709V1.468H61.8857C61.8857 1.468 64.8988 1.53233 64.8988 3.72765C64.8988 4.56396 64.4899 5.11882 63.9691 5.48068C63.5521 5.77018 63.0016 6.00338 62.4066 6.11596ZM62.6148 3.93672C62.6148 1.82182 60.9635 1.84595 60.9635 1.84595H60.7327C60.3162 1.84595 59.974 2.21586 59.9665 2.66618V5.82646H60.688C60.688 5.82646 62.6148 5.93904 62.6148 3.93672ZM60.7327 10.8363H60.9113C61.3654 10.8202 62.8677 10.6272 62.8677 8.7857C62.8677 6.50195 61.0749 6.52607 61.0749 6.52607H59.9665V10.0241C59.974 10.4744 60.3162 10.8363 60.7327 10.8363ZM54.8706 10.8363C54.4615 10.8363 53.9705 10.4825 53.8515 10.0563L51.8801 1.468H49.5963L47.2975 10.0723C47.1636 10.5146 46.9553 10.8363 46.5536 10.8363H46.1147V11.2223H48.6366V10.8363H48.3018C47.8852 10.8363 47.6993 10.4985 47.7885 10.0402L48.3167 8.1022H51.1659L51.6197 10.008C51.7165 10.4825 51.5305 10.8363 51.1064 10.8363H50.7568V11.2223H55.0788V10.8363H54.8706ZM48.4209 7.71618L49.8492 2.30431L51.0767 7.71618H48.4209ZM44.7905 1.84595H44.5152C44.0986 1.84595 43.7564 2.21586 43.749 2.66618V10.0241C43.7564 10.4745 44.0986 10.8363 44.5152 10.8363H44.7831V11.2223H40.4609V10.8363H40.7584C41.175 10.8363 41.5172 10.4664 41.5247 10.008V2.67421C41.5172 2.21586 41.175 1.84595 40.7584 1.84595H39.4864C39.0772 1.84595 38.735 2.20781 38.7201 2.65009V8.94657C38.7201 9.62205 38.4746 10.2573 38.0357 10.7318C37.5968 11.2143 37.0016 11.4796 36.3768 11.4796C35.6551 11.4796 35.0451 10.9489 34.8517 10.2332C34.8145 10.0965 34.7847 9.95979 34.7847 9.807L34.7922 9.75873V9.7507C34.8145 9.02695 35.365 8.45605 36.0346 8.45605C36.7264 8.45605 37.2843 9.05911 37.2843 9.807C37.2843 10.2493 37.0835 10.6433 36.7859 10.8926L36.7933 10.9247C37.634 10.7156 38.2589 9.90349 38.2589 8.93046V2.68226C38.2589 2.22389 37.9167 1.84595 37.4926 1.84595H37.2471V1.468H44.7905V1.84595ZM73.1864 1.468H75.7007V1.85399H75.2767C74.8974 1.85399 74.6886 2.15956 74.5326 2.56164V2.56968L74.439 2.82607C73.556 5.24022 72.3024 8.66862 71.929 9.4371C71.6314 10.0563 71.3484 10.4905 71.0363 10.8202C70.6124 11.2625 70.1362 11.4877 69.6078 11.4877C68.8863 11.4877 68.2761 10.9569 68.083 10.2412C68.0459 10.1045 68.0233 9.95979 68.0233 9.81503V9.77484V9.76676C68.0529 9.04306 68.5963 8.46407 69.2732 8.46407C69.9576 8.46407 70.5155 9.0672 70.5155 9.81503C70.5155 10.2814 70.2997 10.6916 69.9651 10.9408C70.2325 10.8604 70.4784 10.7076 70.7162 10.4583C70.9841 10.1769 71.237 9.78287 71.5125 9.21999L68.1723 2.60988C67.9264 2.15956 67.4804 1.85399 67.0784 1.85399H66.9746V1.468H70.8131V1.85399H70.6866C70.3073 1.85399 70.3073 2.18369 70.4633 2.54555L72.5165 6.69494C72.8275 5.86726 73.1676 4.93944 73.4877 4.06569C73.6803 3.53876 73.8665 3.03149 74.0344 2.57772C74.1683 2.15152 73.9746 1.86203 73.5802 1.85399H73.1864V1.468Z" fill="#003F77"/>
<path d="M27.3456 18.0395H109.712V17.5093H27.3456V18.0395Z" fill="#003F77"/>
<path fill-rule="evenodd" clip-rule="evenodd" d="M81.9652 26.0324C81.5687 26.0324 81.2318 25.9377 80.9553 25.7482C80.6782 25.5587 80.4667 25.2954 80.3209 24.9582C80.1773 24.6211 80.1052 24.2311 80.1052 23.7882C80.1052 23.3454 80.1773 22.9553 80.3209 22.6182C80.4667 22.2811 80.6782 22.0178 80.9553 21.8282C81.2318 21.6387 81.5687 21.5439 81.9652 21.5439C82.3639 21.5439 82.7018 21.6387 82.9784 21.8282C83.2555 22.0178 83.4658 22.2811 83.61 22.6182C83.7537 22.9553 83.8258 23.3454 83.8258 23.7882C83.8258 24.2311 83.7537 24.6211 83.61 24.9582C83.4658 25.2954 83.2555 25.5587 82.9784 25.7482C82.7018 25.9377 82.3639 26.0324 81.9652 26.0324ZM81.9652 25.5238C82.2628 25.5257 82.5097 25.4539 82.7072 25.3083C82.9068 25.1607 83.0553 24.9562 83.1532 24.6949C83.2528 24.4335 83.3023 24.1313 83.3023 23.7882C83.3023 23.4431 83.2528 23.1409 83.1532 22.8815C83.0553 22.6222 82.9068 22.4197 82.7072 22.2741C82.5097 22.1285 82.2628 22.0547 81.9652 22.0527C81.6682 22.0507 81.4212 22.1225 81.2238 22.2681C81.0279 22.4137 80.8805 22.6172 80.7804 22.8786C80.6809 23.1399 80.6303 23.4431 80.6282 23.7882C80.6265 24.1313 80.6755 24.4326 80.775 24.6919C80.8746 24.9512 81.0231 25.1547 81.2206 25.3023C81.4202 25.448 81.6682 25.5218 81.9652 25.5238ZM87.6121 25.7482C87.8891 25.9377 88.226 26.0324 88.6225 26.0324C89.0842 26.0324 89.4635 25.9058 89.7605 25.6524C90.0591 25.3971 90.2652 25.056 90.3776 24.6291L89.8767 24.4854C89.7955 24.8046 89.6507 25.058 89.442 25.2455C89.2332 25.431 88.9604 25.5238 88.6225 25.5238C88.3255 25.5238 88.0775 25.4509 87.8778 25.3053C87.6788 25.1577 87.5292 24.9542 87.4296 24.6949C87.3296 24.4335 87.2812 24.1313 87.2828 23.7882C87.2844 23.4431 87.3355 23.1409 87.435 22.8815C87.5346 22.6202 87.6831 22.4167 87.8805 22.2711C88.078 22.1255 88.3255 22.0527 88.6225 22.0527C88.9604 22.0527 89.2332 22.1454 89.442 22.331C89.6507 22.5164 89.7955 22.7698 89.8767 23.091L90.3776 22.9474C90.2652 22.5185 90.0591 22.1774 89.7605 21.924C89.4635 21.6706 89.0842 21.5439 88.6225 21.5439C88.226 21.5439 87.8891 21.6387 87.6121 21.8282C87.3355 22.0178 87.124 22.2811 86.9782 22.6182C86.8346 22.9553 86.7625 23.3454 86.7625 23.7882C86.7625 24.2311 86.8346 24.6211 86.9782 24.9582C87.124 25.2954 87.3355 25.5587 87.6121 25.7482ZM95.2255 26.0324C94.8289 26.0324 94.4921 25.9377 94.2155 25.7482C93.9384 25.5587 93.727 25.2954 93.5812 24.9582C93.4375 24.6211 93.3654 24.2311 93.3654 23.7882C93.3654 23.3454 93.4375 22.9553 93.5812 22.6182C93.727 22.2811 93.9384 22.0178 94.2155 21.8282C94.4921 21.6387 94.8289 21.5439 95.2255 21.5439C95.6871 21.5439 96.0664 21.6706 96.3634 21.924C96.6626 22.1774 96.8681 22.5185 96.9806 22.9474L96.4797 23.091C96.3984 22.7698 96.2537 22.5164 96.0449 22.331C95.8367 22.1454 95.5634 22.0527 95.2255 22.0527C94.9285 22.0527 94.6815 22.1255 94.484 22.2711C94.2866 22.4167 94.1375 22.6202 94.038 22.8815C93.9384 23.1409 93.8879 23.4431 93.8857 23.7882C93.8841 24.1313 93.9331 24.4335 94.0326 24.6949C94.1321 24.9542 94.2817 25.1577 94.4808 25.3053C94.6804 25.4509 94.9285 25.5238 95.2255 25.5238C95.5634 25.5238 95.8367 25.431 96.0449 25.2455C96.2537 25.058 96.3984 24.8046 96.4797 24.4854L96.9806 24.6291C96.8681 25.056 96.6626 25.3971 96.3634 25.6524C96.0664 25.9058 95.6871 26.0324 95.2255 26.0324ZM102.767 25.9427H103.266V21.6337H102.767L100.688 25.0001V21.6337H100.19V25.9427H100.688L102.767 22.5733V25.9427ZM109.219 25.9427H109.717V21.6337H109.219L107.14 25.0001V21.6337H106.642V25.9427H107.14L109.219 22.5733V25.9427ZM74.3184 21.6337V25.9427H74.8113V24.3508H75.8933C75.9321 24.3508 75.9783 24.3488 76.0316 24.3448C76.0854 24.3408 76.1371 24.3348 76.1871 24.3268C76.4007 24.2909 76.5809 24.2111 76.7268 24.0874C76.8742 23.9618 76.985 23.8052 77.0587 23.6177C77.1346 23.4281 77.1723 23.2197 77.1723 22.9923C77.1723 22.7629 77.1357 22.5544 77.0614 22.3669C76.9877 22.1774 76.8769 22.0207 76.7294 21.8971C76.5836 21.7734 76.4028 21.6936 76.1871 21.6577C76.1371 21.6477 76.0854 21.6417 76.0316 21.6397C75.9783 21.6357 75.9321 21.6337 75.8933 21.6337H74.3184ZM75.8766 23.8451H74.8113V22.1395H75.8766C75.9121 22.1395 75.9514 22.1414 75.9961 22.1454C76.0418 22.1474 76.0854 22.1544 76.1258 22.1664C76.2533 22.1963 76.3566 22.2541 76.4362 22.3399C76.5175 22.4257 76.5761 22.5265 76.6132 22.6421C76.6504 22.7559 76.6686 22.8726 76.6686 22.9923C76.6686 23.112 76.6504 23.2297 76.6132 23.3454C76.5761 23.4591 76.5175 23.5588 76.4362 23.6446C76.3566 23.7284 76.2533 23.7862 76.1258 23.8181C76.0854 23.8281 76.0418 23.8351 75.9961 23.8391C75.9514 23.8431 75.9121 23.8451 75.8766 23.8451ZM63.5478 26.6609V25.437C63.6936 25.437 63.8119 25.3971 63.9023 25.3173C63.9943 25.2375 64.0664 25.1298 64.1181 24.9942C64.1697 24.8565 64.2085 24.7019 64.2343 24.5303C64.2623 24.3587 64.2843 24.1812 64.301 23.9977C64.3247 23.7383 64.3441 23.487 64.3591 23.2436C64.3758 23.0002 64.3903 22.7479 64.4033 22.4866C64.4162 22.2252 64.4307 21.94 64.4474 21.6308L66.9531 21.6337V25.437H67.2436V26.6609H66.7508V25.9427H64.0406V26.6609H63.5478ZM64.4113 25.437H66.4602V22.1395L64.9042 22.1365C64.8934 22.3678 64.8821 22.5903 64.8714 22.8038C64.8617 23.0152 64.8498 23.2287 64.8353 23.4441C64.8202 23.6595 64.8019 23.888 64.7799 24.1294C64.7594 24.3528 64.7363 24.5463 64.7105 24.7099C64.6868 24.8714 64.6513 25.0111 64.6056 25.1288C64.5593 25.2445 64.4947 25.3472 64.4113 25.437ZM59.8675 25.9427H60.3657V21.6337H59.8675L57.7885 25.0001V21.6337H57.2902V25.9427H57.7885L59.8675 22.5733V25.9427ZM50.0057 25.9427V21.6337H50.4541L51.9601 25.0659L53.4577 21.6337H53.9117V25.9397H53.4438V22.8038L52.0902 25.9427H51.8272L50.4735 22.8038V25.9427H50.0057ZM42.4207 25.9427H42.919V21.6337H42.4207L40.3418 25.0001V21.6337H39.8435V25.9427H40.3418L42.4207 22.5733V25.9427ZM33.8352 25.9427V21.6337H35.4103C35.449 21.6337 35.4952 21.6357 35.5487 21.6397C35.6022 21.6417 35.6539 21.6477 35.7037 21.6577C35.9196 21.6936 36.1005 21.7734 36.2463 21.8971C36.3939 22.0207 36.5046 22.1774 36.5785 22.3669C36.6523 22.5544 36.6892 22.7629 36.6892 22.9923C36.6892 23.2197 36.6514 23.4281 36.5757 23.6177C36.5019 23.8052 36.3912 23.9618 36.2435 24.0874C36.0977 24.2111 35.9178 24.2909 35.7037 24.3268C35.6539 24.3348 35.6022 24.3408 35.5487 24.3448C35.4952 24.3488 35.449 24.3508 35.4103 24.3508H34.3279V25.9427H33.8352ZM34.3279 23.8451H35.3937C35.4288 23.8451 35.4684 23.8431 35.5127 23.8391C35.5589 23.8351 35.6022 23.8281 35.6428 23.8181C35.7702 23.7862 35.8735 23.7284 35.9529 23.6446C36.0341 23.5588 36.0931 23.4591 36.13 23.3454C36.1669 23.2297 36.1854 23.112 36.1854 22.9923C36.1854 22.8726 36.1669 22.7559 36.13 22.6421C36.0931 22.5265 36.0341 22.4257 35.9529 22.3399C35.8735 22.2541 35.7702 22.1963 35.6428 22.1664C35.6022 22.1544 35.5589 22.1474 35.5127 22.1454C35.4684 22.1414 35.4288 22.1395 35.3937 22.1395H34.3279V23.8451ZM27.3456 21.6337V25.9427H27.8383V22.1395H29.9643V25.9427H30.4571V21.6337H27.3456Z" fill="#29292A"/>
</svg>
