<svg width="79" height="33" viewBox="0 0 79 33" fill="none" xmlns="http://www.w3.org/2000/svg">
<path d="M12.675 2.14612C12.675 3.27265 11.8289 4.1836 10.7901 4.1836C9.75137 4.1836 8.90179 3.27265 8.90179 2.14612C8.90179 1.01959 9.74794 0.108643 10.7901 0.108643C11.8323 0.108643 12.675 1.02329 12.675 2.14612Z" fill="#00A5B5"/>
<path d="M32.029 4.18494C32.029 5.31147 31.1829 6.22612 30.1441 6.22612C29.1054 6.22612 28.2558 5.31147 28.2558 4.18494C28.2558 3.0584 29.1019 2.14746 30.1441 2.14746C31.1863 2.14746 32.029 3.0584 32.029 4.18494Z" fill="#00A5B5"/>
<path d="M70.7381 4.1615C70.7381 5.28804 69.8921 6.19898 68.8537 6.19898C67.8146 6.19898 66.9653 5.28804 66.9653 4.1615C66.9653 3.03497 67.8113 2.12402 68.8537 2.12402C69.8954 2.12402 70.7381 3.03497 70.7381 4.1615Z" fill="#00A5B5"/>
<path d="M51.3836 2.14612C51.3836 3.27265 50.5374 4.1836 49.4987 4.1836C48.4599 4.1836 47.6104 3.27265 47.6104 2.14612C47.6104 1.01959 48.4565 0.108643 49.4987 0.108643C50.5409 0.108643 51.3836 1.02329 51.3836 2.14612Z" fill="#00A5B5"/>
<path d="M6.70429 20.4705C4.644 20.4705 2.96894 18.6598 2.96894 16.4327C2.96894 14.2057 4.644 12.395 6.70429 12.395C7.5986 12.395 8.42064 12.737 9.06727 13.3059L10.1576 11.354C9.19108 10.5843 7.99756 10.1233 6.70429 10.1233C3.48143 10.1233 0.867371 12.949 0.867371 16.4327C0.867371 19.9165 3.48143 22.7422 6.70429 22.7422C8.12137 22.7422 9.42156 22.1957 10.4328 21.2847L9.32523 19.303C8.65105 20.0244 7.72584 20.4668 6.70429 20.4668" fill="#54565A"/>
<path d="M18.7638 10.1233C15.5409 10.1233 12.9268 12.949 12.9268 16.4327C12.9268 19.9165 15.5409 22.7422 18.7638 22.7422C21.9867 22.7422 24.6007 19.9202 24.6007 16.4327C24.6007 12.9453 21.9867 10.1233 18.7638 10.1233ZM18.7638 12.3281C20.8585 12.3281 22.561 14.1685 22.561 16.4327C22.561 18.697 20.855 20.5374 18.7638 20.5374C16.6725 20.5374 14.9665 18.697 14.9665 16.4327C14.9665 14.1685 16.6725 12.3281 18.7638 12.3281Z" fill="#54565A"/>
<path d="M62.0535 10.1233C58.8306 10.1233 56.2166 12.949 56.2166 16.4327C56.2166 19.9165 58.8306 22.7422 62.0535 22.7422C65.2763 22.7422 67.8903 19.9202 67.8903 16.4327C67.8903 12.9453 65.2763 10.1233 62.0535 10.1233ZM62.0535 12.3281C64.1482 12.3281 65.8507 14.1685 65.8507 16.4327C65.8507 18.697 64.1447 20.5374 62.0535 20.5374C59.9622 20.5374 58.2562 18.697 58.2562 16.4327C58.2562 14.1685 59.9622 12.3281 62.0535 12.3281Z" fill="#54565A"/>
<path d="M28.2528 13.4956C28.2528 11.6589 29.5771 10.1233 31.7784 10.1233C33.168 10.1233 34.3305 10.629 35.0115 11.432L33.9453 13.0382C33.395 12.4619 32.8446 12.131 31.94 12.131C30.9528 12.131 30.3544 12.6739 30.3544 13.477C30.3544 16.0126 35.4793 15.2058 35.4793 19.277C35.4793 21.3405 33.8145 22.7385 31.6958 22.7385C30.2408 22.7385 28.5418 22.0581 27.9949 20.8163L29.1265 19.3477C29.7903 20.2734 30.8566 20.727 31.7268 20.727C32.6658 20.727 33.3778 20.2177 33.3778 19.2919C33.3778 16.8789 28.2528 17.4738 28.2528 13.4918" fill="#54565A"/>
<path d="M71.5404 13.4956C71.5404 11.6589 72.8641 10.1233 75.0655 10.1233C76.4551 10.1233 77.618 10.629 78.2986 11.432L77.2326 13.0382C76.6824 12.4619 76.1322 12.131 75.2276 12.131C74.2405 12.131 73.6416 12.6739 73.6416 13.477C73.6416 16.0126 78.7665 15.2058 78.7665 19.277C78.7665 21.3405 77.1021 22.7385 74.9831 22.7385C73.5283 22.7385 71.8323 22.0581 71.2821 20.8163L72.4141 19.3477C73.0776 20.2734 74.1437 20.727 75.0174 20.727C75.953 20.727 76.6653 20.2177 76.6653 19.2919C76.6653 16.8789 71.5404 17.4738 71.5404 13.4918" fill="#54565A"/>
<path d="M48.8218 10.311L45.8226 18.8921L42.6788 10.311H40.8318L38.7612 22.5469H40.8352L42.1423 14.8246L44.9696 22.5469H46.7237L49.4375 14.7764L50.9269 22.5469H53.0044L50.6655 10.311H48.8218Z" fill="#54565A"/>
<path d="M4.47171 32.7159H3.82507V28.7451H4.47515L5.73059 30.6003L6.92754 28.7451H7.53636V32.7159H6.89657V29.8456L5.73747 31.6116H5.64459L4.47515 29.8642V32.7196L4.47171 32.7159Z" fill="#54565A"/>
<path d="M9.12222 30.7273C9.12222 30.1473 9.30105 29.664 9.65876 29.2699C10.0234 28.8758 10.4808 28.6787 11.0346 28.6787C11.5884 28.6787 12.0458 28.8683 12.4035 29.2476C12.7681 29.6305 12.9504 30.125 12.9504 30.7273C12.9504 31.3296 12.7681 31.813 12.4035 32.1959C12.0389 32.5826 11.5815 32.776 11.0346 32.776C10.4877 32.776 10.0234 32.5864 9.66568 32.2071C9.30447 31.8278 9.12565 31.3333 9.12565 30.7236L9.12222 30.7273ZM9.80325 30.7273C9.80325 31.1289 9.92021 31.4598 10.154 31.7275C10.388 31.9914 10.6803 32.1253 11.0312 32.1253C11.4095 32.1253 11.7088 31.9914 11.9289 31.7275C12.1525 31.4635 12.2659 31.1289 12.2659 30.7273C12.2659 30.3258 12.1455 29.9874 11.9082 29.7235C11.6709 29.4632 11.3785 29.3331 11.0312 29.3331C10.6837 29.3331 10.3845 29.4632 10.1506 29.7235C9.92021 29.9837 9.80325 30.3183 9.80325 30.7273Z" fill="#54565A"/>
<path d="M16.0123 31.6568C16.0123 31.5341 15.9709 31.4301 15.8884 31.3371C15.8059 31.2442 15.7026 31.1698 15.5823 31.1103C15.4585 31.0508 15.3243 30.9838 15.1799 30.9058C15.0354 30.8277 14.9012 30.7459 14.7774 30.6604C14.6536 30.5749 14.5539 30.4559 14.4713 30.3035C14.3887 30.151 14.3475 29.9725 14.3475 29.7718C14.3475 29.4632 14.4507 29.2067 14.657 28.9947C14.8703 28.7828 15.1489 28.6787 15.4928 28.6787C15.9572 28.6787 16.308 28.82 16.5419 29.1026L16.1945 29.6268C16.0088 29.4298 15.7921 29.3331 15.5444 29.3331C15.3862 29.3331 15.2624 29.374 15.1695 29.4521C15.0767 29.5301 15.032 29.6379 15.032 29.7681C15.032 29.835 15.0457 29.8982 15.0698 29.9577C15.0939 30.0172 15.1214 30.0655 15.1523 30.1027C15.1833 30.1399 15.2315 30.1808 15.3003 30.2291C15.369 30.2738 15.4241 30.3072 15.4619 30.3295C15.5032 30.3518 15.5686 30.3816 15.6648 30.4299C15.7611 30.4745 15.8265 30.508 15.8643 30.5266C16.0191 30.601 16.1533 30.6827 16.2702 30.7645C16.4009 30.8463 16.5041 30.9653 16.5832 31.1214C16.6623 31.2776 16.7001 31.4561 16.7001 31.6531C16.7001 31.9877 16.5832 32.2555 16.3493 32.4636C16.1154 32.6718 15.8231 32.776 15.4722 32.776C15.228 32.776 14.9838 32.7202 14.743 32.6124C14.5126 32.4971 14.3543 32.3446 14.2718 32.1513L14.6398 31.6754C14.7396 31.8167 14.8634 31.9246 15.0216 32.0026C15.1764 32.0807 15.3312 32.1216 15.486 32.1216C15.6408 32.1216 15.7749 32.0807 15.8747 31.9951C15.9744 31.9134 16.0225 31.7981 16.0225 31.6531L16.0123 31.6568Z" fill="#54565A"/>
<path d="M20.8304 31.8055L21.0781 32.326C20.9611 32.4599 20.796 32.5678 20.5828 32.6495C20.3661 32.7313 20.1391 32.776 19.9018 32.776C19.3411 32.776 18.8836 32.5901 18.5328 32.2145C18.182 31.839 18.0065 31.3445 18.0065 30.7273C18.0065 30.1102 18.1716 29.6491 18.5053 29.2588C18.8355 28.8721 19.2929 28.6787 19.888 28.6787C20.3557 28.6787 20.7307 28.8125 21.0059 29.0803L20.7169 29.5971C20.4693 29.4186 20.1907 29.3293 19.888 29.3293C19.5371 29.3293 19.2516 29.4558 19.0281 29.7086C18.8045 29.9614 18.6911 30.2997 18.6911 30.7236C18.6911 31.1474 18.8079 31.4783 19.0418 31.7349C19.2792 31.9914 19.5853 32.1216 19.9602 32.1216C20.2835 32.1216 20.5725 32.0175 20.8304 31.8055Z" fill="#54565A"/>
<path d="M22.1337 30.7273C22.1337 30.1473 22.3126 29.664 22.6703 29.2699C23.0349 28.8758 23.4924 28.6787 24.0461 28.6787C24.5999 28.6787 25.0539 28.8683 25.4151 29.2476C25.7796 29.6305 25.962 30.125 25.962 30.7273C25.962 31.3296 25.7796 31.813 25.4151 32.1959C25.0504 32.5789 24.593 32.776 24.0461 32.776C23.4992 32.776 23.0349 32.5864 22.6772 32.2071C22.316 31.8278 22.1372 31.3333 22.1372 30.7236L22.1337 30.7273ZM22.8148 30.7273C22.8148 31.1289 22.9317 31.4598 23.1656 31.7275C23.3995 31.9914 23.6918 32.1253 24.0427 32.1253C24.421 32.1253 24.7203 31.9914 24.9404 31.7275C25.164 31.4635 25.2775 31.1289 25.2775 30.7273C25.2775 30.3258 25.1571 29.9874 24.9198 29.7235C24.6825 29.4632 24.39 29.3331 24.0427 29.3331C23.6953 29.3331 23.396 29.4632 23.1621 29.7235C22.9317 29.9837 22.8148 30.3183 22.8148 30.7273Z" fill="#54565A"/>
<path d="M31.4689 28.7451H32.0881L31.039 32.7159H30.4337L29.5462 29.8456L28.676 32.7159H28.0673L26.97 28.7451H27.6958L28.4353 31.5782L29.2539 28.7451H29.8937L30.7329 31.5819L31.4689 28.7451Z" fill="#54565A"/>
<path d="M37.6641 28.7451H38.3108L36.842 32.7308H36.3537L34.8403 28.7451H35.5282L36.6185 31.6898L37.6641 28.7451Z" fill="#54565A"/>
<path d="M39.7204 32.715H39.6482V28.7442H39.717C39.8718 28.7442 40.0334 28.7442 40.2054 28.7368C40.5494 28.7294 40.7248 28.7256 40.7317 28.7256C41.4471 28.7256 41.9734 28.9227 42.3173 29.3167C42.6372 29.6848 42.7954 30.1421 42.7954 30.6887C42.7954 31.2799 42.6131 31.767 42.2451 32.1536C41.8805 32.5365 41.3645 32.7262 40.6904 32.7262C40.5494 32.7262 40.4014 32.7262 40.2501 32.7187C40.0988 32.715 39.9233 32.7113 39.7239 32.7113L39.7204 32.715ZM40.7179 29.38C40.5803 29.38 40.4393 29.3837 40.2914 29.3949V32.0607C40.453 32.0681 40.5906 32.0718 40.7076 32.0718C41.1444 32.0718 41.4883 31.9454 41.736 31.6963C41.9836 31.4472 42.1075 31.1088 42.1075 30.685C42.1075 30.2612 41.9836 29.96 41.736 29.7258C41.4883 29.4915 41.1478 29.3725 40.7145 29.3725L40.7179 29.38Z" fill="#54565A"/>
<path d="M47.5179 28.7451V32.7159H47.0019L44.9795 29.9646V32.7159H44.3741V28.7451H44.89L46.9125 31.5076V28.7451H47.5179Z" fill="#54565A"/>
<path d="M52.3404 32.7159H51.7007V31.0205H50.0222V32.7159H49.3755V28.7451H50.0222V30.3699H51.7007V28.7451H52.3404V32.7159Z" fill="#54565A"/>
<path d="M59.068 32.7159H58.4283V31.0205H56.7498V32.7159H56.1031V28.7451H56.7498V30.3699H58.4283V28.7451H59.068V32.7159Z" fill="#54565A"/>
<path d="M60.6536 30.7273C60.6536 30.1473 60.8324 29.664 61.1901 29.2699C61.5547 28.8758 62.0122 28.6787 62.5659 28.6787C63.1197 28.6787 63.5771 28.8683 63.9348 29.2476C64.2995 29.6305 64.4818 30.125 64.4818 30.7273C64.4818 31.3296 64.2995 31.813 63.9348 32.1959C63.5703 32.5826 63.1128 32.776 62.5659 32.776C62.019 32.776 61.5547 32.5864 61.197 32.2071C60.8358 31.8278 60.657 31.3333 60.657 30.7236L60.6536 30.7273ZM61.3346 30.7273C61.3346 31.1289 61.4515 31.4598 61.6854 31.7275C61.9193 31.9914 62.2116 32.1253 62.5625 32.1253C62.9408 32.1253 63.2401 31.9914 63.4602 31.7275C63.6838 31.4635 63.7973 31.1289 63.7973 30.7273C63.7973 30.3258 63.6769 29.9874 63.4396 29.7235C63.2022 29.4632 62.9099 29.3331 62.5625 29.3331C62.2151 29.3331 61.9159 29.4632 61.682 29.7235C61.4515 29.9837 61.3346 30.3183 61.3346 30.7273Z" fill="#54565A"/>
<path d="M66.6313 29.3957H65.4415V28.7451H68.4716V29.3957H67.2816V32.7159H66.6352V29.3957H66.6313Z" fill="#54565A"/>
<path d="M72.0492 32.7159H69.8722V28.7451H71.9978V29.3957H70.5186V30.3847H71.8429V31.0391H70.5186V32.0652H72.0531V32.7159H72.0492Z" fill="#54565A"/>
<path d="M76.0285 32.7159H73.7277V28.7451H74.374V32.0652H76.0285V32.7159Z" fill="#54565A"/>
</svg>
