<svg width="111" height="34" viewBox="0 0 111 34" fill="none" xmlns="http://www.w3.org/2000/svg">
<g clip-path="url(#clip0_32_1892)">
<path d="M11.1835 6.71773C11.1177 7.57209 12.1715 8.42645 12.0398 9.20961C12.402 8.42645 11.3811 7.57209 11.4799 6.75333C11.5458 6.18375 11.941 5.97016 11.7104 5.32939C11.5128 4.90221 11.5458 4.36824 11.7434 3.94105C11.941 3.33588 11.6116 2.69511 11.6116 2.12554C11.6116 1.55596 11.8422 1.02199 12.2044 1.19998C12.8301 1.48477 14.3121 5.0802 14.9049 6.75333C15.4977 8.42645 15.1683 9.31641 15.1683 9.28081C15.1683 9.24521 15.827 8.49765 15.1683 6.64653C14.7732 5.61418 13.4229 1.62716 12.435 0.808398C11.9739 0.416816 11.1177 0.630406 11.1835 2.19673C11.2165 2.73071 11.5458 3.37148 11.3811 3.83426C11.1506 4.33264 11.1506 4.93781 11.3811 5.43619C11.4799 5.89896 11.2165 6.14815 11.1835 6.71773Z" fill="#0A3E89"/>
<path d="M16.5174 10.1359C16.3866 10.0298 16.2558 10.2066 16.3866 10.348C16.5174 10.4894 16.7137 10.2419 16.5174 10.1359Z" fill="#0A3E89"/>
<path d="M17.5721 11.023C17.5721 10.9162 17.5392 10.7738 17.4404 10.7026C17.177 10.4178 17.2099 10.2754 17.0123 9.81267C16.8147 9.27869 16.2548 9.0295 15.7609 9.24309C15.7279 9.27869 15.6621 9.27869 15.6291 9.31429C15.0693 9.63467 14.9046 9.99066 13.8837 9.99066C12.4347 9.99066 11.0515 8.70912 9.73423 7.28518C8.41693 5.86125 6.90204 3.72534 5.38715 1.98102C4.95903 1.48265 4.16865 0.52149 3.47707 0.73508C3.14774 0.877474 2.91722 1.23346 2.95015 1.62504C2.98308 2.4794 3.21361 3.33376 3.6088 4.08133C3.7076 4.25932 3.74053 4.50851 3.67466 4.7221C3.6088 5.29167 3.80639 5.86125 4.16865 6.25283C4.39918 6.50202 4.26745 6.57321 4.26745 6.858C4.26745 7.67676 5.32128 8.03275 5.65061 8.28194C5.97993 8.53112 5.88114 8.78031 5.97993 9.34989C6.07873 9.91946 6.96791 10.489 7.49482 10.7382C7.95588 10.9162 8.384 11.1654 8.77919 11.4502C9.14144 11.6638 9.43784 11.9842 9.63543 12.3757C9.7013 12.5537 9.99769 13.2657 8.02174 14.1913C7.29723 14.5473 5.12369 15.1168 4.56384 15.9C4.33331 16.2204 4.36624 16.6832 4.66264 16.9323C4.69557 16.9679 4.7285 16.9679 4.76143 17.0035C5.12369 17.2171 5.22249 17.2171 5.28835 17.3951C5.45301 17.7511 5.65061 18.0359 5.91407 18.2851C6.53978 18.7835 6.96791 18.4275 7.75828 18.3563C8.2852 18.3207 8.58159 19.2818 9.37197 18.6767C9.63543 18.4987 10.1953 18.0003 10.6563 17.8935C10.8869 17.8223 11.6443 17.8935 11.8748 17.2883C12.0724 16.8611 12.6323 17.1815 12.7969 16.7543C13.0275 16.1492 12.1712 15.2236 12.1712 15.2236C12.3359 15.4372 12.4347 15.6508 12.5335 15.9C12.6652 16.1136 12.6981 16.3984 12.6323 16.6476C12.5006 16.8611 11.9736 16.6476 11.6772 17.1103C11.4138 17.5019 11.1174 17.4663 10.5575 17.5375C10.0636 17.6443 9.83303 17.7511 9.17438 18.2851C8.51573 18.8191 8.384 17.8935 7.75828 17.8935C7.19843 17.8935 6.70445 18.2495 6.11166 17.8935C3.04895 16.0068 6.93497 15.0456 8.08761 14.4405C10.1953 13.3725 9.6025 12.4113 9.6025 12.3757C9.4049 11.9842 9.14144 11.6282 8.81212 11.379C8.05468 10.667 6.30926 10.1686 6.14459 9.24309C6.07873 8.78031 6.1446 8.28194 5.74941 8.03275C5.28835 7.71236 4.46504 7.35638 4.49797 6.7868C4.49797 6.57321 4.66264 6.32403 4.33331 6.00364C4.00399 5.68325 3.87226 5.22048 3.97106 4.7577C4.03692 4.47291 4.00399 4.15252 3.83933 3.90334C3.74053 3.40496 3.34534 2.62179 3.4112 1.69624C3.47707 0.557089 4.66264 1.80303 5.32128 2.5506C6.80324 4.29492 8.08761 6.07484 9.47077 7.53437C10.8539 8.9939 12.4018 10.2754 13.8837 10.2398C14.8717 10.2398 15.2998 9.74147 15.7279 9.49228C16.1231 9.20749 16.65 9.34989 16.8806 9.77707C16.9135 9.81266 16.9135 9.84826 16.9464 9.88386C17.1111 10.2042 17.177 10.5602 17.4075 10.7382C17.5392 10.8094 17.5392 10.9162 17.5721 11.023C17.2428 10.7026 16.7818 10.5958 16.3536 10.667C15.4315 10.8806 14.9376 12.091 14.3448 13.0521C13.1921 14.9744 11.1833 15.01 10.9198 15.0812C10.9198 15.1168 11.3808 15.2236 12.1712 15.0812C13.1921 14.8676 14.1142 14.2625 14.707 13.3369C15.3327 12.269 15.7609 11.1654 16.4195 10.9874C17.0782 10.8094 17.5392 11.0942 17.5721 11.023Z" fill="#0A3E89"/>
<path d="M8.48294 5.75686C9.37212 5.47207 10.3272 5.25848 11.2493 5.15168C11.2163 5.04489 11.1834 4.93809 11.1834 4.8313C10.7223 4.8669 10.2942 4.93809 9.8661 5.00929C9.30625 5.11609 8.77933 5.25848 8.21948 5.40087C8.28535 5.50767 8.38414 5.65006 8.48294 5.75686Z" fill="#0A3E89"/>
<path d="M20.9895 6.57455C18.9477 5.5066 16.7083 4.90143 14.436 4.75903L14.5348 5.07942H14.5677C16.4448 5.22181 18.2561 5.68459 20.0015 6.43216C22.8008 7.7137 25.3695 10.2056 25.4354 13.5518C25.3695 17.2185 22.3068 19.7459 19.2441 21.0275C15.1275 22.665 10.6158 22.5582 6.56511 20.7783C3.5024 19.39 0.703142 16.4709 1.19713 12.7687C1.49352 10.526 2.87668 8.88844 4.6221 7.6425C4.49037 7.53571 4.39157 7.39331 4.32571 7.21532C3.17307 7.99848 2.1851 9.06644 1.42766 10.3124C-0.0872356 12.9823 0.604345 16.0437 2.54736 18.2508C5.97233 22.131 11.966 22.9854 16.7412 22.131C20.8907 21.3835 25.9294 18.5356 25.9952 13.5874C25.9294 10.4192 23.5912 7.96289 20.9895 6.57455Z" fill="#0A3E89"/>
<path d="M44.8971 15.1535V7.92705L41.2087 15.1535H38.8046L35.1162 7.92705V15.1535H32.6462V5.32837H36.3347L40.0231 12.5904L43.8103 5.32837H47.367V15.1891H44.8971V15.1535Z" fill="#0A3E89"/>
<path d="M54.9175 15.2613H51.9865C49.1873 15.2613 48.5945 14.4425 48.5945 11.5235C48.5945 8.53321 49.1543 7.78564 51.9865 7.78564H54.9175C57.7826 7.78564 58.3095 8.42642 58.3095 11.5235C58.3095 14.5137 57.7168 15.2613 54.9175 15.2613ZM54.9504 9.60116H52.0195C50.9327 9.60116 50.801 9.92155 50.801 11.5235C50.801 13.0898 50.9327 13.4102 52.0195 13.4102H54.9504C55.9713 13.4102 56.0701 13.1254 56.0701 11.5235C56.1031 9.92155 56.0043 9.60116 54.9504 9.60116Z" fill="#0A3E89"/>
<path d="M66.1807 15.1189V10.6335C66.1807 9.92155 65.9831 9.60116 65.2585 9.60116H62.5581C61.5701 9.60116 61.4055 10.2419 61.4055 11.1319V15.1189H59.199V7.85684H61.4055V9.20958H61.5042C61.8336 8.07043 62.5252 7.78564 63.5461 7.78564H66.2465C67.7614 7.78564 68.4201 8.53321 68.4201 10.0995V15.1189H66.1807Z" fill="#0A3E89"/>
<path d="M88.8382 11.0255V10.6696C88.8382 10.1712 88.8712 9.56601 88.2784 9.56601H85.6767C85.051 9.56601 84.8864 10.1356 84.8864 10.7408V15.1194H82.7787V7.82169H84.8205V8.92523H84.9193C85.2157 8.07087 85.7755 7.75049 86.533 7.75049H89.1346C90.6166 7.75049 90.7483 9.10323 90.7483 10.456V11.0255H88.8382Z" fill="#0A3E89"/>
<path d="M99.8043 14.7634C99.3103 15.155 98.487 15.2617 97.4002 15.2617H94.6998C92.1969 15.2617 91.6041 14.4074 91.6041 11.5239C91.6041 9.03203 92.0323 7.75049 94.6998 7.75049H97.4002C99.2774 7.75049 100.529 7.96408 100.529 10.5984H98.4211C98.4211 10.2068 98.3882 9.95759 98.2565 9.81519C98.1247 9.6728 97.8284 9.6016 97.4002 9.6016H94.6998C93.9423 9.6016 93.7118 9.85079 93.7118 11.5239C93.7118 13.2326 93.8765 13.4106 94.6998 13.4106H97.4002C98.3882 13.4106 98.4211 13.1614 98.4211 12.2359H100.529C100.529 13.5886 100.298 14.3362 99.8043 14.7634Z" fill="#0A3E89"/>
<path d="M108.466 15.1551V10.6697C108.466 9.95777 108.235 9.60178 107.577 9.60178H104.646C103.691 9.60178 103.526 10.2426 103.526 11.1325V15.1551H101.385V4.68921H103.526V9.2102H103.592C103.888 8.03546 104.58 7.75067 105.568 7.75067H108.499C109.948 7.75067 110.607 8.53383 110.607 10.1002V15.1551H108.466Z" fill="#0A3E89"/>
<path d="M13.8473 16.9313C16.3502 19.352 23.1672 17.6077 21.3229 14.6174C21.4876 17.4297 16.2184 18.7112 13.8473 16.9313Z" fill="#F58220"/>
<path d="M16.8153 14.9734C16.98 14.9378 20.8989 13.8343 19.7463 16.0058C21.4917 14.9022 19.8122 13.5851 16.8153 14.9734Z" fill="#F58220"/>
<path d="M15.2015 18.141C18.0337 19.6361 22.1173 18.7461 21.9198 16.717C20.1414 19.2801 16.2224 18.5326 15.2015 18.141Z" fill="#F58220"/>
<path d="M17.5068 10.737C17.5398 10.7726 17.5727 10.8438 17.5727 10.915C18.1655 10.6302 18.8241 10.5234 19.4498 10.6302C18.8241 10.4166 18.1326 10.4522 17.5068 10.737Z" fill="#F58220"/>
<path d="M17.1436 10.8779C16.6829 11.1625 16.3538 11.6605 16.2222 12.1941C16.5513 11.6605 16.9791 11.2337 17.4727 10.9491C17.374 10.9491 17.2424 10.9491 17.1436 10.8779Z" fill="#F58220"/>
<path d="M79.408 15.1506L78.5847 13.4775H72.5251L71.6689 15.1506H68.8367L73.7436 5.32544H77.3332L82.2402 15.1862H79.408V15.1506ZM75.5549 7.39014L73.5131 11.4484H77.5638L75.5549 7.39014Z" fill="#F58220"/>
<path d="M34.8696 20.2507C34.8387 20.1559 34.7978 20.0709 34.7471 19.9958C34.6974 19.9198 34.6377 19.855 34.5683 19.8015C34.4997 19.7479 34.4218 19.7071 34.3345 19.6789C34.2472 19.6508 34.1514 19.6367 34.0472 19.6367C33.8763 19.6367 33.7209 19.6808 33.581 19.7691C33.4411 19.8573 33.3299 19.9874 33.2472 20.1592C33.1646 20.331 33.1233 20.5418 33.1233 20.7915C33.1233 21.0413 33.1651 21.252 33.2486 21.4239C33.3322 21.5957 33.4453 21.7257 33.5881 21.814C33.7308 21.9022 33.8913 21.9463 34.0697 21.9463C34.235 21.9463 34.3805 21.9111 34.5063 21.8407C34.633 21.7694 34.7316 21.6689 34.802 21.5393C34.8734 21.4088 34.9091 21.2553 34.9091 21.0788L35.0161 21.1013H34.1486V20.7915H35.2471V21.1013C35.2471 21.3389 35.1964 21.5454 35.095 21.721C34.9945 21.8966 34.8556 22.0327 34.6781 22.1294C34.5016 22.2252 34.2988 22.2731 34.0697 22.2731C33.8143 22.2731 33.5899 22.213 33.3965 22.0928C33.2041 21.9726 33.0538 21.8018 32.9459 21.5802C32.8388 21.3586 32.7853 21.0957 32.7853 20.7915C32.7853 20.5634 32.8158 20.3582 32.8768 20.1761C32.9388 19.993 33.0261 19.8371 33.1388 19.7085C33.2515 19.5799 33.3848 19.4813 33.5388 19.4128C33.6927 19.3442 33.8622 19.3099 34.0472 19.3099C34.1993 19.3099 34.341 19.3329 34.4725 19.379C34.6049 19.424 34.7227 19.4883 34.826 19.5719C34.9302 19.6545 35.017 19.7536 35.0865 19.8691C35.156 19.9836 35.2039 20.1108 35.2302 20.2507H34.8696ZM35.8453 22.2336V19.3494H36.8198C37.0452 19.3494 37.2301 19.3879 37.3747 19.4649C37.5193 19.5409 37.6263 19.6456 37.6958 19.7789C37.7653 19.9122 37.8 20.0639 37.8 20.2338C37.8 20.4037 37.7653 20.5544 37.6958 20.6859C37.6263 20.8173 37.5198 20.9206 37.3761 20.9957C37.2325 21.0699 37.0489 21.107 36.8255 21.107H36.0368V20.7915H36.8142C36.9682 20.7915 37.0921 20.769 37.186 20.7239C37.2808 20.6788 37.3494 20.615 37.3916 20.5324C37.4348 20.4488 37.4564 20.3493 37.4564 20.2338C37.4564 20.1183 37.4348 20.0174 37.3916 19.931C37.3484 19.8446 37.2794 19.778 37.1846 19.731C37.0898 19.6832 36.9644 19.6592 36.8086 19.6592H36.1945V22.2336H35.8453ZM37.2029 20.938L37.9127 22.2336H37.5071L36.8086 20.938H37.2029ZM40.8156 20.7915C40.8156 21.0957 40.7607 21.3586 40.6508 21.5802C40.541 21.8018 40.3903 21.9726 40.1988 22.0928C40.0072 22.213 39.7885 22.2731 39.5425 22.2731C39.2965 22.2731 39.0777 22.213 38.8862 22.0928C38.6947 21.9726 38.544 21.8018 38.4341 21.5802C38.3243 21.3586 38.2694 21.0957 38.2694 20.7915C38.2694 20.4873 38.3243 20.2244 38.4341 20.0028C38.544 19.7813 38.6947 19.6104 38.8862 19.4902C39.0777 19.37 39.2965 19.3099 39.5425 19.3099C39.7885 19.3099 40.0072 19.37 40.1988 19.4902C40.3903 19.6104 40.541 19.7813 40.6508 20.0028C40.7607 20.2244 40.8156 20.4873 40.8156 20.7915ZM40.4776 20.7915C40.4776 20.5418 40.4358 20.331 40.3523 20.1592C40.2697 19.9874 40.1575 19.8573 40.0157 19.7691C39.8749 19.6808 39.7171 19.6367 39.5425 19.6367C39.3679 19.6367 39.2097 19.6808 39.0679 19.7691C38.927 19.8573 38.8149 19.9874 38.7313 20.1592C38.6487 20.331 38.6074 20.5418 38.6074 20.7915C38.6074 21.0413 38.6487 21.252 38.7313 21.4239C38.8149 21.5957 38.927 21.7257 39.0679 21.814C39.2097 21.9022 39.3679 21.9463 39.5425 21.9463C39.7171 21.9463 39.8749 21.9022 40.0157 21.814C40.1575 21.7257 40.2697 21.5957 40.3523 21.4239C40.4358 21.252 40.4776 21.0413 40.4776 20.7915ZM43.2957 19.3494H43.645V21.2591C43.645 21.4562 43.5985 21.6323 43.5055 21.7872C43.4135 21.9412 43.2835 22.0628 43.1154 22.152C42.9474 22.2402 42.7502 22.2843 42.5239 22.2843C42.2977 22.2843 42.1005 22.2402 41.9324 22.152C41.7644 22.0628 41.6339 21.9412 41.5409 21.7872C41.4489 21.6323 41.4029 21.4562 41.4029 21.2591V19.3494H41.7522V21.2309C41.7522 21.3717 41.7831 21.4971 41.8451 21.6069C41.9071 21.7158 41.9953 21.8018 42.1099 21.8647C42.2254 21.9266 42.3634 21.9576 42.5239 21.9576C42.6845 21.9576 42.8225 21.9266 42.938 21.8647C43.0535 21.8018 43.1417 21.7158 43.2027 21.6069C43.2647 21.4971 43.2957 21.3717 43.2957 21.2309V19.3494ZM44.3424 22.2336V19.3494H45.317C45.5433 19.3494 45.7282 19.3902 45.8719 19.4719C46.0165 19.5526 46.1235 19.662 46.193 19.8C46.2625 19.9381 46.2972 20.092 46.2972 20.262C46.2972 20.4319 46.2625 20.5864 46.193 20.7253C46.1245 20.8643 46.0184 20.9751 45.8747 21.0577C45.7311 21.1394 45.547 21.1802 45.3226 21.1802H44.6241V20.8704H45.3114C45.4663 20.8704 45.5907 20.8436 45.6846 20.7901C45.7785 20.7366 45.8465 20.6643 45.8888 20.5732C45.932 20.4812 45.9536 20.3775 45.9536 20.262C45.9536 20.1465 45.932 20.0432 45.8888 19.9521C45.8465 19.8611 45.778 19.7897 45.6832 19.7381C45.5883 19.6855 45.4625 19.6592 45.3057 19.6592H44.6917V22.2336H44.3424ZM50.4088 20.7915C50.4088 21.0957 50.3539 21.3586 50.2441 21.5802C50.1342 21.8018 49.9835 21.9726 49.792 22.0928C49.6005 22.213 49.3817 22.2731 49.1357 22.2731C48.8897 22.2731 48.671 22.213 48.4794 22.0928C48.2879 21.9726 48.1372 21.8018 48.0273 21.5802C47.9175 21.3586 47.8626 21.0957 47.8626 20.7915C47.8626 20.4873 47.9175 20.2244 48.0273 20.0028C48.1372 19.7813 48.2879 19.6104 48.4794 19.4902C48.671 19.37 48.8897 19.3099 49.1357 19.3099C49.3817 19.3099 49.6005 19.37 49.792 19.4902C49.9835 19.6104 50.1342 19.7813 50.2441 20.0028C50.3539 20.2244 50.4088 20.4873 50.4088 20.7915ZM50.0708 20.7915C50.0708 20.5418 50.0291 20.331 49.9455 20.1592C49.8629 19.9874 49.7507 19.8573 49.6089 19.7691C49.4681 19.6808 49.3103 19.6367 49.1357 19.6367C48.9611 19.6367 48.8029 19.6808 48.6611 19.7691C48.5203 19.8573 48.4081 19.9874 48.3245 20.1592C48.2419 20.331 48.2006 20.5418 48.2006 20.7915C48.2006 21.0413 48.2419 21.252 48.3245 21.4239C48.4081 21.5957 48.5203 21.7257 48.6611 21.814C48.8029 21.9022 48.9611 21.9463 49.1357 21.9463C49.3103 21.9463 49.4681 21.9022 49.6089 21.814C49.7507 21.7257 49.8629 21.5957 49.9455 21.4239C50.0291 21.252 50.0708 21.0413 50.0708 20.7915ZM50.9961 22.2336V19.3494H52.7255V19.6592H51.3454V20.6338H52.596V20.9436H51.3454V22.2336H50.9961ZM56.7601 20.2507H56.4108C56.3901 20.1502 56.354 20.062 56.3024 19.9859C56.2517 19.9099 56.1897 19.846 56.1165 19.7944C56.0442 19.7418 55.9639 19.7024 55.8756 19.6761C55.7874 19.6498 55.6954 19.6367 55.5996 19.6367C55.425 19.6367 55.2668 19.6808 55.125 19.7691C54.9842 19.8573 54.872 19.9874 54.7884 20.1592C54.7058 20.331 54.6645 20.5418 54.6645 20.7915C54.6645 21.0413 54.7058 21.252 54.7884 21.4239C54.872 21.5957 54.9842 21.7257 55.125 21.814C55.2668 21.9022 55.425 21.9463 55.5996 21.9463C55.6954 21.9463 55.7874 21.9332 55.8756 21.9069C55.9639 21.8806 56.0442 21.8417 56.1165 21.79C56.1897 21.7374 56.2517 21.6731 56.3024 21.5971C56.354 21.5201 56.3901 21.4318 56.4108 21.3323H56.7601C56.7338 21.4797 56.6859 21.6116 56.6164 21.7281C56.5469 21.8445 56.4606 21.9435 56.3573 22.0252C56.254 22.106 56.1381 22.1675 56.0094 22.2097C55.8817 22.252 55.7451 22.2731 55.5996 22.2731C55.3536 22.2731 55.1349 22.213 54.9433 22.0928C54.7518 21.9726 54.6011 21.8018 54.4912 21.5802C54.3814 21.3586 54.3265 21.0957 54.3265 20.7915C54.3265 20.4873 54.3814 20.2244 54.4912 20.0028C54.6011 19.7813 54.7518 19.6104 54.9433 19.4902C55.1349 19.37 55.3536 19.3099 55.5996 19.3099C55.7451 19.3099 55.8817 19.3311 56.0094 19.3733C56.1381 19.4156 56.254 19.4775 56.3573 19.5592C56.4606 19.64 56.5469 19.7385 56.6164 19.855C56.6859 19.9705 56.7338 20.1024 56.7601 20.2507ZM59.7581 20.7915C59.7581 21.0957 59.7031 21.3586 59.5933 21.5802C59.4834 21.8018 59.3327 21.9726 59.1412 22.0928C58.9497 22.213 58.7309 22.2731 58.4849 22.2731C58.2389 22.2731 58.0202 22.213 57.8286 22.0928C57.6371 21.9726 57.4864 21.8018 57.3766 21.5802C57.2667 21.3586 57.2118 21.0957 57.2118 20.7915C57.2118 20.4873 57.2667 20.2244 57.3766 20.0028C57.4864 19.7813 57.6371 19.6104 57.8286 19.4902C58.0202 19.37 58.2389 19.3099 58.4849 19.3099C58.7309 19.3099 58.9497 19.37 59.1412 19.4902C59.3327 19.6104 59.4834 19.7813 59.5933 20.0028C59.7031 20.2244 59.7581 20.4873 59.7581 20.7915ZM59.4201 20.7915C59.4201 20.5418 59.3783 20.331 59.2947 20.1592C59.2121 19.9874 59.0999 19.8573 58.9581 19.7691C58.8173 19.6808 58.6596 19.6367 58.4849 19.6367C58.3103 19.6367 58.1521 19.6808 58.0103 19.7691C57.8695 19.8573 57.7573 19.9874 57.6737 20.1592C57.5911 20.331 57.5498 20.5418 57.5498 20.7915C57.5498 21.0413 57.5911 21.252 57.6737 21.4239C57.7573 21.5957 57.8695 21.7257 58.0103 21.814C58.1521 21.9022 58.3103 21.9463 58.4849 21.9463C58.6596 21.9463 58.8173 21.9022 58.9581 21.814C59.0999 21.7257 59.2121 21.5957 59.2947 21.4239C59.3783 21.252 59.4201 21.0413 59.4201 20.7915ZM60.3453 19.3494H60.7622L61.7424 21.7435H61.7762L62.7564 19.3494H63.1733V22.2336H62.8465V20.0423H62.8184L61.917 22.2336H61.6016L60.7002 20.0423H60.6721V22.2336H60.3453V19.3494ZM63.8736 22.2336V19.3494H64.8481C65.0744 19.3494 65.2594 19.3902 65.403 19.4719C65.5476 19.5526 65.6546 19.662 65.7241 19.8C65.7936 19.9381 65.8283 20.092 65.8283 20.262C65.8283 20.4319 65.7936 20.5864 65.7241 20.7253C65.6556 20.8643 65.5495 20.9751 65.4058 21.0577C65.2622 21.1394 65.0782 21.1802 64.8538 21.1802H64.1552V20.8704H64.8425C64.9974 20.8704 65.1218 20.8436 65.2157 20.7901C65.3096 20.7366 65.3777 20.6643 65.4199 20.5732C65.4631 20.4812 65.4847 20.3775 65.4847 20.262C65.4847 20.1465 65.4631 20.0432 65.4199 19.9521C65.3777 19.8611 65.3091 19.7897 65.2143 19.7381C65.1195 19.6855 64.9937 19.6592 64.8369 19.6592H64.2228V22.2336H63.8736ZM66.2149 22.2336H65.8487L66.9078 19.3494H67.2683L68.3274 22.2336H67.9612L67.0993 19.8057H67.0768L66.2149 22.2336ZM66.3501 21.107H67.826V21.4168H66.3501V21.107ZM71.0638 19.3494V22.2336H70.7258L69.1541 19.969H69.1259V22.2336H68.7767V19.3494H69.1147L70.692 21.6196H70.7202V19.3494H71.0638ZM72.112 19.3494V22.2336H71.7627V19.3494H72.112ZM72.8123 22.2336V19.3494H74.553V19.6592H73.1615V20.6338H74.4628V20.9436H73.1615V21.9238H74.5755V22.2336H72.8123ZM76.7598 20.0704C76.7429 19.9277 76.6744 19.8169 76.5542 19.7381C76.434 19.6592 76.2866 19.6198 76.112 19.6198C75.9843 19.6198 75.8726 19.6404 75.7768 19.6817C75.682 19.7231 75.6078 19.7799 75.5543 19.8522C75.5017 19.9244 75.4754 20.0066 75.4754 20.0986C75.4754 20.1756 75.4937 20.2418 75.5303 20.2972C75.5679 20.3516 75.6158 20.3972 75.674 20.4338C75.7322 20.4695 75.7932 20.499 75.8571 20.5225C75.9209 20.5451 75.9796 20.5634 76.0331 20.5774L76.326 20.6563C76.4012 20.676 76.4847 20.7033 76.5767 20.738C76.6697 20.7727 76.7584 20.8201 76.8429 20.8802C76.9283 20.9394 76.9988 21.0154 77.0542 21.1084C77.1095 21.2013 77.1372 21.3154 77.1372 21.4506C77.1372 21.6065 77.0964 21.7473 77.0147 21.8731C76.934 21.9989 76.8157 22.0989 76.6598 22.1731C76.5049 22.2473 76.3167 22.2843 76.0951 22.2843C75.8885 22.2843 75.7097 22.251 75.5585 22.1844C75.4083 22.1177 75.29 22.0247 75.2036 21.9055C75.1182 21.7863 75.0698 21.6478 75.0585 21.49H75.4191C75.4285 21.599 75.4651 21.6891 75.5289 21.7604C75.5937 21.8309 75.6754 21.8834 75.774 21.9182C75.8735 21.952 75.9805 21.9689 76.0951 21.9689C76.2284 21.9689 76.3481 21.9473 76.4542 21.9041C76.5603 21.86 76.6443 21.7989 76.7063 21.721C76.7683 21.6421 76.7992 21.5501 76.7992 21.445C76.7992 21.3492 76.7725 21.2713 76.719 21.2112C76.6655 21.1511 76.595 21.1023 76.5077 21.0647C76.4204 21.0272 76.326 20.9943 76.2246 20.9661L75.8697 20.8647C75.6444 20.8 75.466 20.7075 75.3346 20.5873C75.2031 20.4671 75.1374 20.3099 75.1374 20.1155C75.1374 19.954 75.1811 19.8132 75.2684 19.693C75.3566 19.5719 75.4749 19.478 75.6233 19.4113C75.7726 19.3437 75.9392 19.3099 76.1232 19.3099C76.3091 19.3099 76.4744 19.3433 76.619 19.4099C76.7636 19.4757 76.8781 19.5658 76.9626 19.6803C77.048 19.7949 77.0931 19.9249 77.0978 20.0704H76.7598Z" fill="black"/>
</g>
<defs>
<clipPath id="clip0_32_1892">
<path d="M0.612183 0.700684H95.9618C104.268 0.700684 111.002 7.43426 111.002 15.7405V33.4512H0.612183V0.700684Z" fill="white"/>
</clipPath>
</defs>
</svg>
