<svg width="119" height="19" viewBox="0 0 119 19" fill="none" xmlns="http://www.w3.org/2000/svg">
<g clip-path="url(#clip0_32_1382)">
<path d="M36.9419 13.3864L36.9321 8.99304L34.9339 12.6105H34.2356L32.2372 9.07692V13.3864H30.7628V6.04663H32.0626L34.6041 10.6078L37.1066 6.04663H38.4064L38.4163 13.3864H36.9419Z" fill="#3368BE"/>
<path d="M42.8586 13.5109C42.1537 13.5109 41.5166 13.3466 40.9477 13.0181C40.385 12.6895 39.9421 12.2386 39.6186 11.6654C39.3019 11.0853 39.1433 10.4351 39.1433 9.71515C39.1433 8.99516 39.3019 8.34855 39.6186 7.77535C39.9421 7.19516 40.385 6.74078 40.9477 6.41225C41.5166 6.0837 42.1537 5.91943 42.8586 5.91943C43.5633 5.91943 44.1971 6.0837 44.7597 6.41225C45.3224 6.74078 45.7653 7.19516 46.0886 7.77535C46.4121 8.34855 46.5737 8.99516 46.5737 9.71515C46.5737 10.4351 46.4121 11.0853 46.0886 11.6654C45.7653 12.2386 45.3224 12.6895 44.7597 13.0181C44.1971 13.3466 43.5633 13.5109 42.8586 13.5109ZM42.8586 12.0639C43.2595 12.0639 43.6217 11.966 43.945 11.7703C44.2682 11.5676 44.5204 11.288 44.7015 10.9315C44.8892 10.575 44.9828 10.1695 44.9828 9.71515C44.9828 9.26078 44.8892 8.85534 44.7015 8.49885C44.5204 8.14235 44.2682 7.86623 43.945 7.6705C43.6217 7.46777 43.2595 7.36642 42.8586 7.36642C42.4575 7.36642 42.0955 7.46777 41.772 7.6705C41.4488 7.86623 41.1933 8.14235 41.0059 8.49885C40.8248 8.85534 40.7342 9.26078 40.7342 9.71515C40.7342 10.1695 40.8248 10.575 41.0059 10.9315C41.1933 11.288 41.4488 11.5676 41.772 11.7703C42.0955 11.966 42.4575 12.0639 42.8586 12.0639Z" fill="#3368BE"/>
<path d="M50.8487 13.5109C50.1567 13.5109 49.5294 13.3501 48.9669 13.0285C48.4107 12.7 47.9709 12.2491 47.6476 11.6759C47.3307 11.0957 47.1724 10.4421 47.1724 9.71515C47.1724 8.98816 47.3307 8.33808 47.6476 7.76486C47.9709 7.18468 48.4107 6.73381 48.9669 6.41225C49.5294 6.0837 50.16 5.91943 50.8584 5.91943C51.4469 5.91943 51.9771 6.03128 52.4493 6.25496C52.9278 6.47866 53.3287 6.80022 53.652 7.21962L52.6433 8.22623C52.184 7.65303 51.6149 7.36642 50.936 7.36642C50.5156 7.36642 50.1405 7.46777 49.8107 7.6705C49.4809 7.86623 49.2224 8.14235 49.0347 8.49885C48.8536 8.85534 48.7631 9.26078 48.7631 9.71515C48.7631 10.1695 48.8536 10.575 49.0347 10.9315C49.2224 11.288 49.4809 11.5676 49.8107 11.7703C50.1405 11.966 50.5156 12.0639 50.936 12.0639C51.6149 12.0639 52.184 11.7738 52.6433 11.1936L53.652 12.2002C53.3287 12.6266 52.9278 12.9516 52.4493 13.1753C51.9707 13.399 51.4371 13.5109 50.8487 13.5109Z" fill="#3368BE"/>
<path d="M60.7204 6.04663V13.3864H59.1588V7.4307H56.0935V13.3864H54.5319V6.04663H60.7204Z" fill="#3368BE"/>
<path d="M64.7603 6.04663C65.3616 6.04663 65.8821 6.15498 66.322 6.37168C66.7681 6.58839 67.1109 6.89595 67.3501 7.29441C67.5894 7.69285 67.7091 8.16469 67.7091 8.70992C67.7091 9.24818 67.5894 9.72003 67.3501 10.1255C67.1109 10.5239 66.7681 10.8315 66.322 11.0482C65.8821 11.2579 65.3616 11.3627 64.7603 11.3627H63.3925V13.3864H61.821V6.04663H64.7603ZM64.6729 9.97867C65.1451 9.97867 65.504 9.87032 65.7496 9.65362C65.9954 9.42992 66.1183 9.11536 66.1183 8.70992C66.1183 8.29749 65.9954 7.98293 65.7496 7.76623C65.504 7.54255 65.1451 7.4307 64.6729 7.4307H63.3925V9.97867H64.6729Z" fill="#3368BE"/>
<path d="M71.9351 13.5109C71.2302 13.5109 70.5933 13.3466 70.0242 13.0181C69.4614 12.6895 69.0185 12.2386 68.6953 11.6654C68.3784 11.0853 68.2198 10.4351 68.2198 9.71515C68.2198 8.99516 68.3784 8.34855 68.6953 7.77535C69.0185 7.19516 69.4614 6.74078 70.0242 6.41225C70.5933 6.0837 71.2302 5.91943 71.9351 5.91943C72.64 5.91943 73.2736 6.0837 73.8364 6.41225C74.3989 6.74078 74.8418 7.19516 75.1653 7.77535C75.4885 8.34855 75.6502 8.99516 75.6502 9.71515C75.6502 10.4351 75.4885 11.0853 75.1653 11.6654C74.8418 12.2386 74.3989 12.6895 73.8364 13.0181C73.2736 13.3466 72.64 13.5109 71.9351 13.5109ZM71.9351 12.0639C72.336 12.0639 72.6982 11.966 73.0214 11.7703C73.3447 11.5676 73.5971 11.288 73.778 10.9315C73.9656 10.575 74.0595 10.1695 74.0595 9.71515C74.0595 9.26078 73.9656 8.85534 73.778 8.49885C73.5971 8.14235 73.3447 7.86623 73.0214 7.6705C72.6982 7.46777 72.336 7.36642 71.9351 7.36642C71.5342 7.36642 71.172 7.46777 70.8487 7.6705C70.5253 7.86623 70.2698 8.14235 70.0824 8.49885C69.9013 8.85534 69.8107 9.26078 69.8107 9.71515C69.8107 10.1695 69.9013 10.575 70.0824 10.9315C70.2698 11.288 70.5253 11.5676 70.8487 11.7703C71.172 11.966 71.5342 12.0639 71.9351 12.0639Z" fill="#3368BE"/>
<path d="M82.5059 13.3864L82.4963 8.99304L80.4981 12.6105H79.7996L77.8014 9.07692V13.3864H76.327V6.04663H77.6269L80.1683 10.6078L82.6708 6.04663H83.9707L83.9803 13.3864H82.5059Z" fill="#3368BE"/>
<path d="M88.15 13.5109C87.4582 13.5109 86.831 13.3501 86.2682 13.0285C85.7122 12.7 85.2724 12.2491 84.9491 11.6759C84.6322 11.0957 84.4739 10.4421 84.4739 9.71515C84.4739 8.98816 84.6322 8.33808 84.9491 7.76486C85.2724 7.18468 85.7122 6.73381 86.2682 6.41225C86.831 6.0837 87.4615 5.91943 88.1599 5.91943C88.7482 5.91943 89.2786 6.03128 89.7506 6.25496C90.2291 6.47866 90.63 6.80022 90.9535 7.21962L89.9446 8.22623C89.4855 7.65303 88.9164 7.36642 88.2375 7.36642C87.8171 7.36642 87.4421 7.46777 87.1122 7.6705C86.7824 7.86623 86.5237 8.14235 86.3362 8.49885C86.1551 8.85534 86.0646 9.26078 86.0646 9.71515C86.0646 10.1695 86.1551 10.575 86.3362 10.9315C86.5237 11.288 86.7824 11.5676 87.1122 11.7703C87.4421 11.966 87.8171 12.0639 88.2375 12.0639C88.9164 12.0639 89.4855 11.7738 89.9446 11.1936L90.9535 12.2002C90.63 12.6266 90.2291 12.9516 89.7506 13.1753C89.272 13.399 88.7386 13.5109 88.15 13.5109Z" fill="#3368BE"/>
<path d="M97.1188 7.4307H94.9459V13.3864H93.3939V7.4307H91.2308V6.04663H97.1188V7.4307Z" fill="#3368BE"/>
<path d="M100.899 6.04663C101.501 6.04663 102.021 6.15498 102.461 6.37168C102.907 6.58839 103.25 6.89595 103.489 7.29441C103.729 7.69285 103.848 8.16469 103.848 8.70992C103.848 9.24818 103.729 9.72003 103.489 10.1255C103.25 10.5239 102.907 10.8315 102.461 11.0482C102.021 11.2579 101.501 11.3627 100.899 11.3627H99.5316V13.3864H97.9604V6.04663H100.899ZM100.812 9.97867C101.284 9.97867 101.643 9.87032 101.889 9.65362C102.135 9.42992 102.257 9.11536 102.257 8.70992C102.257 8.29749 102.135 7.98293 101.889 7.76623C101.643 7.54255 101.284 7.4307 100.812 7.4307H99.5316V9.97867H100.812Z" fill="#3368BE"/>
<path d="M108.074 13.5109C107.369 13.5109 106.732 13.3466 106.163 13.0181C105.601 12.6895 105.158 12.2386 104.834 11.6654C104.517 11.0853 104.359 10.4351 104.359 9.71515C104.359 8.99516 104.517 8.34855 104.834 7.77535C105.158 7.19516 105.601 6.74078 106.163 6.41225C106.732 6.0837 107.369 5.91943 108.074 5.91943C108.779 5.91943 109.413 6.0837 109.975 6.41225C110.538 6.74078 110.981 7.19516 111.304 7.77535C111.628 8.34855 111.79 8.99516 111.79 9.71515C111.79 10.4351 111.628 11.0853 111.304 11.6654C110.981 12.2386 110.538 12.6895 109.975 13.0181C109.413 13.3466 108.779 13.5109 108.074 13.5109ZM108.074 12.0639C108.475 12.0639 108.837 11.966 109.161 11.7703C109.484 11.5676 109.736 11.288 109.917 10.9315C110.105 10.575 110.199 10.1695 110.199 9.71515C110.199 9.26078 110.105 8.85534 109.917 8.49885C109.736 8.14235 109.484 7.86623 109.161 7.6705C108.837 7.46777 108.475 7.36642 108.074 7.36642C107.673 7.36642 107.311 7.46777 106.988 7.6705C106.665 7.86623 106.409 8.14235 106.221 8.49885C106.04 8.85534 105.95 9.26078 105.95 9.71515C105.95 10.1695 106.04 10.575 106.221 10.9315C106.409 11.288 106.665 11.5676 106.988 11.7703C107.311 11.966 107.673 12.0639 108.074 12.0639Z" fill="#3368BE"/>
<path d="M112.563 6.04851H114.125V10.8299L117.365 6.04851H118.839V13.3883H117.287V8.61745L114.047 13.3883H112.563V6.04851ZM115.696 5.57666C114.455 5.57666 113.827 5.0419 113.814 3.97241H114.891C114.904 4.4827 115.172 4.73785 115.696 4.73785C115.955 4.73785 116.152 4.67493 116.288 4.54911C116.424 4.41629 116.495 4.22406 116.501 3.97241H117.578C117.571 4.49667 117.413 4.89511 117.103 5.16773C116.792 5.44037 116.323 5.57666 115.696 5.57666Z" fill="#3368BE"/>
<path d="M8.67885 16.2067L4.70169 18.8673L4.69928 10.6992L8.67885 13.2487V16.2067Z" fill="#2B5AA6"/>
<path d="M13.8969 16.2086L17.8735 18.8469L18.4307 9.77441L13.8969 13.2382V16.2086Z" fill="#244D90"/>
<path d="M11.2877 4.83575L4.68096 0.514407L0.53595 3.01624L11.2877 10.0214L22.0394 3.01624L17.8944 0.514404L11.2877 4.83575Z" fill="#3368BE"/>
<path d="M11.2872 10.0217L0.556502 3.0166L0.535461 16.1399L4.70151 18.8691V10.7041L11.2872 14.9344V10.0217Z" fill="#6496E1"/>
<path d="M11.2877 10.0217L22.0184 3.0166L22.0394 16.1399L17.8734 18.8691V10.7041L11.2877 14.9344V10.0217Z" fill="#2B5AA6"/>
<path d="M11.2826 14.9219L8.67352 13.2502V16.1956L11.2826 17.8786V14.9219Z" fill="#CCDBF2"/>
<path d="M11.2877 14.9219L13.8967 13.2502V16.1956L11.2877 17.8786V14.9219Z" fill="#ACC7EF"/>
</g>
<defs>
<clipPath id="clip0_32_1382">
<rect width="118.543" height="18.6772" fill="white" transform="translate(0.386597 0.319824)"/>
</clipPath>
</defs>
</svg>
