<svg width="46" height="68" viewBox="0 0 46 68" fill="none" xmlns="http://www.w3.org/2000/svg">
<path fill-rule="evenodd" clip-rule="evenodd" d="M21.998 4.90043H23.2193L22.9751 3.20582L24.4812 3.47262V2.09019L22.9751 2.35769L23.2193 0.70752H21.998L22.2422 2.40261L20.736 2.09019V3.47262L22.2412 3.21306L21.998 4.90043ZM22.1201 2.75947C22.1201 2.62542 22.1609 2.49173 22.2422 2.40261C22.3236 2.31301 22.4457 2.22469 22.5679 2.22469C22.6899 2.22469 22.8122 2.26868 22.8936 2.35769C22.9751 2.44729 23.0156 2.58098 23.0156 2.71479C23.0156 2.84872 22.9751 2.98299 22.8527 3.11669C22.7712 3.20582 22.6493 3.25026 22.5271 3.25026C22.4864 3.33986 22.3643 3.25026 22.2829 3.16114C22.2016 3.07189 22.1201 2.93808 22.1201 2.75947ZM22.4053 18.9045L20.5326 20.0194L22.4053 21.1336L24.2778 20.0637L22.4458 18.9484L22.4053 18.9045ZM13.2454 32.5401V32.551C13.2454 32.551 13.902 32.4759 14.2919 32.9527H13.8969C13.5305 32.9081 13.205 32.7299 13.0829 32.5956C13.1481 32.5813 13.2 32.562 13.2454 32.5401ZM13.9013 32.1964C13.9451 32.2164 14.316 32.394 14.5074 32.7299L14.5482 32.6406C14.3828 32.3686 14.1618 32.1383 14.0361 32.0176C13.9925 31.9522 13.8704 31.8456 13.5304 31.6589C13.5304 31.6142 13.5712 31.6142 13.5712 31.6142C13.688 31.5297 13.9904 31.5667 14.1946 31.6476L14.1816 31.7042C14.1816 31.7042 14.446 31.7865 14.7199 32.5094C14.6316 32.5953 14.5532 32.6863 14.5074 32.774C14.4866 32.8198 14.4596 32.8749 14.429 32.9372L14.4213 32.9528H14.4166C14.1326 32.4829 13.757 32.3748 13.508 32.3593C13.6166 32.2808 13.7292 32.206 13.9013 32.1964ZM14.4522 31.0798C14.562 31.5397 14.8913 32.0637 15.0238 32.2553C14.951 32.3091 14.8687 32.3742 14.7892 32.4452C14.6356 31.9449 14.4859 31.7159 14.378 31.6119L14.1005 31.0798H14.4522ZM14.7878 30.7384C14.8571 31.0909 15.0103 31.7481 15.262 31.9813C15.2495 32.0583 15.24 32.1054 15.24 32.1054C15.24 32.1054 15.1845 32.1402 15.1034 32.1973C14.9883 31.9707 14.7359 31.3477 14.6471 30.9098L14.7878 30.7384ZM15.3217 31.1684L15.3407 31.1476C15.3313 31.196 15.3245 31.2473 15.3217 31.3022C15.3217 31.5446 15.2922 31.7864 15.2686 31.9404C15.1472 31.728 15.0824 31.2768 15.0266 30.8875L15.0142 30.8012L15.3217 31.1684ZM14.9959 34.3797L14.9553 34.4244L14.9146 34.4695L14.874 34.5138L14.8331 34.5581L14.7925 34.6022H14.7516H14.7111H14.6704H14.6295H14.5888H14.5482V34.5581V34.5138V34.4695V34.4244V34.3797V34.336V34.2906V34.2455V34.2013V34.1569V34.1124V34.0673V34.0234V33.9782V33.9338H14.5888H14.6295H14.6701H14.7111H14.7516H14.7924H14.8331H14.874H14.9145H14.9553H14.9959H15.0366V33.9782V34.0234V34.0673V34.1124V34.1569L14.9959 34.2013L14.9553 34.2455L15.0367 34.336L14.9959 34.3797ZM16.2493 30.962C16.3141 30.9881 16.4351 31.0039 16.5686 31.0098C16.2998 31.1925 16.1441 31.5642 16.0546 31.7928C16.0315 31.8185 16.0085 31.858 15.9928 31.8877C15.9308 31.8841 15.8919 31.8821 15.8919 31.8821C15.8919 31.8821 16.1804 31.4195 16.2493 30.962ZM17.016 30.9889C17.079 30.9782 17.1285 30.9637 17.1534 30.9455C17.248 30.8937 17.3151 30.8417 17.3707 30.7987C17.4107 30.7677 17.4449 30.7412 17.479 30.7229C17.479 30.8033 17.4287 30.9658 17.318 31.1646C17.0342 31.264 16.3846 31.5188 16.3058 31.9081C16.209 31.9011 16.1167 31.8952 16.0437 31.8907C16.1646 31.6017 16.5169 31.1153 17.0719 31.0348L17.016 30.9889ZM17.9677 31.7488C17.9913 31.7659 18.0151 31.785 18.0396 31.8047L18.0486 31.8119C17.5422 31.8792 17.2756 32.1054 17.2756 32.1054L17.3043 32.168C17.1047 32.0695 16.9328 31.9893 16.8686 31.9719C16.8623 31.9696 16.8537 31.9673 16.8437 31.965C17.6433 31.6151 17.7655 31.6595 17.9677 31.7488ZM18.4017 32.0033L18.4123 32.006C18.4266 32.0097 18.4408 32.0135 18.4563 32.0163C18.3961 32.0383 18.3261 32.0711 18.2559 32.1041C18.1836 32.138 18.1112 32.172 18.0491 32.1944C17.7497 32.3177 17.7257 32.3277 17.7555 32.3972C17.622 32.3278 17.4746 32.2525 17.3377 32.1844C17.4331 32.141 17.8544 31.9669 18.4017 32.0033ZM18.9691 32.8926L18.9707 32.9558C18.8329 32.9258 18.6756 32.9206 18.5371 32.9246C18.409 32.8014 18.2786 32.6879 18.1715 32.6203C18.5486 32.5638 18.7553 32.674 18.9691 32.8926ZM18.983 33.3914C18.9177 33.3182 18.82 33.2107 18.7099 33.0969C18.8016 33.1259 18.8942 33.1645 18.978 33.2109L18.983 33.3914ZM19.3519 35.3161C19.4739 35.2718 19.5146 35.1379 19.5146 35.0489C19.5197 35.0479 19.5237 35.048 19.5285 35.0474C19.578 35.0575 19.627 35.0849 19.6694 35.1492C19.6752 35.1892 19.6727 35.2354 19.6705 35.2788C19.6676 35.3308 19.665 35.3786 19.6775 35.4059L19.7182 35.4501L20.2881 35.3601C20.7486 35.0754 20.9825 34.9309 21.1693 34.8255H21.2244C21.2491 34.7988 21.2586 34.7881 21.2626 34.7741C21.4139 34.6925 21.553 34.6269 21.7944 34.5137L22.1201 34.4244L22.6113 33.265H22.6492C22.8895 33.265 23.1468 33.4758 23.2958 33.6209C23.2657 34.0825 23.0866 34.3912 22.9751 34.5137C22.9343 34.6021 22.8527 34.6926 22.7713 34.7815C22.6492 34.9149 22.5271 35.0489 22.4457 35.2274C22.2423 35.2274 22.0793 35.3161 21.9572 35.4501C21.9269 35.4666 21.8966 35.4895 21.8642 35.5139C21.8095 35.555 21.7489 35.6007 21.6722 35.6281C21.2577 35.8552 20.6065 35.8698 20.2351 35.8782C20.0957 35.8813 19.9958 35.8835 19.9625 35.8958C19.9326 35.9122 19.9136 35.9346 19.8896 35.963C19.8482 36.0121 19.7915 36.0793 19.6367 36.1641C19.5961 36.208 19.5553 36.208 19.5146 36.208C19.311 36.2524 19.026 36.2971 18.8225 36.208C18.7819 36.208 18.7412 36.1641 18.7412 36.1183V36.0734C18.7412 36.0734 18.7412 35.9849 18.7819 35.9849C18.7819 35.9849 18.8225 35.9849 18.8225 35.9405C18.8225 35.9405 18.7412 35.9405 18.7412 35.8509C18.7412 35.7665 18.7902 35.7534 18.8261 35.7439C18.8468 35.7384 18.8632 35.7339 18.8632 35.7176C18.8632 35.673 18.7412 35.673 18.7412 35.673C18.7412 35.6281 18.7819 35.5389 18.7819 35.5389H18.8632V35.4945C18.8632 35.4945 18.7412 35.5389 18.7819 35.3601C18.7819 35.3601 18.8225 35.3161 18.8632 35.3161H19.3519ZM19.1994 33.6829L19.2449 33.758L19.3226 34.6936C19.3188 34.6934 19.315 34.6926 19.3112 34.6926L19.3521 35.1379H19.214L19.0741 33.5682L19.1994 33.6829ZM19.686 33.7606C19.9282 33.893 20.3745 34.0486 20.6954 34.1124C20.5744 34.1564 20.3733 34.2004 20.0533 34.2441C19.9746 34.2409 19.7747 34.2376 19.5994 34.3136L19.3235 33.7636C19.4082 33.7244 19.5478 33.7234 19.686 33.7606ZM19.2348 33.6393L19.2262 33.6437L19.2007 33.1375C19.3513 33.2871 19.5138 33.4111 19.7182 33.4429C19.6979 33.4429 19.6774 33.4538 19.657 33.4649C19.6367 33.4759 19.6163 33.4869 19.5961 33.4869L19.5146 33.5322V33.5747C19.4175 33.5806 19.325 33.6008 19.2561 33.6297L19.2297 33.5771L19.2348 33.6393ZM20.4298 35.0973C20.3199 35.1698 20.2172 35.243 20.1252 35.3162L20.0966 35.3123C20.0501 35.2335 19.9533 35.0661 19.8599 34.8821C20.0257 34.9042 20.2426 34.9609 20.4298 35.0973ZM19.8045 34.7701C19.7546 34.6662 19.7092 34.562 19.6776 34.4695L19.6446 34.4039C19.7341 34.3868 19.8404 34.401 19.9278 34.4128C19.9604 34.4172 19.9903 34.4212 20.0158 34.4231C20.0502 34.4403 20.1056 34.4574 20.1941 34.4846C20.2219 34.4931 20.2532 34.5028 20.2881 34.5138C20.4636 34.552 20.8506 34.6572 21.0323 34.7425C20.9045 34.8107 20.7798 34.8808 20.6605 34.9524C20.3889 34.7877 20.0289 34.7659 19.8045 34.7701ZM20.2068 33.3091C20.2474 33.3091 20.2883 33.3091 20.3291 33.265H20.7768C20.8548 33.265 20.948 33.2717 21.0448 33.2786L21.0457 33.2787C21.2608 33.294 21.4934 33.3107 21.6151 33.2584C21.6258 33.2604 21.6353 33.2619 21.6434 33.2628C21.6361 33.6575 21.6784 34.0233 21.7631 34.3859C21.573 34.4708 21.3771 34.564 21.1848 34.6626C21.0722 34.5955 20.8468 34.5215 20.4919 34.4244C20.7361 34.3797 20.899 34.2906 20.9805 34.2013C21.021 34.1124 21.021 34.0673 21.021 34.0673V33.9782H20.9396C20.5468 33.9782 20.079 33.8129 19.8271 33.6805L19.8352 33.6447C19.9801 33.5514 20.0847 33.3987 20.0847 33.3987C20.0847 33.3987 19.9219 33.3091 19.7997 33.3091C19.5462 33.3091 19.3894 33.133 19.2143 32.9365L19.1891 32.9082L19.1233 31.6114C19.4395 32.772 19.8538 33.3091 20.2068 33.3091ZM21.2557 32.0163H21.2654V31.9719C21.3061 31.7928 21.4691 31.6143 21.5504 31.5703C21.8719 31.3805 22.1026 31.3227 22.2347 31.3063L22.1203 31.5259C22.0389 31.659 21.7947 32.1503 21.7132 32.5066C21.6952 32.6184 21.6812 32.7271 21.6701 32.8335L21.6627 32.8327C21.4782 32.8119 21.0918 32.7683 21.2557 32.0163ZM22.0796 30.5889L22.0676 30.5484C22.0298 30.4203 21.9824 30.2594 21.8354 30.0982V30.0534C21.8094 29.9964 21.7834 29.9258 21.7601 29.8519C21.7698 29.8596 21.7807 29.8671 21.7948 29.8747H21.9169C21.8965 29.8971 21.8863 29.9195 21.8761 29.942C21.8659 29.9644 21.8558 29.9868 21.8354 30.009C21.8761 30.0534 21.9575 30.0534 21.9983 30.009L22.0389 30.0534C22.1204 30.3214 22.1611 30.3214 22.1204 30.009C22.1204 29.9868 22.1103 29.9645 22.1 29.9421C22.0899 29.9196 22.0796 29.8971 22.0796 29.8747C22.1204 29.8308 22.1204 29.7859 22.0389 29.7859C21.922 29.7429 21.8418 29.7411 21.7279 29.7411C21.7098 29.6737 21.695 29.6078 21.6853 29.5502C21.7511 29.563 21.8224 29.5634 21.8761 29.5634C22.2426 29.5634 22.6089 29.429 22.9346 29.2951C22.9851 29.6556 23.0517 30.0333 23.2318 30.2783C22.6824 31.1676 22.4432 31.1646 22.2832 30.9455C22.2018 30.8564 22.1204 30.7229 22.0796 30.5889ZM23.0156 31.3922C22.7581 31.5131 22.5338 31.4874 22.4028 31.3162L22.4865 31.347L22.5143 31.1642C22.6882 31.1441 22.8686 31.0501 23.0392 30.9197C23.0964 31.0365 23.2306 31.1647 23.3427 31.2719L23.3437 31.2729C23.24 31.3221 23.1132 31.3651 23.0156 31.3922ZM22.3754 33.1631L21.9982 34.2906L21.9653 34.3027C21.825 33.763 21.7624 33.215 21.8759 32.551C21.9012 32.3579 22.0043 32.1136 22.0889 31.913C22.141 31.7893 22.1861 31.6823 22.2016 31.6142L22.283 31.3922C22.424 31.5465 22.5655 31.7008 22.8123 31.6517L22.7715 31.7042C22.7715 31.7042 22.3239 32.2388 22.283 32.5957C22.211 32.9374 22.2946 33.0926 22.3754 33.1631ZM23.6671 31.5258C23.7756 31.5258 23.8662 31.5651 23.9265 31.5912C23.9567 31.6044 23.9794 31.6142 23.993 31.6142C24.1557 31.8378 24.3999 32.5065 24.4406 32.9081C24.4814 33.309 24.3185 33.3986 24.0742 33.5322C23.993 33.5771 23.8706 33.6215 23.7485 33.6215C23.7051 33.6215 23.6617 33.6088 23.6244 33.5971C23.6249 33.5903 23.626 33.5839 23.6266 33.5771L23.5174 33.5469C23.3955 33.4156 23.0293 33.0486 22.731 33.1306H22.6494C22.6387 33.1072 22.6252 33.0868 22.6112 33.0655C22.5716 33.0057 22.5273 32.9386 22.5273 32.774C22.5273 32.3284 22.8123 31.882 22.9344 31.7487L23.0972 31.6142C23.131 31.6142 23.2066 31.599 23.2953 31.5812C23.4206 31.5561 23.5718 31.5258 23.6671 31.5258ZM22.8527 35.8958L22.3918 35.5259C22.4416 35.5061 22.4972 35.4946 22.568 35.4946H22.6086L22.5272 35.3601C22.6075 35.1849 22.7274 35.0528 22.8475 34.9207L22.8527 34.915C22.8937 34.8701 22.9346 34.8366 22.9755 34.803C23.016 34.7699 23.0565 34.7368 23.0971 34.6926L23.1006 34.6888L23.1959 35.7252L22.8527 35.8958ZM21.0365 36.9968L20.8585 36.7183L21.9094 35.969L21.9689 36.0142L21.0365 36.9968ZM20.5447 36.2395C20.809 36.2569 21.0799 36.2363 21.344 36.1593L20.742 36.5887L20.5447 36.2395ZM16.6631 31.9388C16.5705 31.9289 16.459 31.9196 16.3501 31.9115C16.4219 31.6978 16.849 31.4736 17.1614 31.41C17.0369 31.5819 16.872 31.7651 16.6631 31.9388ZM28.6039 31.631L30.2479 32.165C29.6664 32.353 28.7865 32.5024 28.5935 32.1502C28.5165 31.982 28.5383 31.8008 28.6039 31.631ZM22.5443 42.9463L22.5272 42.9432C22.545 43.0593 22.5781 43.1418 22.6064 43.2126C22.6433 43.3047 22.6724 43.3771 22.6493 43.4779C22.6087 43.5668 22.4053 43.7006 22.2423 43.7452C22.1861 43.7575 22.1334 43.777 22.0827 43.801C21.895 43.4356 21.5884 43.3361 21.4212 43.3096C21.4402 43.271 21.4568 43.2366 21.4689 43.2105C21.5095 43.0765 21.3875 42.6747 21.2245 42.4072C21.1015 42.1376 20.8387 41.3831 20.6297 40.7808C20.8026 40.6884 20.9471 40.779 21.0189 40.824C21.0395 40.8369 21.0541 40.8461 21.0617 40.8461L21.1023 40.8911H21.1432C21.4602 40.8142 21.8381 40.8373 22.1981 41.1626C22.1425 41.8611 22.2252 42.2023 22.2836 42.4429C22.3002 42.5116 22.3149 42.572 22.3238 42.6302C22.3238 42.6302 22.4363 42.7784 22.5443 42.9463ZM22.3645 41.738C22.3645 41.738 23.4637 41.8726 24.5629 41.3368C25.4991 40.8911 26.4356 39.464 26.354 37.9033H26.3948L26.5169 37.8581C26.5886 37.8188 26.6602 37.8054 26.7353 37.7915C26.831 37.7737 26.9322 37.7549 27.0462 37.68L27.2091 37.7687C27.2091 37.7687 27.2498 37.9033 27.2498 37.9473C27.0868 38.0364 26.7612 38.1701 26.5575 38.1701C26.5575 38.3013 26.5356 38.3846 26.5078 38.4901C26.4977 38.5282 26.4869 38.5692 26.4761 38.6163C26.6797 38.5714 27.0868 38.4384 27.0868 38.4384V38.7947L26.354 38.9288C26.3336 38.9731 26.3234 39.0292 26.3132 39.0852C26.3031 39.1409 26.293 39.1966 26.2727 39.2409C26.5575 39.1965 27.0055 39.2409 27.0055 39.2409V39.3302L26.8832 39.5535C26.7273 39.5876 26.5234 39.4906 26.3817 39.4232C26.3386 39.4026 26.3013 39.3849 26.2727 39.3744C26.2368 39.4728 26.201 39.5625 26.1685 39.6434C26.1274 39.7462 26.0918 39.8349 26.0691 39.9098L26.7205 39.9546L26.5983 40.1779L26.4356 40.3561L25.9062 40.1331C25.8248 40.3112 25.7434 40.401 25.6213 40.5339C25.947 40.6683 26.232 40.8022 26.232 40.8022L25.9876 41.0251L25.9062 41.1583L25.4991 40.7132C25.428 40.7905 25.357 40.8682 25.2939 40.9372L25.2926 40.9387L25.1733 41.069L25.7027 41.4263L25.4585 41.5596L25.2955 41.6491C25.0919 41.4263 25.0108 41.3368 24.9701 41.2476L24.9651 41.2514C24.8445 41.3392 24.724 41.427 24.6035 41.471C24.5629 41.4932 24.5527 41.4932 24.5425 41.4932C24.5323 41.4932 24.5222 41.4932 24.4814 41.5154L24.6443 41.7826L24.6849 41.9169L24.4814 42.0057L24.3185 41.9169L24.2371 41.6051C24.1551 41.6272 24.0834 41.6495 24.0117 41.6719C23.941 41.694 23.8702 41.716 23.7893 41.738C23.9114 41.8281 24.0336 41.9609 24.0336 41.9609V42.0953H23.8707C23.8348 42.036 23.799 41.9858 23.7666 41.9403C23.7255 41.8827 23.69 41.8329 23.6671 41.7826C23.5915 41.8038 23.5246 41.8151 23.4623 41.8256C23.3907 41.8377 23.3255 41.8488 23.2601 41.8726L23.4637 42.0953L23.3823 42.2739L23.3008 42.2286C23.2196 42.2286 23.1787 42.1844 23.1787 42.1844C23.1787 42.1844 23.0972 42.0057 23.0972 41.9169C23.0018 41.9169 22.9204 41.9474 22.853 41.9726C22.8054 41.9905 22.7647 42.0057 22.7311 42.0057C22.7715 42.0948 22.8937 42.2286 22.8937 42.2286H22.6902L22.6088 42.0948C22.5932 42.0605 22.5775 42.0328 22.5641 42.0092C22.5428 41.9714 22.5273 41.944 22.5273 41.9169C22.4962 41.9169 22.4651 41.9104 22.4385 41.905C22.3956 41.896 22.3645 41.8895 22.3645 41.9169V41.738ZM21.713 44.0571C21.6724 44.0868 21.6362 44.1215 21.6002 44.1561C21.5278 44.2256 21.4553 44.2951 21.3467 44.3248C21.1838 44.4142 21.0209 44.4589 20.8581 44.5031C20.8174 44.5031 20.7767 44.4589 20.736 44.4142C20.6953 44.4142 20.6953 44.3248 20.736 44.2803L20.7767 44.2356C20.8576 44.1765 20.9562 44.078 21.0492 43.9151L21.1022 43.9237C21.1022 43.9237 21.2531 43.6405 21.3667 43.4175C21.4728 43.4746 21.6943 43.6267 21.8473 43.9497C21.802 43.9843 21.7575 44.0207 21.713 44.0571ZM13.856 33.1306C14.105 33.0941 14.2583 33.0653 14.3564 33.0408C14.3598 33.0459 14.3632 33.0514 14.3665 33.0568L14.3687 33.0604C14.2236 33.359 14.037 33.7694 13.978 34.1568C13.978 34.1866 13.9919 34.2268 14.0088 34.2756C14.042 34.3712 14.0865 34.4997 14.0596 34.6478C14.0207 35.0095 13.9447 35.4726 13.8759 35.8919C13.8006 36.3513 13.7339 36.7585 13.7339 36.9217L14.141 37.2792C14.141 37.2792 14.1815 37.5457 14.1815 37.6799C14.2631 37.8136 14.3853 37.9032 14.5887 37.9032C14.6554 37.9032 14.7947 37.8502 14.9407 37.7947C15.0622 37.7485 15.1884 37.7005 15.2808 37.6799C15.3216 37.6799 15.3623 37.6357 15.3623 37.6357C15.4844 37.5913 15.5253 37.5017 15.5659 37.368L15.5886 37.3429L15.6208 37.3077C15.6432 37.2833 15.6656 37.2589 15.688 37.2342C15.6201 37.0116 15.5809 36.7265 15.6402 36.4828C15.838 36.8387 16.2416 37.3423 16.95 37.4569C16.9092 37.6358 16.7871 38.0814 16.5429 38.4383C16.348 38.7577 16.2568 38.9359 16.1453 39.1536L16.1449 39.1544C16.1167 39.2094 16.0871 39.267 16.0542 39.3302C16.2986 39.6424 17.8047 40.3111 19.4332 40.0434L19.2703 37.6357C18.9854 37.68 18.7412 37.68 18.4969 37.68C17.7737 37.68 17.2933 37.5468 17.0746 37.4862C17.0103 37.4685 16.9685 37.4569 16.95 37.4569L17.0313 37.1894C16.3522 37.0651 15.929 36.5746 15.7477 36.287C15.8934 36.1531 16.2749 35.8055 16.5022 35.628C17.0535 35.1196 17.0464 34.9966 17.041 34.9032C17.0389 34.8655 17.037 34.8327 17.0721 34.7814C17.2756 34.5136 17.1942 36.8774 17.1129 37.2342C17.1129 37.2342 17.9677 37.5457 19.3111 37.4569L19.2399 36.5201H19.4499C19.4656 36.6952 19.4901 36.9903 19.5147 37.368C19.9737 37.3259 20.3977 37.2046 20.8863 37.042L20.9516 37.1134C20.3967 37.3723 19.9948 37.5033 19.5147 37.5913C19.5962 38.3933 19.6777 39.4639 19.7183 39.9994C19.7898 39.9796 19.8693 39.9427 19.9531 39.9037C20.06 39.854 20.1741 39.8009 20.2882 39.7759C20.2797 39.7389 20.2695 39.6999 20.259 39.6597C20.219 39.5068 20.1746 39.3373 20.2067 39.1964C20.229 38.9761 20.5577 38.4741 20.8498 38.0658C20.9114 38.108 20.9852 38.1596 21.0678 38.2174C21.4038 38.4524 21.8855 38.7892 22.2906 39.011C22.2261 39.041 22.1625 39.0673 22.1024 39.0922C21.9539 39.1538 21.8259 39.2068 21.7538 39.2859C21.7538 39.2859 22.2119 39.7163 22.2183 40.7378C21.9021 40.5922 21.5246 40.5686 21.1023 40.6682C21.037 40.632 20.8407 40.5395 20.5976 40.6881C20.5428 40.5299 20.4926 40.3851 20.4509 40.2667C20.4103 40.1778 20.329 39.9994 20.2882 39.8651C20.2425 39.8852 20.1988 39.9052 20.1562 39.9247C20.0095 39.9922 19.8761 40.0534 19.7183 40.0881C19.7183 40.2224 19.7183 40.3111 19.7589 40.3111C19.8343 41.1344 19.9786 43.3628 20.0003 43.7005H19.7183L19.9626 47.3578L19.7589 47.5808L20.0847 48.6064L20.4103 47.5359L20.1661 47.3578L20.0053 43.7454L20.8796 43.8874C20.8275 43.9648 20.7737 44.0203 20.7308 44.0644C20.7179 44.0778 20.7059 44.0901 20.6953 44.1017C20.6797 44.1188 20.6642 44.1293 20.651 44.1384C20.6294 44.153 20.6138 44.1636 20.6138 44.1913C20.5731 44.3248 20.5731 44.4588 20.6138 44.5475C20.6953 44.6817 20.7767 44.7261 20.8989 44.7261C21.1023 44.6817 21.306 44.5924 21.4281 44.5031C21.5324 44.4461 21.62 44.3707 21.7015 44.3005C21.7472 44.2612 21.7913 44.2233 21.8351 44.1913C21.9981 44.0571 22.1202 43.968 22.2829 43.9236C22.4865 43.9236 22.8936 43.7896 22.9344 43.6119C22.938 43.6016 22.9406 43.5917 22.9432 43.5816C24.4395 43.6768 25.9875 42.8085 25.9875 42.8085C26.6796 44.4142 27.6975 45.0835 27.6975 45.0835C29.4147 45.9193 29.3075 46.834 29.1868 47.8639C29.1787 47.9327 29.1706 48.002 29.163 48.0717C29.0816 48.9184 28.1045 49.7655 28.1045 49.7655L28.9594 50.2566L29.0816 49.9886L29.5293 49.8547C29.6082 47.776 30.1868 47.0426 30.4437 46.7168L30.4656 46.6889C30.71 46.3766 30.5065 46.3322 30.5065 46.3322C30.5065 46.3322 29.2444 44.9492 30.0179 43.2104C30.9949 40.5793 30.8322 38.6611 29.5293 37.7251C28.2699 36.819 26.6681 37.4141 26.232 37.5761L26.1912 37.5913C26.1504 37.5913 26.069 37.6357 26.069 37.6357C26.069 37.6357 25.9061 37.6799 25.8247 37.7251L24.3592 39.0619L24.1556 38.6162L22.8936 39.2859V38.8388L22.6901 38.7504L22.6852 38.755L22.6736 38.7656C22.6645 38.7738 22.6553 38.7818 22.646 38.7897L22.6428 38.7924C22.1616 38.6255 21.3546 38.1488 20.9629 37.9094C21.0972 37.7263 21.2116 37.5779 21.2681 37.5053L21.5095 37.8136L22.3238 36.654L22.4457 36.6987L21.7945 37.9925L22.6087 38.4826L23.0564 36.8324L23.1786 36.6987V38.5272L23.9929 38.1701L23.7485 36.4754H23.7892L24.6442 38.3485L25.443 37.7128L25.4507 37.7189L25.4584 37.7251L25.7842 37.4569C25.5803 37.2792 25.3362 37.0106 25.2548 36.8324C25.2548 36.8324 25.0513 36.6094 24.807 35.7621L24.115 36.0733L24.1644 36.1385C24.3567 36.3914 24.5725 36.6754 24.6848 36.9217C24.6848 36.9217 24.9337 37.2549 25.2488 37.5468L24.6442 38.1701L23.8706 36.2079L23.5044 36.4307L23.6671 38.1255L23.3007 38.3485V36.5201L22.8528 36.6987L22.4457 38.2145L21.9167 37.9472L22.5681 36.654L22.2423 36.4754L21.4281 37.5017L21.1407 37.1473L22.091 36.1068L22.8123 36.654L24.0742 36.0733L23.9929 35.9404L22.8528 36.4307L22.0185 35.8095C22.0541 35.7821 22.0873 35.7536 22.1202 35.7176L22.1572 35.687L22.1745 35.6726L22.1969 35.6538L22.224 35.6316L22.8123 36.0733L23.7892 35.628L23.7914 35.6265L23.7871 35.6185L23.7485 35.45L23.3525 35.6471L23.2486 34.5168C23.3818 34.3486 23.5327 34.1092 23.5978 33.7877C23.6118 33.7901 23.6264 33.7922 23.6418 33.794L23.7892 35.45L24.6442 34.9148C24.6586 34.7103 24.6882 34.4664 24.7187 34.2151L24.7188 34.2141L24.719 34.2128C24.7308 34.1154 24.7427 34.0169 24.754 33.919C25.746 34.4787 28.2794 35.8053 28.3487 35.5388C28.3602 35.4883 28.3588 35.4165 28.3571 35.3375C28.353 35.1368 28.3479 34.8896 28.5524 34.8254C28.6295 34.8046 28.7157 34.8235 28.8111 34.8445C28.9171 34.8678 29.0344 34.8936 29.163 34.87C29.448 34.7814 29.6106 34.3795 29.4887 34.2905C29.3663 34.2905 29.3259 34.2453 29.3259 34.2453C27.7444 34.2453 25.5871 33.194 24.6438 32.4795C24.642 32.4676 24.64 32.4557 24.6379 32.4437C25.5558 33.0007 27.5644 34.0251 29.163 34.0672C29.163 33.9337 29.2036 33.8446 29.3259 33.7108C29.5088 33.5101 29.783 33.4349 30.0117 33.3722C30.0884 33.3512 30.1601 33.3315 30.2214 33.309C30.2683 33.2919 30.3138 33.2782 30.3589 33.2646C30.5484 33.2072 30.7319 33.1517 30.9949 32.8629C31.2539 32.5162 31.2076 32.1032 30.9857 31.9852L30.9949 31.9718L28.7151 31.4362L28.6726 31.4827C28.7901 31.2651 28.9578 31.0808 29.041 30.9899C29.4072 30.5888 29.2851 30.365 29.2445 30.3213H29.163C28.5116 30.3213 27.3716 31.4362 26.8425 32.3725C26.8425 32.4166 26.8019 32.4166 26.8019 32.4166H26.7611C26.7611 32.4166 26.1011 31.8652 24.1395 31.4656C24.1294 31.4531 24.1207 31.4427 24.115 31.4362H24.0742C24.1142 31.4362 24.0356 31.3934 23.6848 31.3065C23.7726 31.271 23.8706 31.2293 23.9483 31.191C25.7402 31.5372 26.6025 31.7954 26.8019 31.9271C27.209 31.2129 27.9416 30.7228 28.5524 30.365C28.2402 30.4182 27.8003 30.4707 27.2832 30.5324C26.9237 30.5753 26.5269 30.6228 26.1096 30.6779L23.9315 31.0128C23.7318 30.8911 23.615 30.6864 23.5482 30.5111C23.5974 30.527 23.6498 30.539 23.7079 30.5434C23.7079 30.5434 23.7485 30.4995 23.7892 30.4995V30.4104C23.7095 30.1775 23.7511 29.9635 23.801 29.707C23.8275 29.5703 23.8564 29.4214 23.8706 29.2511C23.8706 29.1146 23.8572 28.9867 23.8344 28.8659L23.8706 28.8941C23.9809 28.9907 23.9717 29.1003 23.9595 29.2444C23.9493 29.3662 23.9369 29.5127 23.9929 29.6967C24.1965 30.232 24.807 30.187 25.1733 29.7409C25.2104 29.7004 25.2518 29.6367 25.2969 29.5672C25.4497 29.3319 25.6453 29.0304 25.8654 29.3401C25.906 29.4287 25.9473 29.5189 26.069 29.5633C26.2727 29.6967 26.4354 29.5188 26.476 29.3853C26.2173 29.5968 26.1641 29.4722 26.0715 29.2551C26.0476 29.199 26.021 29.1367 25.9875 29.0725C25.8654 28.9389 25.662 28.7605 25.3769 28.9833C25.2619 29.0464 25.1874 29.1761 25.1105 29.3099C25.0787 29.3654 25.0465 29.4215 25.0107 29.4738C24.6848 29.8308 24.3592 29.5633 24.3999 28.9389C24.4406 28.1795 24.4406 28.0018 24.1965 27.5562C23.8298 26.9311 23.2195 26.8423 22.4053 27.0654C22.4658 27.1651 22.5263 27.2154 22.5743 27.2552C22.6554 27.3225 22.7007 27.3601 22.6493 27.5562C22.6319 27.6135 22.5922 27.6625 22.5525 27.6999C21.8578 27.8114 21.5095 28.3868 21.5095 29.4289C21.4784 29.5651 21.5424 29.7533 21.6106 29.9541C21.6316 30.0162 21.6531 30.0793 21.6723 30.1426V30.187V30.232C21.8351 30.4104 21.8758 30.5434 21.9167 30.6779C21.9336 30.715 21.9487 30.7501 21.9632 30.7838C22.0185 30.9119 22.0641 31.0176 22.1609 31.1234H22.2016L22.2049 31.1236C22.0418 31.1567 21.8167 31.2347 21.5502 31.3921C21.4281 31.4809 21.2652 31.6588 21.1839 31.8378C21.1635 31.8378 21.1329 31.8488 21.1024 31.8599C21.0719 31.871 21.0413 31.882 21.0209 31.882C20.9922 31.891 20.9644 31.9001 20.9374 31.9089C20.6963 31.9871 20.5243 32.0428 20.4509 31.882C20.3696 31.674 20.2521 31.466 20.1345 31.2577C20.0758 31.1536 20.0169 31.0495 19.9626 30.9454C19.7996 30.6779 19.5962 30.3213 19.5962 30.232C19.5962 30.1426 19.5962 29.8746 19.5147 29.5188V29.4738C19.5147 29.4738 19.352 29.2066 19.1483 29.1623C19.1178 29.1623 19.0645 29.1623 19.0228 29.1808L18.9854 27.4221L19.352 27.9133L19.4333 27.6905L18.9447 27.0654L18.904 26.263L19.6367 26.2187L19.5962 26.0397L18.904 26.0846V25.8171L19.2704 25.7726L19.2298 25.5938L18.904 25.6385L18.8632 25.1036H18.7005L18.7412 25.6385L18.3748 25.6827V25.8614L18.7412 25.8171V26.0846L18.1714 26.129H18.1305V26.3075L18.7412 26.2187L18.7819 26.7975L18.4969 26.4417L18.3748 26.6641L18.7819 27.1546L18.8632 29.3401H19.026L19.0246 29.2708L19.0668 29.3401H19.1075C19.189 29.3401 19.3111 29.4738 19.352 29.5633C19.4155 29.8065 19.4046 29.9959 19.3967 30.1312C19.3945 30.1691 19.3926 30.2026 19.3926 30.232C19.3926 30.365 19.5147 30.5888 19.7589 31.0347C19.9626 31.3021 20.1253 31.6588 20.2474 31.9271C20.329 32.1052 20.4509 32.1502 20.5731 32.1502C20.6936 32.1502 20.8537 32.1065 21.0142 32.0626L21.0209 32.0608C21.0565 32.0608 21.092 32.0523 21.1241 32.0426C21.0434 32.5918 21.1458 32.8942 21.2832 33.0606C21.1299 33.0865 20.9242 33.0867 20.7361 33.0867C20.5325 33.0867 20.3697 33.0867 20.2474 33.1306C19.9066 33.2141 19.3899 32.178 19.0899 30.9559L19.0668 30.4995H18.9041V30.4551C18.8837 30.4551 18.8328 30.4325 18.7819 30.41C18.7311 30.3875 18.6802 30.365 18.6598 30.365L18.7005 30.3212H18.8226C18.9449 30.3212 19.067 30.2769 19.067 30.187C19.067 30.1426 18.9449 30.0977 18.8226 30.0977H18.7413H18.7005V30.0533H18.8226C18.9041 30.0533 19.067 30.0533 19.067 29.9645C19.067 29.9364 19.0513 29.9257 19.0296 29.911C19.0165 29.9021 19.001 29.8915 18.9856 29.8747H18.6598L18.7005 29.8307H18.9856C19.0262 29.8307 19.067 29.7858 19.067 29.7409C19.067 29.7138 19.0516 29.7033 19.0304 29.6889C19.0171 29.6797 19.0013 29.6689 18.9856 29.6514H18.7005V29.6072C18.8226 29.6514 18.9449 29.6514 19.0262 29.6514C19.1077 29.6514 19.1483 29.6072 19.1483 29.5632C19.1483 29.4738 19.0262 29.429 18.9041 29.429H18.8226L18.7413 29.3852C18.7413 29.3852 18.7005 29.429 18.6598 29.3852C18.6191 29.4521 18.5886 29.53 18.5581 29.6079C18.5275 29.6857 18.497 29.7637 18.4563 29.8307C18.375 30.3212 18.6598 30.5433 18.9041 30.6337V30.505L18.9621 32.6302C18.809 32.4564 18.6321 32.3151 18.3748 32.2838C18.7341 32.1049 18.805 32.0695 18.8191 32.0165C18.8225 32.0035 18.8225 31.9894 18.8225 31.9718V31.882H18.7412C18.3748 31.8378 18.2118 31.7487 18.0491 31.6142L18.0156 31.592C17.8267 31.4671 17.6602 31.3568 17.2756 31.5258C17.7643 30.901 17.5606 30.4995 17.5606 30.4995L17.4385 30.3213L17.3977 30.5434C17.3977 30.5781 17.3028 30.6383 17.1672 30.7243C17.1253 30.7509 17.0794 30.7799 17.0313 30.8114C16.9513 30.8557 16.3583 30.8562 16.2629 30.8133C16.2665 30.7031 16.254 30.5962 16.2171 30.4995C16.2126 30.4896 16.1982 30.4821 16.1768 30.4773L16.1765 30.4644L16.1764 30.4551V30.365H16.0951C15.8342 30.2844 15.5054 30.651 15.3266 30.8503L15.3042 30.8753L15.2808 30.901L14.833 30.365L14.3853 30.901L13.7746 30.9454L14.0596 31.4362C13.856 31.3921 13.6116 31.3921 13.4491 31.4809C13.3673 31.5258 13.3267 31.6142 13.3267 31.7041V31.7487L13.3673 31.7926C13.4079 31.8223 13.4531 31.8521 13.4982 31.8818C13.5888 31.9415 13.6795 32.0014 13.7339 32.0608C13.5303 32.1052 13.4082 32.1943 13.3267 32.2838C13.3087 32.297 13.2915 32.3101 13.2747 32.323C13.1779 32.397 13.093 32.462 12.9198 32.462H12.879V32.5065C12.879 32.551 12.879 32.5956 12.9198 32.6847C13.0417 32.9081 13.4082 33.1753 13.856 33.1306ZM11.1689 44.8596C11.1689 44.9048 11.2098 44.9048 11.2504 44.9048C11.5346 44.8162 11.6974 44.5489 11.8598 44.2823L11.861 44.2802C11.9424 44.1464 12.0239 44.0127 12.1054 43.8791C12.1461 43.8347 12.1461 43.7897 12.1054 43.7453L12.0647 43.7005C12.1614 43.5242 12.0793 43.3755 12.0005 43.2329C11.9799 43.1954 11.9594 43.1583 11.9424 43.1213L11.9018 43.0764C11.861 43.0317 11.739 42.8531 12.0647 42.452C12.0647 42.452 12.1054 42.4071 12.1054 42.3629C12.0239 41.7825 12.309 41.2028 12.5532 40.7131C12.5891 40.6335 12.6253 40.5543 12.6613 40.4754L12.6752 40.4449C12.6823 40.4257 12.689 40.4069 12.6955 40.3885C12.7652 40.1929 12.8184 40.0434 13.0417 40.0434C13.5302 40.9351 14.0189 41.6049 14.7921 42.1396C14.7921 42.1396 14.9144 42.2739 15.0773 42.2739C15.2589 42.3023 15.5896 42.2398 15.8054 42.191C15.8529 42.2936 15.9079 42.3961 15.9728 42.4971C16.1236 42.7278 15.7157 42.7875 15.3616 42.8394C15.238 42.8575 15.1208 42.8747 15.0365 42.8978C14.711 43.0764 14.3037 43.0764 13.8966 43.0764C13.3672 42.9871 13.286 43.2103 13.2452 43.5223C12.9602 44.4141 12.5532 45.0834 12.1461 45.7078C11.943 45.9299 11.7807 46.1522 11.6183 46.3746L11.6168 46.3767C11.5762 46.4207 11.5353 46.5103 11.5353 46.5544C11.5353 46.5997 11.5762 46.689 11.6168 46.7331C11.6665 46.8422 11.6252 46.9014 11.5762 46.9715C11.545 47.0161 11.5106 47.0652 11.4949 47.1346C11.3318 47.5358 11.2913 47.8929 11.2504 48.2937V48.3836C11.2408 48.4471 11.2266 48.5256 11.2116 48.6084C11.1633 48.875 11.1069 49.1863 11.1689 49.1863C11.2504 49.1863 12.1867 49.0077 12.2276 48.8738C12.2682 48.7397 12.1461 48.428 12.1461 48.428V47.7587C12.1585 47.7045 12.1633 47.6543 12.1675 47.6108C12.1771 47.5114 12.1833 47.4465 12.2682 47.4465C12.5532 47.3577 12.7161 47.0004 12.6752 46.5544C12.6752 46.2432 12.7973 45.975 13.0824 45.6626C13.286 45.3063 13.449 44.9938 13.6116 44.6375C13.6866 44.6647 13.777 44.5743 13.8921 44.4591C13.9645 44.3867 14.0467 44.3044 14.141 44.2355C14.263 44.1464 14.4667 44.1464 14.6294 44.1913C15.7286 44.4588 17.072 44.7261 18.2932 44.5475C18.4457 44.5956 18.4584 44.4649 18.4746 44.2987C18.4886 44.1541 18.5053 43.9828 18.6189 43.8791C18.7004 43.7897 19.4331 43.7005 19.6367 43.7453L19.3519 40.1779C19.026 40.2224 18.6597 40.2666 18.2932 40.2666C17.1062 40.2666 16.2794 39.8719 15.9483 39.7139C15.9276 39.704 15.9082 39.6948 15.8915 39.6869C15.7286 40.0434 15.6471 40.311 15.6065 40.5339C15.5937 40.5897 15.5823 40.6587 15.5735 40.7362L15.5658 40.7131C15.1586 40.311 14.3444 39.8652 13.8559 39.5979C13.5302 39.3744 13.2452 39.1072 13.0417 38.7946C13.0417 38.7505 13.0009 38.7505 12.9602 38.7505C12.7161 38.7505 12.5124 38.8388 12.309 38.9735L12.2682 39.0173C12.0647 39.5979 11.9424 40.0434 11.861 40.4895C11.6983 40.9351 11.5353 41.2919 11.3726 41.5595C11.1283 41.828 10.8842 42.2739 11.1283 42.5407C11.1689 42.6746 11.1689 42.8085 11.1689 42.9432C11.1689 42.9893 11.1641 43.0355 11.1594 43.0799C11.1506 43.1637 11.1424 43.2412 11.1689 43.2994C11.0876 43.433 11.0062 43.6563 11.0062 43.7453V44.0127C10.9687 44.3826 11.0349 44.5248 11.1092 44.6847L11.1283 44.7261C11.1283 44.7487 11.1387 44.7713 11.1489 44.7938C11.159 44.8159 11.1689 44.838 11.1689 44.8596ZM30.3031 37.6357C30.059 37.8136 29.9367 37.9032 29.9367 37.9032L30.2623 38.2145C31.0359 37.5913 32.6642 37.4569 32.4199 39.0173C31.9314 40.891 31.6058 42.8977 33.0307 42.9871C32.7457 42.5858 32.7862 42.1396 32.9084 41.6936C33.1063 41.1981 33.3631 40.7026 33.5424 40.3566C33.6213 40.2044 33.6854 40.081 33.7226 39.9994C34.2927 38.4382 34.3334 36.6987 32.6235 36.297C31.5543 36.0847 30.8719 36.945 30.5147 37.3952C30.4231 37.5106 30.3528 37.5993 30.3031 37.6357ZM27.4939 45.3954C27.4533 46.198 27.616 46.7783 27.8197 47.3578C27.5347 47.6252 27.2903 48.0717 27.0868 49.0522C27.209 49.3643 27.0868 49.4536 26.8425 49.4983C26.639 49.5429 25.947 49.3643 26.0285 49.3643C26.1768 48.9418 26.2818 48.8033 26.4067 48.6386C26.4531 48.5773 26.5023 48.5125 26.5575 48.4279C26.8425 47.8032 26.8831 47.1346 26.5575 46.5544C26.5168 46.5102 26.4863 46.4547 26.4558 46.3991C26.4253 46.3435 26.3948 46.2878 26.3539 46.2433C26.159 45.8769 25.8685 45.6777 25.6134 45.5026C25.4956 45.4219 25.3854 45.3464 25.2955 45.2618C25.0107 44.9939 24.8071 44.6375 24.6848 44.2356L24.5628 43.7896C24.5628 43.7896 24.9292 43.7004 25.2143 43.5667C25.5399 43.3885 25.8654 43.165 25.8654 43.165C26.184 44.2127 26.8736 44.8083 27.245 45.129C27.3956 45.2591 27.4939 45.3439 27.4939 45.3954ZM25.4991 20.1524C25.4991 19.8407 25.7435 19.5727 26.0285 19.5727C26.3132 19.5727 26.5576 19.8407 26.5576 20.1524C26.5983 20.4653 26.354 20.7333 26.0285 20.7333C25.7435 20.7333 25.4991 20.4653 25.4991 20.1524ZM27.616 20.1524C27.616 20.2859 27.6956 20.4173 27.7762 20.55L27.7789 20.5544C27.8602 20.6881 27.9823 20.7333 28.1451 20.7333C28.4302 20.7333 28.6745 20.4653 28.6745 20.1524C28.6745 19.8407 28.4302 19.5727 28.1451 19.5727C27.8602 19.5727 27.616 19.8407 27.616 20.1524ZM17.1129 20.7333C16.828 20.7333 16.5837 20.4653 16.5837 20.1524C16.5837 19.8407 16.828 19.5727 17.1129 19.5727C17.3979 19.5727 17.6422 19.8407 17.6422 20.1524C17.6422 20.4653 17.3979 20.7333 17.1129 20.7333ZM18.6598 20.1524C18.6598 20.2874 18.7413 20.4653 18.8226 20.5544C18.9041 20.6881 19.0262 20.7333 19.1892 20.7333C19.4741 20.7333 19.7185 20.4653 19.7185 20.1524C19.7185 19.8407 19.4741 19.5727 19.1892 19.5727C18.9041 19.5727 18.6598 19.8407 18.6598 20.1524ZM20.1293 50.1243C20.0563 50.1348 19.9799 50.1458 19.9219 50.1668C19.7996 50.2114 19.4741 50.6132 19.4741 50.6132C19.8393 50.7022 20.0428 50.6137 20.2456 50.5254L20.2474 50.5246C20.4919 50.4346 20.8174 49.8546 20.8174 49.8546C20.6856 49.8546 20.5004 49.9714 20.3915 50.0401C20.3659 50.0562 20.3445 50.0697 20.329 50.0784C20.2862 50.1016 20.2098 50.1126 20.1293 50.1243ZM11.902 55.0283C11.5763 55.0283 11.332 55.3408 11.332 55.3408C11.2914 55.0283 11.7798 54.7167 11.7798 54.7167C11.495 54.7167 10.9656 54.9392 10.9656 54.9392C11.1284 54.5825 11.7798 54.3593 11.7798 54.3593L11.21 54.2706C11.21 54.2706 11.7798 53.8245 12.5126 53.8245C13.2139 53.7927 13.5586 53.9901 13.7576 54.1041C13.8358 54.1489 13.8915 54.1808 13.9375 54.1808C13.9879 54.1808 14.0692 54.168 14.1735 54.1518C14.4062 54.1154 14.7524 54.0613 15.1181 54.092C15.6474 54.1364 16.2173 54.2254 16.2173 54.2254C16.3395 53.9138 16.3395 53.6017 16.3395 53.6017C16.3178 53.6005 16.2967 53.5979 16.2756 53.5949C16.1635 53.6564 15.9166 53.7682 15.6474 53.7354C15.3217 53.6905 14.3853 52.7093 14.1815 52.4865C13.9781 52.2641 13.8153 52.1296 13.7339 52.1735C13.7054 52.1894 13.6869 52.2162 13.6661 52.2461C13.6275 52.3016 13.5813 52.3683 13.4491 52.3977C13.3635 52.421 13.2442 52.3579 13.1089 52.2865C12.9867 52.2219 12.8514 52.1505 12.7163 52.1296C12.4312 52.0856 12.2277 52.1735 12.2277 52.1735L12.3904 51.8616C12.065 51.8616 11.6578 52.1735 11.6578 52.1735C11.7798 51.9073 12.0241 51.6832 12.0241 51.6832H11.7798C11.9426 51.5047 12.2683 51.2817 12.9198 51.1931C13.5712 51.1043 14.019 51.2369 14.2632 51.4161C14.3924 51.4868 14.8291 51.7698 15.2119 52.0208C15.1409 51.6011 15.1326 51.1422 15.1995 50.7025C15.3623 49.677 16.3395 48.7397 17.2757 48.963C17.6541 49.0521 18.1759 49.3374 18.4841 49.5193C19.6582 49.1079 19.1892 48.2503 19.1892 48.2503C19.7183 48.5173 19.759 48.8296 19.6778 49.1416C19.7378 49.1212 19.8044 49.0959 19.8755 49.0671C20.1342 48.9209 20.5115 48.6107 20.7361 47.9817L20.5733 47.9376L21.0618 47.4912L21.1024 48.1603L20.899 48.0273C20.899 48.0273 20.8199 48.3901 20.4654 48.8039C20.6964 48.6946 20.9348 48.5768 21.1509 48.47C21.5231 48.2861 21.8292 48.1349 21.9167 48.1158C22.0847 48.0794 22.2249 48.2854 22.2917 48.3835C22.3059 48.4042 22.3167 48.4202 22.3238 48.428C22.3238 48.428 22.6087 48.3387 22.731 48.428C22.8937 48.5173 23.0157 48.7848 23.0157 48.7848C22.2831 49.2756 21.7132 49.8097 21.5909 49.9887C21.5095 50.0784 21.2246 50.4346 21.1839 50.5246C21.1433 50.6581 21.2654 50.8809 21.2654 50.8809C21.0209 51.3718 20.5733 51.2369 20.5733 51.2369L20.8175 51.4611C20.4104 51.6832 19.8811 51.6832 19.8811 51.6832L19.7997 51.7279C19.5752 51.947 19.2438 51.8646 18.9365 51.7881C18.8871 51.7758 18.838 51.7635 18.7904 51.7529C19.2892 52.0872 20.1222 52.0641 20.6547 52.0404C21.6064 51.8882 22.0849 51.4611 22.5889 51.0113C23.1195 50.5377 23.6784 50.039 24.8478 49.8097C26.1913 49.5878 27.2904 49.9 28.6746 50.8809C30.0589 51.8616 31.5242 52.2641 32.0127 51.5047C32.4392 50.8436 32.2452 50.2501 31.9184 49.2498C31.8708 49.1039 31.8203 48.9495 31.7685 48.7848L31.7457 48.7101C31.5874 48.1926 31.4058 47.5984 31.4834 47.0449C31.5649 46.2875 31.972 45.5737 32.7456 45.3954C33.1527 45.3063 33.6004 45.3507 33.8856 45.4843C34.3169 45.7211 34.5261 46.2704 34.5972 46.4569L34.607 46.4827L34.6131 46.498C34.615 46.5028 34.6168 46.507 34.6183 46.5104C34.6589 46.6438 34.6994 47.1346 34.537 47.4465C34.4147 47.7145 34.0483 48.2937 34.0483 48.2937C33.9456 47.9345 33.7707 47.7222 33.6275 47.5485C33.4866 47.3776 33.3766 47.2441 33.3969 47.0449C33.4783 46.5103 33.9668 46.5997 33.9668 46.5997C33.9262 46.4207 33.7226 46.0652 33.2748 46.0197C32.8271 45.9751 32.2978 46.3322 32.257 47.1346C32.2239 47.787 32.6476 48.6452 32.9607 49.2792C33.0329 49.4255 33.0992 49.5598 33.1527 49.677C34.3332 52.0856 32.6642 53.6017 30.7915 53.5567C30.0995 53.512 29.3259 53.3335 28.7151 52.9763C28.4303 52.843 28.5933 53.5567 28.5933 53.5567C28.5933 53.7354 29.0817 54.2254 29.0817 54.2254C28.6746 55.2514 27.9824 55.5633 27.6568 55.5633C27.491 55.5407 27.3252 55.472 27.1757 55.4098C27.0314 55.35 26.9019 55.2963 26.8019 55.2963C26.6389 55.2963 26.3947 55.3408 26.3947 55.3408C26.4356 55.2069 26.6797 55.0731 26.6797 55.0731C26.4761 55.1173 26.0285 55.2069 26.0285 55.2069C26.1913 55.0283 26.6797 54.8943 26.6797 54.8943L26.1913 54.8054C26.559 54.4694 26.927 54.6146 27.208 54.7255C27.3001 54.7618 27.383 54.7945 27.4534 54.8054C27.6976 54.8514 28.0639 54.6714 28.0639 54.3157C28.0639 53.8691 27.7382 53.8691 27.2497 53.9138C26.8832 53.959 26.354 53.8691 25.8247 53.6905C25.1666 53.4609 24.9262 53.1831 24.8127 53.0519C24.7717 53.0046 24.7473 52.9763 24.7258 52.9763C24.7217 52.9808 24.7162 52.9934 24.7075 53.0131C24.6268 53.1954 24.2745 53.9922 22.3645 54.7167C20.8581 55.2963 18.1714 54.8054 18.1714 54.8054V54.5994C18.1242 55.0297 17.9849 55.3092 17.9271 55.3408C17.8879 55.3622 17.7826 55.3423 17.6431 55.3159C17.4929 55.2874 17.3028 55.2514 17.1129 55.2514C16.9589 55.2514 16.8398 55.2833 16.6918 55.323C16.4486 55.3883 16.1272 55.4747 15.4439 55.4747C14.5517 55.4399 14.0586 55.1862 13.8473 55.0775C13.7886 55.0473 13.7516 55.0283 13.7339 55.0283C13.7251 55.0283 13.7106 55.0429 13.6883 55.0654C13.6076 55.1469 13.4246 55.3312 13.0418 55.2963C12.9408 55.2963 12.791 55.2429 12.6241 55.1833C12.3877 55.0989 12.1168 55.0022 11.902 55.0283ZM23.9117 55.3409C23.8302 55.1174 23.7488 54.5826 23.8302 54.2707C23.8302 54.2707 23.7488 54.4049 23.301 54.6714C22.8939 54.8513 22.5682 54.9838 22.5682 54.9838C22.8125 55.2513 23.0158 55.8312 23.0158 55.8312C22.806 55.7545 22.5662 55.7437 22.3479 55.7424C22.3607 55.7216 22.344 55.7053 22.2832 55.6971C21.8355 55.6528 21.3062 55.9209 21.3062 55.9653L21.5585 55.9959L21.5525 55.9976L21.5341 56.0029L21.5098 56.0098C21.3062 56.2328 21.062 56.5454 21.062 56.5454C21.4283 56.3219 21.8761 56.1432 21.8761 56.1432C21.5505 56.4109 21.469 56.9025 21.469 56.9025C21.9576 56.4109 22.4461 56.3666 22.853 56.4109C23.2602 56.4556 23.6673 56.4556 24.0338 56.3219C24.4002 56.1881 24.4002 56.0098 24.3187 55.8757C24.3029 55.8235 24.2499 55.7782 24.1863 55.7238C24.0869 55.6386 23.9614 55.5312 23.9117 55.3409ZM22.3645 30.6779C22.4054 30.6337 22.4459 30.6779 22.4459 30.7666C22.4054 30.8114 22.3239 30.8563 22.2831 30.8114C22.2831 30.8114 22.2424 30.7666 22.2424 30.7228C22.2831 30.7228 22.3239 30.7228 22.3645 30.6779ZM22.3644 29.8746C22.3644 29.9193 22.4053 29.9645 22.4458 29.9645C22.4865 29.9193 22.6087 29.8746 22.731 29.8746C22.731 29.8655 22.7328 29.8564 22.7344 29.8476C22.7408 29.8141 22.7461 29.7859 22.6494 29.7859C22.5681 29.8308 22.5273 29.8308 22.4458 29.8308C22.486 29.742 22.6055 29.6979 22.7262 29.6533L22.731 29.6515C22.7714 29.5631 22.731 29.5188 22.6901 29.5188C22.5681 29.5631 22.4458 29.6515 22.3238 29.7408C22.2829 29.7859 22.2829 29.8746 22.3644 29.8746ZM22.283 30.5434H22.4866C22.5272 30.5434 22.5272 30.5888 22.5272 30.5888C22.4635 30.6123 22.3997 30.6356 22.3358 30.6589C22.2776 30.6801 22.2193 30.7014 22.1609 30.7228C22.1202 30.6338 22.1202 30.5888 22.2017 30.5888C22.2221 30.5888 22.2323 30.5774 22.2424 30.5661C22.2526 30.5548 22.2627 30.5434 22.283 30.5434ZM22.6496 17.1202C22.6496 17.2089 22.609 17.2089 22.609 17.2089C22.5918 17.2089 22.5818 17.2089 22.573 17.2055C22.561 17.201 22.551 17.1902 22.5275 17.1649C20.492 14.2212 18.4564 10.6091 20.3699 7.17427C20.3699 7.13006 20.4106 7.13006 20.4513 7.13006C21.1376 7.50604 21.4021 8.71835 21.6399 9.808C21.7406 10.2695 21.8365 10.7091 21.9576 11.0537C21.9576 11.0047 21.9557 10.9287 21.9531 10.8312C21.9326 10.0424 21.8756 7.84437 22.5275 7.13006C22.5275 7.13006 22.5684 7.08514 22.609 7.08514H22.6496C23.2604 7.48704 23.4232 10.475 23.4232 10.9654C23.4858 10.7303 23.5465 10.4564 23.6117 10.1623C23.8431 9.11739 24.1313 7.81611 24.7667 7.08514C24.8073 7.0407 24.848 7.08514 24.848 7.13006C26.7614 10.5641 24.8073 13.9978 22.6496 17.1202ZM16.4613 18.1012H16.502H21.8757C21.9164 18.1012 21.9572 18.0563 21.9572 18.0563C21.9776 18.034 21.9878 18.0229 21.9878 18.0119C21.9877 18.0008 21.9775 17.9898 21.9572 17.9679C21.9572 17.9679 19.2296 14.7123 18.6188 11.9916C17.9269 8.86938 18.9446 7.48706 18.9446 7.48706V7.39782C18.9242 7.39782 18.914 7.38688 18.9039 7.37594C18.8937 7.36501 18.8835 7.35407 18.8632 7.35407H18.7818C17.4383 7.35407 14.1409 8.86937 14.1409 12.6605C14.1409 16.0947 16.4205 18.1012 16.4613 18.1012ZM23.2602 17.968C23.301 17.9226 25.9878 14.7123 26.5984 11.9916C27.2905 8.86937 26.2729 7.48717 26.2729 7.48717C26.2525 7.46467 26.2423 7.45344 26.2424 7.44225C26.2424 7.4311 26.2526 7.41999 26.2729 7.39781C26.2729 7.35418 26.3134 7.35418 26.3541 7.35418H26.4357C27.7791 7.35418 31.0767 8.86937 31.0767 12.6606C31.0767 16.0948 28.7969 18.1012 28.7561 18.1012H23.3417C23.301 18.1012 23.2602 18.1012 23.2602 18.0563V17.968ZM22.0386 6.06007C22.0386 6.41612 22.2829 6.68445 22.6086 6.68445C22.9343 6.68445 23.1784 6.37179 23.1784 6.06007C23.1784 5.70321 22.9343 5.43547 22.6086 5.43547C22.2829 5.43547 22.0386 5.70321 22.0386 6.06007ZM24.7258 35.5388L24.6852 35.4058L24.6444 35.2717C24.6444 35.2273 24.6444 35.1378 24.6036 35.0937L23.7914 35.6265C23.8276 35.6937 23.8817 35.7738 23.9931 35.8957L24.7258 35.5388ZM4.53361 40.2666C3.67858 38.8842 2.78303 39.4192 2.78303 39.4192C2.78303 39.4192 2.05008 38.3485 1.15464 36.8324C-0.473854 33.978 0.055329 32.5509 0.055329 32.5509L2.00946 27.734C1.8805 29.2043 2.76569 30.4595 4.01183 32.2266C4.7315 33.2472 5.57156 34.4384 6.40617 35.9404C7.74965 38.3485 8.11602 39.6869 7.66819 41.9607C7.38317 43.5223 6.60972 43.3886 6.40617 43.2994C5.95322 43.0822 5.44124 42.0456 5.02081 41.1942C4.83661 40.8213 4.67 40.4839 4.53361 40.2666ZM1.23577 25.1035C2.17205 25.9509 2.53863 26.3971 2.53863 26.3971C2.53863 26.3971 3.43408 25.0138 4.37046 26.7974C4.52284 27.0761 4.62768 27.4672 4.7406 27.8886C4.98967 28.818 5.27806 29.8941 6.2025 30.2319C6.85387 30.4995 7.30149 29.8747 7.34222 29.5632C7.46453 28.8942 7.54577 27.199 6.6096 25.6384C6.16001 24.8835 5.64426 24.4182 5.37097 24.1716C5.27301 24.0832 5.2062 24.0229 5.18476 23.9874C5.18476 23.9874 3.14916 22.3823 2.49779 22.0702C1.88714 21.7584 0.66575 21.6693 0.340223 22.3823C0.136568 22.8733 0.136568 23.9434 1.23577 25.1035ZM4.33021 17.7896L4.37414 17.7767C4.3499 17.7796 4.33475 17.7846 4.33021 17.7896ZM6.73156 30.8114C6.56874 30.901 6.40591 30.8563 5.99882 30.7228C5.0907 30.4019 4.7307 29.2726 4.37265 28.1494C4.23312 27.7116 4.09388 27.2748 3.9226 26.8871C3.55635 26.0847 3.02706 26.4418 2.90487 27.0655C2.45714 28.8942 5.63246 32.7298 5.63246 32.7298L6.85386 30.9455L6.85322 30.9441C6.81259 30.8554 6.77207 30.767 6.73156 30.8114ZM4.69647 41.9607C5.38858 43.4779 6.2434 44.1913 6.81331 43.968C6.85415 43.9236 6.89466 44.0126 6.85415 44.0571C6.60987 44.4588 6.03995 45.1723 6.03995 45.0379C6.03995 45.0277 5.98723 44.9885 5.89556 44.9205C5.59258 44.6957 4.86419 44.1552 4.20802 43.2994C3.14944 41.9168 2.86443 40.4008 2.94589 40.2225C3.31215 39.5979 3.84155 39.9993 4.69647 41.9607ZM1.31715 47.2236C2.74199 48.5613 2.78283 49.4535 2.53854 50.3903C2.26684 51.4618 1.63269 52.0766 1.26495 52.433C1.08155 52.6108 0.96441 52.7244 0.991513 52.7983C1.15433 53.1556 1.92779 53.7802 2.82345 52.7532C3.1034 52.4174 3.33097 52.1343 3.52759 51.8896C3.93142 51.3872 4.20472 51.0472 4.5333 50.7472C5.34749 49.9887 6.24304 50.0784 6.48721 50.7472C6.48721 50.7472 6.56868 49.4535 6.40597 48.4729C6.20817 46.9925 5.63722 46.3892 4.84395 45.5509C4.65714 45.3535 4.45776 45.1428 4.24829 44.9048C1.95537 42.35 2.1578 41.056 2.24583 40.4932L2.25332 40.4449L0.380869 44.1018C0.380869 44.1018 -0.148421 45.9306 1.31715 47.2236ZM4.03921 52.0991C4.24961 51.8191 4.45261 51.5491 4.65563 51.3266C5.26628 50.6581 6.03984 50.6581 6.16183 51.5499C6.16183 51.5499 6.32475 52.0856 5.46982 53.512C4.53354 55.0282 2.45733 56.2776 2.45733 56.2776L1.11385 53.4676C1.11385 53.4676 1.6024 54.092 2.45733 53.6905C3.07384 53.3834 3.57455 52.7173 4.03921 52.0991ZM5.14393 60.6924C6.81305 59.2659 7.74933 57.303 7.74933 57.303L6.65023 51.9961C6.65023 51.9961 6.48731 52.7093 6.20251 53.423C5.63249 54.8054 4.04473 56.1432 2.29426 57.303C0.502942 58.5073 0.380964 60.2467 0.380964 60.2467L0.502942 66.2673C0.991606 64.4382 3.47481 62.1196 5.14393 60.6924ZM6.7318 22.8733C6.7318 22.8733 6.8541 22.0262 5.75489 21.3125C5.69393 21.273 5.63247 21.2332 5.57076 21.1934C4.51972 20.5146 3.39602 19.7888 3.43429 18.9045C3.43429 18.237 3.65928 18.3089 3.87543 18.3781C3.91942 18.3921 3.96303 18.406 4.00432 18.4136C4.45214 18.5025 5.95844 19.2159 8.11612 21.892L6.7318 22.8733ZM6.16194 23.052C6.60988 23.052 6.20278 22.2046 5.42932 21.7139C4.94075 21.4014 3.67873 20.5098 3.67873 20.5098C3.67873 20.5098 2.21316 21.2229 2.33536 21.1786C3.25044 21.1285 4.01123 21.7263 4.69 22.2597C5.21909 22.6754 5.69833 23.052 6.16194 23.052ZM4.20807 64.349C4.20807 64.349 4.4115 64.6613 4.81871 64.8847L4.9135 64.9335C5.59276 65.2821 6.4416 65.7178 6.32491 66.3557C6.28418 66.6682 5.99917 67.1142 5.2257 66.9805C4.83243 66.8999 4.63208 66.7376 4.35579 66.5138C4.17452 66.3669 3.96058 66.1937 3.63805 65.9996C3.14948 65.6878 2.45749 65.5985 1.72465 65.7765L4.20807 64.349ZM4.81844 62.3878C4.81844 62.3878 4.16706 63.1455 4.89968 63.7249C5.21837 63.9773 5.60634 64.2042 5.96985 64.4168C6.4422 64.6931 6.87333 64.9453 7.05747 65.1976C7.50519 65.8212 7.22018 66.4012 6.60964 67.1141L8.97074 65.3306C8.97074 65.3306 7.70863 62.2981 4.81844 62.3878ZM10.2739 62.833C10.396 63.3683 10.5588 63.7695 11.9837 64.6613C13.5542 65.6272 13.4306 66.1973 13.3766 66.4464L13.3749 66.4544L13.3714 66.4708L13.3677 66.4895C13.3677 66.8471 12.7165 67.4268 12.7165 67.4268C12.7165 67.4268 10.2739 66.9372 9.62247 64.9737C8.97107 63.0119 7.3426 62.0308 6.2435 61.8077C6.09118 61.7763 5.96336 61.7498 5.85638 61.7277C5.50588 61.6552 5.37916 61.6289 5.34795 61.6289L8.52315 60.0683C8.52315 60.0683 8.93046 59.5326 11.4138 61.2723C11.4138 61.2723 10.0295 61.7178 10.2739 62.833ZM11.6581 62.0308C11.4952 62.0308 11.2102 62.1643 11.2916 62.6109C11.4261 63.3472 12.2551 63.8101 12.9985 64.2251C13.155 64.3124 13.3078 64.3977 13.4493 64.4829C14.2634 64.9737 14.3856 65.6426 14.2228 66.1778C14.1006 66.5346 14.0192 66.6682 14.0192 66.6682L15.6476 65.1976C15.6417 65.1976 15.5875 65.1354 15.4943 65.0283C14.9415 64.3936 13.0165 62.1834 11.6581 62.0308ZM37.5901 42.0056C37.1425 39.7312 37.5087 38.3934 38.8522 35.9848C39.6938 34.4539 40.5409 33.2449 41.2645 32.2123C42.5012 30.4474 43.3773 29.1971 43.2489 27.734L45.203 32.5956C45.203 32.5956 45.7322 34.0232 44.1036 36.8773C43.2081 38.3934 42.4754 39.4639 42.4754 39.4639C42.4754 39.4639 41.5798 38.9286 40.725 40.311C40.5887 40.5282 40.4261 40.8648 40.2463 41.2369C39.835 42.0886 39.3337 43.1266 38.8522 43.3436C38.6485 43.433 37.8752 43.5223 37.5901 42.0056ZM40.0325 23.9434C40.0109 23.979 39.9407 24.0429 39.8384 24.1357C39.5551 24.3931 39.0265 24.8732 38.6076 25.5938C37.6714 27.1547 37.7528 28.8491 37.875 29.5188C37.9158 29.8307 38.3636 30.4551 39.0148 30.187C39.9634 29.8408 40.2625 28.7165 40.514 27.7711C40.6187 27.3777 40.7151 27.015 40.8467 26.7527C41.7832 25.0138 42.6788 26.3522 42.6788 26.3522C42.6788 26.3522 43.0451 25.9057 43.9408 25.0138C45.0401 23.854 45.0807 22.7846 44.8362 22.293C44.5107 21.5797 43.3302 21.7138 42.6788 21.982C42.068 22.293 40.0325 23.9434 40.0325 23.9434ZM41.3759 26.8422C41.7423 26.0397 42.2308 26.3972 42.3935 27.0209C42.8603 28.8105 39.9458 32.3501 39.7202 32.624L39.7068 32.6404L38.4856 30.8563C38.4448 30.8114 38.5262 30.7225 38.5669 30.7666C38.689 30.8563 38.8925 30.8114 39.2995 30.6779C40.182 30.3662 40.5271 29.2913 40.8774 28.2002C41.0282 27.7307 41.1799 27.2581 41.3759 26.8422ZM40.5619 41.9607C39.8698 43.4779 39.0148 44.1913 38.4449 44.0126C38.4042 44.0126 38.3636 44.0571 38.4042 44.1018C38.6891 44.503 39.2183 45.217 39.2183 45.0834C39.2183 45.0562 39.3087 44.9877 39.4587 44.8741C39.8015 44.6146 40.4555 44.1195 41.0504 43.3436C42.1087 41.9607 42.3937 40.4008 42.3122 40.2667C41.9461 39.5979 41.4167 39.9993 40.5619 41.9607ZM42.9746 40.5572L42.9693 40.5237L42.9639 40.4895L44.7958 44.1464C44.7958 44.1464 45.3251 45.9307 43.9001 47.2681C42.4754 48.6064 42.4346 49.4983 42.6788 50.4345C42.9658 51.4354 43.5706 52.0512 43.9357 52.423C44.1402 52.6312 44.2696 52.763 44.2258 52.8429C44.0629 53.1996 43.2488 53.8244 42.3937 52.7983C42.1124 52.4609 41.8839 52.1764 41.6867 51.9308C41.2845 51.43 41.0118 51.0904 40.684 50.7918C39.8698 50.0328 38.9743 50.1225 38.7301 50.7918C38.7301 50.7918 38.6893 49.4983 38.8112 48.5173C39.009 47.0373 39.5802 46.4336 40.3737 45.595C40.5604 45.3976 40.7596 45.1871 40.969 44.9492C43.2751 42.4232 43.0668 41.1303 42.9746 40.5572ZM42.8011 56.2776L44.1443 53.4676C44.1443 53.4676 43.6559 54.0918 42.8011 53.6905C42.1572 53.3838 41.6674 52.7188 41.2125 52.1013C41.0057 51.8207 40.8062 51.5497 40.6026 51.3266C39.992 50.6581 39.2184 50.6581 39.0963 51.5499C39.0963 51.5499 38.9743 52.1296 39.7883 53.512C40.7248 55.0282 42.8011 56.2776 42.8011 56.2776ZM39.0151 53.4676C39.5851 54.8513 41.1728 56.1882 42.9233 57.3482C44.7146 58.552 44.8366 60.2912 44.8368 60.3357L44.7146 66.3559C44.2667 64.4383 41.7836 62.1644 40.1143 60.7372C38.4452 59.3101 37.5088 57.3482 37.5088 57.3482L38.5673 52.0404C38.5673 52.0404 38.7303 52.7533 39.0151 53.4676ZM37.1422 21.8918L38.5262 22.8733C38.5262 22.8733 38.4041 22.0262 39.5035 21.3124L39.5845 21.26L39.6841 21.1956C40.736 20.516 41.8643 19.7872 41.8643 18.8597C41.8643 18.1771 41.5999 18.2678 41.3955 18.3379C41.3594 18.3502 41.3251 18.362 41.2945 18.3687C40.806 18.4575 39.2589 19.1713 37.1422 21.8918ZM39.0966 23.052C38.6488 23.052 39.0557 22.2046 39.8293 21.7139C40.277 21.4014 41.5799 20.5098 41.5799 20.5098C41.5799 20.5098 43.0454 21.1786 42.9233 21.1786C42.0082 21.1285 41.2475 21.7263 40.5686 22.2596C40.0396 22.6754 39.5603 23.052 39.0966 23.052ZM40.3622 64.9269L40.2765 64.9733C39.6432 65.315 38.8588 65.7383 38.9336 66.3115C38.9743 66.6245 39.2592 67.1142 40.0327 66.9372C40.4258 66.8558 40.6262 66.6936 40.9024 66.47C41.0836 66.3232 41.2977 66.1499 41.6203 65.9557C42.1087 65.6426 42.8417 65.5535 43.5338 65.7321L41.0505 64.3051C41.0441 64.312 41.0336 64.3257 41.019 64.3447C40.9413 64.4457 40.7482 64.6967 40.4398 64.8847L40.3622 64.9269ZM39.3855 64.3378C38.8794 64.6274 38.395 64.9046 38.2008 65.1977C37.7529 65.8659 38.0377 66.4014 38.6484 67.1142L36.2873 65.3306C36.2873 65.3306 37.5493 62.2982 40.4397 62.3879C40.4397 62.3879 41.0912 63.1455 40.3584 63.7249C40.0793 63.9407 39.7274 64.1422 39.3855 64.3378ZM38.9742 61.8516L39.3145 61.7815L39.3158 61.7813C39.7009 61.7019 39.8372 61.6737 39.8698 61.6737L36.6946 60.1124C36.6946 60.1124 36.2873 59.5773 33.804 61.3169C33.804 61.3169 35.1881 61.7627 34.9438 62.8777C34.8217 63.4128 34.659 63.8589 33.2342 64.7066C31.7279 65.6321 31.7798 66.1942 31.8043 66.4591C31.807 66.4877 31.8093 66.5129 31.8093 66.5346C31.8093 66.8917 32.4606 67.4712 32.4606 67.4712C32.4606 67.4712 34.9032 66.9806 35.5546 65.0187C36.2465 63.012 37.9157 62.0752 38.9742 61.8516ZM29.6107 59.9341C30.3437 60.1123 33.6004 61.2724 33.6004 61.2724C33.6004 61.2724 32.0128 61.5836 30.3437 63.3238C30.0712 63.5946 29.7978 63.8901 29.5146 64.1962L29.5136 64.1973C27.9776 65.8578 26.1548 67.8283 22.6495 67.8283C19.095 67.8283 17.2707 65.835 15.7209 64.142C15.4603 63.8571 15.2073 63.5808 14.9553 63.3238C13.2863 61.629 11.6985 61.2724 11.6985 61.2724C11.6985 61.2724 14.9553 60.1123 15.6881 59.9341C16.3801 59.7559 17.3165 60.0234 18.8634 61.6737C20.6792 63.6202 22.3115 63.5586 22.6126 63.5471C22.6288 63.5465 22.6412 63.5461 22.6495 63.5461C22.6605 63.5461 22.6759 63.5466 22.6955 63.5473C23.0382 63.5589 24.6641 63.6141 26.4356 61.6737C27.9418 60.0234 28.8783 59.7559 29.6107 59.9341ZM31.8094 64.4828C31.9509 64.3977 32.1035 64.3124 32.26 64.2251C33.0032 63.8101 33.8324 63.3471 33.9668 62.6108C34.0483 62.1642 33.7633 62.0307 33.6004 62.0307C32.0128 62.2537 29.6107 65.1975 29.6107 65.1975L31.1871 66.621C31.1448 66.5555 31.0904 66.417 31.0359 66.1777C30.873 65.6425 30.9951 64.9736 31.8094 64.4828ZM36.0025 54.7167V24.1218H9.2562V54.5825C9.2562 56.3218 10.4368 57.5253 12.1059 57.5253H20.4513C21.5099 57.5253 22.202 58.1949 22.6091 58.8641C23.0159 58.1949 23.6674 57.5253 24.7667 57.5253H32.9087C34.7406 57.5253 36.0025 56.3665 36.0025 54.7167ZM8.89446 21.336C8.47658 20.8514 8.0164 20.3177 6.73198 19.1271C5.35915 17.8612 4.56436 17.7536 4.37414 17.7767L8.40106 16.5846C8.64541 16.5401 9.66325 16.7187 11.1693 19.305C12.415 21.4754 13.9474 22.6017 15.1655 23.1854H16.1767V21.982H29.0819V23.1854H29.8186C31.0647 22.6299 32.6954 21.5022 34.0077 19.216C35.5139 16.6292 36.5318 16.451 36.776 16.4954L40.847 17.7008C40.847 17.7008 40.0328 17.6561 38.486 19.0826C37.2011 20.2729 36.7411 20.8068 36.3231 21.2917C36.0523 21.6058 35.7992 21.8994 35.3512 22.3377C34.9792 22.7059 34.597 22.9805 34.2423 23.1854H36.8575V54.7167C36.8575 56.8568 35.2291 58.418 32.9493 58.418H24.8072C23.3824 58.418 23.0974 60.0234 23.0974 60.1123L22.6496 62.1642L22.2019 60.1123C22.2019 60.0234 21.8354 58.418 20.4512 58.418H12.1058C9.94805 58.418 8.40106 56.7682 8.40106 54.5381V23.1854H10.8993C10.5665 22.9855 10.2121 22.7243 9.86674 22.3823C9.4184 21.9438 9.16533 21.6502 8.89446 21.336Z" fill="#F54E5A"/>
</svg>
