<svg width="114" height="38" viewBox="0 0 114 38" fill="none" xmlns="http://www.w3.org/2000/svg">
<g clip-path="url(#clip0_32_1935)">
<rect x="-21.6009" y="-55.464" width="158.061" height="146.171" stroke="#074385" stroke-opacity="0.19" stroke-width="0.699384"/>
<path d="M53.4449 2.49456V8.41194H52.6125V1.67298H56.7747V2.49456H53.4449ZM57.5229 8.41194V1.67298H61.6851V2.49456H58.3554V4.63655H61.2056V5.44836H58.3554V7.60013H61.6851V8.41194H57.5229ZM66.5225 8.41194V5.40924H63.6006V8.41194H62.7681V1.67298H63.6006V4.58765H66.5239V1.67298H67.3737V8.41194H66.5225ZM68.6871 8.41194V1.67298H72.8493V2.49456H69.5196V4.63655H72.3698V5.44836H69.5196V7.60013H72.8493V8.41194H68.6871ZM78.2839 3.68782C78.2839 3.92858 78.2421 4.17009 78.1572 4.4116C78.0785 4.64692 77.9621 4.86543 77.8134 5.05713C77.663 5.24597 77.4793 5.40322 77.2614 5.52661C77.0303 5.64736 76.7761 5.70767 76.5195 5.70266H74.7648V8.41194H73.9324V1.67298H76.5202C76.8215 1.67298 77.0812 1.73467 77.2983 1.85881C77.5211 1.97618 77.7055 2.13267 77.8503 2.32829C77.995 2.51713 78.1036 2.73231 78.176 2.97382C78.2484 3.20856 78.2839 3.44631 78.2839 3.68782ZM77.4605 3.68782C77.4605 3.32292 77.3554 3.03251 77.1438 2.81733C76.9392 2.60215 76.6733 2.49456 76.3476 2.49456H74.7648V4.87129H76.3482C76.674 4.87129 76.9399 4.76671 77.1445 4.55831C77.3554 4.3499 77.4605 4.05949 77.4605 3.68782ZM82.7078 8.41194L82.2192 6.89592H79.74L79.2597 8.41194H78.3918L80.5634 1.67298H81.4049L83.5855 8.41194H82.7078ZM80.9608 2.90536L80.5084 4.47028L80.0114 6.07433H81.9568L81.4592 4.47028L80.9977 2.90536H80.9615H80.9608ZM86.0258 2.49456V4.62677C86.0258 5.25876 85.9861 5.80047 85.9074 6.25038C85.8357 6.7003 85.7237 7.08175 85.5733 7.39474C85.4402 7.68491 85.2558 7.94409 85.0304 8.15764C84.8133 8.35325 84.5655 8.51276 84.2885 8.6369L83.9266 7.86421C84.1269 7.75493 84.3126 7.61674 84.4785 7.45342C84.6414 7.29693 84.7736 7.09454 84.8766 6.84701C84.9852 6.59873 85.0632 6.29252 85.1119 5.92762C85.1662 5.56272 85.1933 5.10904 85.1933 4.56809V1.67298H89.0298V8.41194H88.1793V2.49456H86.0258ZM94.74 6.41666C94.74 6.65741 94.7038 6.89893 94.6314 7.14044C94.559 7.37517 94.4504 7.58734 94.3057 7.77619C94.1545 7.97063 93.9662 8.12744 93.7537 8.23588C93.5365 8.35325 93.2769 8.41194 92.9756 8.41194H90.3877V1.67298H91.2202V4.45072H92.9484C93.2254 4.45072 93.4732 4.5094 93.6904 4.62677C93.9131 4.73737 94.1003 4.88785 94.2514 5.07669C94.408 5.25952 94.5284 5.46792 94.6133 5.70266C94.6964 5.93001 94.7394 6.17219 94.74 6.41666ZM93.9166 6.41666C93.9166 6.23383 93.8859 6.07433 93.8261 5.9374C93.7748 5.79861 93.6943 5.67468 93.5908 5.57551C93.486 5.47636 93.3625 5.40295 93.2289 5.36033C93.0897 5.30767 92.9394 5.28209 92.7765 5.28209H91.2202V7.59035H92.8036C93.1294 7.59035 93.3946 7.48577 93.5999 7.27737C93.8108 7.06896 93.9166 6.78156 93.9166 6.41666ZM99.5022 8.41194V5.40924H96.5796V8.41194H95.7471V1.67298H96.5796V4.58765H99.5029V1.67298H100.353V8.41194H99.5022ZM105.549 8.41194L105.06 6.89592H102.581L102.1 8.41194H101.232L103.404 1.67298H104.246L106.426 8.41194H105.549ZM103.801 2.90536L103.349 4.47028L102.852 6.07433H104.798L104.3 4.47028L103.838 2.90536H103.801ZM107.337 3.68782C107.337 3.41396 107.376 3.15665 107.455 2.91514C107.533 2.66685 107.648 2.45243 107.799 2.2696C107.955 2.08678 108.143 1.94383 108.36 1.83925C108.602 1.72418 108.864 1.66744 109.129 1.67298H111.699V8.41194H110.866V5.50704H109.627C109.519 5.51442 109.413 5.5341 109.31 5.56573C109.199 5.59979 109.094 5.6562 109.002 5.732C108.895 5.82222 108.804 5.93136 108.731 6.05477C108.635 6.21142 108.562 6.38292 108.514 6.56337L108.025 8.41194H107.174L107.681 6.46556C107.759 6.1917 107.844 5.96373 107.934 5.78091C108.025 5.59206 108.17 5.44535 108.369 5.34077C108.007 5.2234 107.744 5.02101 107.582 4.73436C107.419 4.44094 107.337 4.09184 107.337 3.68782ZM108.134 3.68782C108.134 4.07228 108.242 4.34614 108.459 4.5094C108.682 4.67267 108.966 4.75392 109.31 4.75392H110.866V2.49456H109.292C108.917 2.49456 108.631 2.59914 108.432 2.80755C108.233 3.00993 108.134 3.30336 108.134 3.68782ZM52.6125 19.6087C52.7517 19.4981 52.8721 19.3642 52.9744 19.2077C53.0767 19.0444 53.1616 18.839 53.2277 18.5915C53.3001 18.3432 53.3572 18.0407 53.3997 17.6819C53.4414 17.323 53.4721 16.8926 53.4901 16.3908L53.5897 13.7109H57.5257L57.5347 19.6282H58.0414V21.9072H57.2271V20.4498H52.9653V21.9072H52.151V19.6087H52.6125ZM54.3497 14.5325L54.2593 16.469C54.2412 16.9054 54.2203 17.2876 54.1959 17.6134C54.1757 17.9051 54.1425 18.1956 54.0964 18.4839C54.0546 18.7322 53.9969 18.9504 53.9245 19.1392C53.8591 19.32 53.7675 19.4884 53.653 19.638H56.6752V14.5325H54.3497ZM62.995 15.2269L62.0902 16.7918L59.9082 20.4498H59.1217V13.7109H59.9534V18.8653H60.0168L60.813 17.5156L63.0841 13.7109H63.8894V20.4498H63.0577V15.2269H62.995ZM69.5321 15.7257C69.5321 15.9665 69.4903 16.208 69.4054 16.4495C69.3267 16.6848 69.2103 16.9033 69.0616 17.095C68.9112 17.2839 68.7275 17.4411 68.5096 17.5645C68.2785 17.6853 68.0243 17.7456 67.7677 17.7406H66.0123V20.4498H65.1806V13.7109H67.7684C68.0704 13.7109 68.3294 13.7726 68.5465 13.8967C68.7693 14.0141 68.9537 14.1706 69.0985 14.3662C69.2432 14.555 69.3518 14.7702 69.4242 15.0117C69.4966 15.2465 69.5321 15.4842 69.5321 15.7257ZM68.7087 15.7257C68.7087 15.3608 68.6036 15.0704 68.392 14.8552C68.1867 14.64 67.9215 14.5325 67.5958 14.5325H66.0123V16.9092H67.5958C67.9215 16.9092 68.1874 16.8046 68.392 16.5962C68.6029 16.3878 68.7087 16.0974 68.7087 15.7257ZM70.5246 20.4498V13.7109H74.6868V14.5325H71.3571V16.6744H74.2073V17.4863H71.3571V19.638H74.6868V20.4498H70.5246ZM75.797 20.4498V13.7109H76.6294V16.6158H77.5969C77.6944 16.6158 77.7967 16.606 77.9053 16.5864C78.0172 16.5656 78.1246 16.5224 78.2219 16.4593C78.3305 16.3878 78.4301 16.2862 78.5205 16.1561C78.6249 15.995 78.7044 15.8166 78.7558 15.6279L79.3258 13.7109H80.1221L79.5611 15.6768C79.4643 16.0094 79.3405 16.2862 79.1901 16.5082C79.0391 16.7301 78.8672 16.8768 78.6744 16.9483C78.9333 17.0393 79.1358 17.2026 79.2799 17.4373C79.4254 17.6653 79.543 17.9459 79.6335 18.2785L80.2307 20.4498H79.362L78.8191 18.435C78.7717 18.2434 78.6953 18.0616 78.5929 17.897C78.522 17.7689 78.4263 17.6588 78.3124 17.5743C78.2132 17.5041 78.1027 17.4543 77.9867 17.4276C77.8736 17.4017 77.7584 17.3885 77.6429 17.3884H76.6294V20.4498H75.797ZM85.517 20.4498H81.219V13.7109H82.0515V19.638H84.9748V13.7109H85.8246V19.6185L86.3404 19.6282V21.9072H85.517V20.4498ZM91.161 15.2269L90.2562 16.7918L88.0755 20.4498H87.2883V13.7109H88.1208V18.8653H88.1834L88.9804 17.5156L91.2515 13.7109H92.0568V20.4498H91.2244V15.2269H91.161ZM93.4099 15.7257C93.4099 15.4518 93.4488 15.1945 93.5275 14.953C93.6054 14.7047 93.7203 14.4903 93.8713 14.3075C94.0279 14.1247 94.2152 13.9817 94.4323 13.8771C94.6745 13.7621 94.9369 13.7053 95.2014 13.7109H97.7711V20.4498H96.9387V17.5449H95.6991C95.5919 17.5523 95.4857 17.572 95.3824 17.6036C95.2711 17.6377 95.1667 17.6941 95.0748 17.7699C94.968 17.8601 94.8763 17.9693 94.8033 18.0927C94.7074 18.2493 94.6342 18.4208 94.5862 18.6013L94.0975 20.4498H93.247L93.7537 18.5035C93.8317 18.2296 93.9166 18.0016 94.0071 17.8188C94.0975 17.63 94.2423 17.4832 94.4414 17.3787C94.0794 17.2613 93.817 17.0589 93.6542 16.7723C93.4913 16.4788 93.4099 16.1297 93.4099 15.7257ZM94.2061 15.7257C94.2061 16.1102 94.3147 16.384 94.5319 16.5473C94.7546 16.7106 95.0386 16.7918 95.3824 16.7918H96.9387V14.5325H95.3643C94.9898 14.5325 94.7031 14.637 94.5047 14.8454C94.3056 15.0478 94.2061 15.3412 94.2061 15.7257ZM56.8471 33.2401H52.5491V26.5011H53.3816V32.4283H56.3042V26.5011H57.1547V32.4087L57.6705 32.4185V34.6974H56.8471V33.2401ZM58.6365 33.2401V26.5011H62.7988V27.3227H59.469V29.4647H62.3192V30.2765H59.469V32.4283H62.7988V33.2401H58.6365ZM67.6361 33.2401V30.2374H64.7135V33.2401H63.8811V26.5011H64.7135V29.4158H67.6361V26.5011H68.4867V33.2401H67.6361ZM72.035 27.3325V33.2401H71.1942V27.3325H69.3936V26.5011H73.8273V27.3325H72.035ZM79.0878 28.516C79.0878 28.7567 79.046 28.9982 78.9611 29.2397C78.8824 29.475 78.766 29.6935 78.6173 29.8853C78.4669 30.0741 78.2832 30.2314 78.0653 30.3548C77.8342 30.4755 77.58 30.5358 77.3234 30.5308H75.568V33.2401H74.7356V26.5011H77.3234C77.6255 26.5011 77.8844 26.5628 78.1015 26.687C78.325 26.8043 78.5087 26.9608 78.6535 27.1564C78.7983 27.3453 78.9068 27.5605 78.9792 27.802C79.0516 28.0367 79.0878 28.2745 79.0878 28.516ZM78.2644 28.516C78.2644 28.1511 78.1593 27.8607 77.9477 27.6455C77.7431 27.4303 77.4772 27.3227 77.1515 27.3227H75.568V29.6994H77.1515C77.4772 29.6994 77.7431 29.5949 77.9477 29.3865C78.1593 29.178 78.2644 28.8876 78.2644 28.516Z" fill="black"/>
<path fill-rule="evenodd" clip-rule="evenodd" d="M45.5381 33.2403V1.64087H46.2341V33.2403H45.5381Z" fill="black"/>
</g>
<g clip-path="url(#clip1_32_1935)">
<path d="M28.5033 0.135742H25.7192V31.7352H28.5033V0.135742ZM31.2874 31.7352H28.5033V37.7541H31.2874V31.7352ZM22.9351 0.135742H20.151V31.7352H22.9351V0.135742ZM9.01463 0.135742V31.7352H11.7987V3.14521H14.5828V31.7352H17.3669V0.135742H9.01463ZM20.151 31.7352H17.3669V37.7541H20.151V31.7352ZM9.01463 31.7352H6.23054V37.7541H9.01463V31.7352ZM6.23054 3.14521V0.135742H0.662354V31.7352H3.44645V3.14521H6.23054Z" fill="#1D1D1B"/>
</g>
<defs>
<clipPath id="clip0_32_1935">
<rect width="68.2103" height="34.6089" fill="white" transform="translate(45.1903 0.136475)"/>
</clipPath>
<clipPath id="clip1_32_1935">
<rect width="30.625" height="37.6184" fill="white" transform="translate(0.662354 0.136475)"/>
</clipPath>
</defs>
</svg>
